<!-- Generator: Adobe Illustrator 24.3.0, SVG Export Plug-In  -->
<svg version="1.1" xmlns="http://www.w3.org/2000/svg" xmlns:xlink="http://www.w3.org/1999/xlink" x="0px" y="0px" width="32.15px"
	 height="32.15px" viewBox="0 0 32.15 32.15" style="overflow:visible;enable-background:new 0 0 32.15 32.15;"
	 xml:space="preserve">
<style type="text/css">
	.st0{fill:#FFFFFF;}
</style>
<defs>
</defs>
<g>
	<path class="st0" d="M20.79,8.57c-1.59-0.24-7.57-0.22-9.24-0.04c-1.64,0.18-2.73,1.2-2.97,2.82c-0.26,1.73-0.21,8.18,0,9.47
		c0.22,1.35,0.99,2.27,2.33,2.65c1.4,0.39,8.16,0.3,9.68,0.14c1.65-0.18,2.74-1.2,2.99-2.83c0.25-1.66,0.21-7.67,0.04-9.21
		C23.44,9.92,22.42,8.83,20.79,8.57z M16.07,20.89c-2.66,0-4.81-2.16-4.81-4.81c0-2.66,2.16-4.81,4.81-4.81
		c2.66,0,4.81,2.16,4.81,4.81C20.88,18.74,18.73,20.89,16.07,20.89z M21.07,12.21c-0.62,0-1.13-0.51-1.12-1.13
		c0-0.62,0.51-1.13,1.13-1.12c0.62,0,1.13,0.51,1.12,1.13C22.2,11.71,21.7,12.21,21.07,12.21z"/>
	<path class="st0" d="M16.1,12.96c-1.72-0.02-3.12,1.36-3.14,3.08c-0.02,1.72,1.36,3.12,3.08,3.14c1.72,0.02,3.12-1.36,3.14-3.08
		C19.2,14.38,17.82,12.98,16.1,12.96z"/>
	<path class="st0" d="M26.69,0H5.46C2.46,0,0,2.46,0,5.46v21.23c0,3,2.46,5.46,5.46,5.46h21.23c3,0,5.46-2.46,5.46-5.46V5.46
		C32.15,2.46,29.69,0,26.69,0z M25.18,21.49c-0.56,2.13-1.95,3.4-4.11,3.75c-1.63,0.26-8.91,0.31-10.39-0.07
		c-2.14-0.55-3.41-1.93-3.77-4.09c-0.26-1.58-0.35-8.94,0.1-10.53c0.58-2.08,1.96-3.3,4.06-3.64c1.84-0.3,7.08-0.22,9.28-0.1
		c1.29,0.07,2.48,0.48,3.44,1.4c0.92,0.88,1.39,1.97,1.52,3.2C25.46,12.88,25.6,19.85,25.18,21.49z"/>
</g>
</svg>
