<svg height="512" viewBox="0 0 56 58" width="512" xmlns="http://www.w3.org/2000/svg"><g id="Page-1" fill="none" fill-rule="evenodd"><g id="091---Seed" fill-rule="nonzero"><path id="Shape" d="m37.1 33.37c-.28 6.43-1.85 16.63-8.54 21.44-7.83 5.67-20.39 2.42-25.82.59-1.63017633-.5410335-2.73296732-2.0624021-2.74-3.78 0-5.73.78-18.67 8.61-24.34 6.68-4.84 16.8-3.18 23-1.46.1002116.4249815.173689.8558261.22 1.29.2002025 1.6759224-.088019 3.3739983-.83 4.89.9666967.0193433 1.9300702.1196947 2.88.3 1.1210701.1925668 2.206639.5532993 3.22 1.07z" fill="#f3d55b"/><path id="Shape" d="m4 52.61c-.55228475 0-1-.4477153-1-1 0-3.86.35-16.85 7.35-21.92 2.42-1.69 5.65-2.6 9.75-2.6.5522847 0 1 .4477153 1 1s-.4477153 1-1 1c-3.63 0-6.5.75-8.56 2.24-6.38 4.67-6.54 17.67-6.54 20.27 0 .5522847-.44771525 1-1 1z" fill="#f0c419"/><path id="Shape" d="m17.07 55c-.5522847 0-1-.4477153-1-1s.4477153-1 1-1c3.63 0 6.5-.75 8.55-2.24.4473506-.325848 1.074152-.2273506 1.4.22.325848.4473507.2273506 1.074152-.22 1.4-2.4 1.74-5.67 2.62-9.73 2.62z" fill="#f0c419"/><path id="Shape" d="m55.3 29.37c-1.52 3.21-5.46 5.18-10.13 3.58-.9118225-.3333476-1.7811579-.77305-2.59-1.31-.8531904-.7213066-1.8332244-1.2774504-2.89-1.64-1.0504164-.1863387-2.1329658-.0211445-3.08.47-.9793596.4995654-1.8958011 1.1138834-2.73 1.83-.9499298-.1803053-1.9133033-.2806567-2.88-.3.741981-1.5160017 1.0302025-3.2140776.83-4.89 3.32-3.79 8.07-5 12.17-3.06.6968047.3167655 1.365816.6914118 2 1.12 1.13.68 3.25 1.5 3.66.68.1388639-.7328606.0766621-1.4896484-.18-2.19-.5418819-1.5749522-1.2107461-3.1033069-2-4.57l2-1.54c4.87 1.92 7.98 7.25 5.82 11.82z" fill="#14a085"/><path id="Shape" d="m39 36c-.3345191-.0017306-.6460165-.1706148-.83-.45-1.4-2.09-5.65-2.55-7.17-2.55-.3465932-.0010489-.6679286-.1814922-.8492369-.4768822-.1813084-.2953899-.1967323-.6635996-.0407631-.9731178 1.0173358-2.2573386 1.0173358-4.8426614 0-7.1-.2469243-.4916536-.050313-1.0904244.44-1.34.2371744-.1217785.5131586-.1438052.7666461-.061187.2534876.0826182.4634886.26304.5833539.501187 1.0754002 2.3641069 1.270465 5.034721.55 7.53 2.06.21 5.76.92 7.38 3.37.3032166.4562975.1828266 1.071624-.27 1.38-.1655373.1112428-.3605573.1704453-.56.17z" fill="#f29c1f"/><path id="Shape" d="m45.33 3.83c4.17 4.06 4.28 11.06 4.13 13.87-.040057.704535-.6051787 1.2653428-1.31 1.3-2.8.23-9.8.32-14-3.74s-4.26-11.02-4.15-13.83c.0148059-.7184964.582282-1.30343325 1.3-1.34 2.84-.23 9.85-.32 14.03 3.74z" fill="#26b99a"/><path id="Shape" d="m48.93 19.75c-.4536001.0207659-.8642525-.2666908-1-.7-.41-1.29-2.95-8-12.46-13.17-.3143937-.17863279-.509606-.51142336-.5121024-.8730127-.0024963-.36158935.1881026-.69704345.5-.88s.6977087-.18562009 1.0121024-.0069873c10.18 5.56 13 12.91 13.4 14.33.1634633.524475-.1267657 1.0826077-.65 1.25-.0926819.0346829-.1910549.0516437-.29.05z" fill="#14a085"/></g></g></svg>