<svg width="378" height="227" viewBox="0 0 378 227" fill="none" xmlns="http://www.w3.org/2000/svg">
<path d="M30.24 83.5795H378V188.555C378 198.751 373.943 208.53 366.722 215.74C359.502 222.95 349.708 227 339.496 227H0V113.773C0 105.765 3.18599 98.0855 8.85709 92.4231C14.5282 86.7606 22.2199 83.5795 30.24 83.5795Z" fill="url(#paint0_linear_176_28)"/>
<path d="M34.6717 91.1019H371.848V183.245C371.848 192.855 368.025 202.07 361.219 208.865C354.414 215.66 345.184 219.478 335.56 219.478H6.64759V119.083C6.64759 111.662 9.60012 104.545 14.8557 99.2975C20.1112 94.05 27.2393 91.1019 34.6717 91.1019Z" fill="url(#paint1_linear_176_28)"/>
<path d="M27.972 138.761H57.6906V151.776C57.6906 153.364 58.3945 154.066 59.9847 154.066H73.0192C73.0192 156.669 73.0192 159.272 73.0192 161.875C73.027 162.074 72.9914 162.273 72.9149 162.457C72.8384 162.642 72.7227 162.807 72.576 162.942L60.2715 175.15C59.3495 176.016 58.644 177.086 58.212 178.273C57.5603 180.2 56.8564 182.126 56.2829 184.078C55.9998 184.913 55.97 185.813 56.1973 186.665C56.4245 187.517 56.8987 188.283 57.5603 188.867C58.1812 189.499 58.9729 189.936 59.8386 190.126C60.7043 190.315 61.6066 190.249 62.4352 189.935L67.3361 188.321C68.8366 187.869 70.1933 187.035 71.2726 185.9C71.7939 185.353 72.3414 184.859 72.941 184.286C72.941 184.442 72.941 184.494 72.941 184.546C72.941 189.284 72.941 194.021 72.941 198.732C72.9068 200.231 72.2831 201.655 71.2048 202.698C70.1266 203.74 68.6806 204.317 67.1797 204.303C54.3538 204.303 41.5452 204.303 28.7541 204.303C27.8521 204.292 26.963 204.088 26.1472 203.704C25.1189 203.237 24.2568 202.469 23.675 201.503C23.0931 200.536 22.8189 199.416 22.8886 198.29V144.305C22.924 143.506 23.1226 142.721 23.4723 142.001C23.8219 141.28 24.3152 140.638 24.9219 140.115C25.8212 139.436 26.8648 138.973 27.972 138.761ZM46.2203 157.945H33.1858C32.848 157.906 32.5069 157.906 32.1691 157.945C31.7811 158.069 31.4419 158.312 31.1989 158.639C30.9558 158.966 30.8211 159.36 30.8135 159.767C30.8223 160.163 30.9552 160.547 31.1937 160.865C31.4321 161.182 31.7641 161.417 32.143 161.537C32.4799 161.589 32.8229 161.589 33.1597 161.537H59.2287C59.5568 161.589 59.8912 161.589 60.2193 161.537C60.5914 161.435 60.92 161.214 61.1552 160.909C61.3905 160.604 61.5195 160.23 61.5228 159.845C61.5403 159.566 61.4959 159.286 61.3928 159.026C61.2897 158.766 61.1303 158.532 60.9262 158.341C60.722 158.149 60.478 158.005 60.2116 157.919C59.9452 157.832 59.663 157.806 59.3851 157.841L46.2203 157.945ZM42.2839 169.45H51.4341C51.7456 169.489 52.061 169.489 52.3726 169.45C52.7695 169.349 53.1202 169.116 53.3667 168.79C53.6132 168.463 53.7407 168.062 53.7281 167.654C53.7561 167.235 53.6317 166.82 53.3779 166.485C53.1241 166.15 52.7579 165.918 52.3465 165.832C52.0348 165.793 51.7196 165.793 51.408 165.832H33.1597C32.8219 165.793 32.4808 165.793 32.143 165.832C31.8914 165.919 31.6609 166.059 31.4667 166.241C31.2725 166.423 31.1188 166.644 31.0156 166.89C30.9123 167.135 30.8619 167.399 30.8675 167.666C30.8731 167.932 30.9347 168.194 31.0481 168.434C31.25 168.764 31.5398 169.031 31.8851 169.206C32.2304 169.381 32.6176 169.456 33.0033 169.424L42.2839 169.45ZM42.2839 177.258H51.4341C51.7709 177.311 52.1139 177.311 52.4508 177.258C52.8453 177.157 53.1929 176.923 53.435 176.596C53.6772 176.269 53.7991 175.869 53.7803 175.462C53.8041 175.055 53.6842 174.652 53.4412 174.324C53.1983 173.996 52.8478 173.763 52.4508 173.666C52.113 173.628 51.7719 173.628 51.4341 173.666C45.3513 173.666 39.2686 173.666 33.1858 173.666C32.8227 173.614 32.454 173.614 32.0909 173.666C31.8355 173.775 31.6075 173.94 31.4234 174.148C31.2393 174.355 31.1037 174.601 31.0264 174.868C30.9491 175.134 30.932 175.415 30.9763 175.688C31.0206 175.962 31.1253 176.223 31.2828 176.451C31.5056 176.686 31.7779 176.869 32.0799 176.986C32.382 177.103 32.7062 177.151 33.0294 177.128L42.2839 177.258ZM42.2839 181.085H32.7948C32.4791 181.079 32.1669 181.15 31.8847 181.291C31.6025 181.433 31.3588 181.64 31.1744 181.896C30.9899 182.152 30.8702 182.448 30.8256 182.76C30.7809 183.072 30.8125 183.39 30.9178 183.688C31.0922 184.092 31.3906 184.431 31.77 184.655C32.1494 184.88 32.5903 184.978 33.0294 184.937H51.799C52.0553 184.948 52.3111 184.906 52.5502 184.813C52.7892 184.72 53.0064 184.578 53.1878 184.397C53.3691 184.216 53.5108 183.999 53.6039 183.761C53.6969 183.522 53.7392 183.267 53.7281 183.011C53.7298 182.743 53.6746 182.477 53.5662 182.232C53.4577 181.987 53.2986 181.767 53.0992 181.588C52.8997 181.408 52.6645 181.273 52.409 181.191C52.1535 181.109 51.8834 181.081 51.6166 181.111L42.2839 181.085ZM48.1233 192.589C47.8529 192.558 47.5789 192.584 47.3193 192.666C47.0597 192.747 46.8203 192.883 46.6169 193.064C46.4136 193.244 46.2508 193.466 46.1394 193.714C46.028 193.962 45.9703 194.231 45.9703 194.503C45.9703 194.774 46.028 195.043 46.1394 195.291C46.2508 195.539 46.4136 195.761 46.6169 195.941C46.8203 196.122 47.0597 196.258 47.3193 196.34C47.5789 196.421 47.8529 196.447 48.1233 196.416H59.5154C59.8496 196.426 60.1804 196.347 60.4738 196.187C60.7671 196.027 61.0122 195.791 61.1839 195.505C61.3625 195.225 61.4574 194.9 61.4574 194.568C61.4574 194.236 61.3625 193.911 61.1839 193.631C61.0185 193.295 60.7563 193.017 60.4311 192.831C60.1059 192.646 59.7325 192.561 59.359 192.589H48.1233Z" fill="white"/>
<path d="M69.3956 182.204L81.9087 169.71L76.6949 164.504L64.0775 176.998L69.3956 182.204ZM61.5749 180.174C61.5749 180.408 61.3924 180.694 61.3142 180.954C60.871 182.282 60.4018 183.557 60.0108 184.885C59.9649 185.08 59.9597 185.282 59.9956 185.479C60.0314 185.676 60.1076 185.864 60.2193 186.03C60.4279 186.238 60.9492 186.238 61.3142 186.238C61.6493 186.182 61.9743 186.077 62.2788 185.926L66.0588 184.651L61.5749 180.174Z" fill="white"/>
<path d="M62.5655 138.761C64.3565 139.271 65.9485 140.315 67.1276 141.755C68.5353 143.264 70.0473 144.696 71.4811 146.18C72.4871 147.28 73.0288 148.725 72.9931 150.214H61.3924V138.761H62.5655Z" fill="white"/>
<path d="M88.6345 162.292C87.9306 164.348 86.0276 165.441 84.7763 166.951L79.3279 161.381C80.7877 160.209 81.7262 158.387 83.6814 157.763C84.1705 157.599 84.6879 157.538 85.2016 157.582C85.7154 157.626 86.2148 157.774 86.669 158.018C87.1232 158.262 87.5226 158.596 87.8427 159C88.1628 159.403 88.3967 159.868 88.5302 160.365L88.6866 160.73L88.6345 162.292Z" fill="white"/>
<path d="M69.3956 182.204L64.1818 176.998L76.6949 164.504L81.9087 169.71L69.3956 182.204Z" fill="white"/>
<path d="M61.627 180.148L66.1109 184.625L62.3309 185.9C62.0264 186.051 61.7015 186.156 61.3663 186.212C61.0014 186.212 60.48 186.212 60.2715 186.004C60.1345 185.84 60.0355 185.647 59.9815 185.44C59.9274 185.233 59.9196 185.017 59.9586 184.807C60.3497 183.479 60.8189 182.204 61.2621 180.876C61.4446 180.668 61.5488 180.382 61.627 180.148Z" fill="white"/>
<path d="M97.305 167.471V152.604H99.2863V167.471H97.305Z" fill="white"/>
<path d="M102.598 167.471V152.604H104.704L112.546 164.66H112.587V152.604H114.464V167.471H112.295L104.517 155.54H104.475V167.471H102.598Z" fill="white"/>
<path d="M128.16 156.956H126.283C126.053 154.832 124.635 153.915 122.591 153.915C120.923 153.915 119.254 154.519 119.254 156.456C119.254 158.288 121.632 158.559 124.03 159.1C126.408 159.642 128.785 160.475 128.785 163.39C128.785 166.555 125.678 167.825 122.967 167.825C119.63 167.825 116.814 166.201 116.814 162.578H118.691C118.691 165.077 120.777 166.16 123.029 166.16C124.823 166.16 126.804 165.597 126.804 163.452C126.804 161.412 124.427 161.058 122.049 160.537C119.672 160.017 117.273 159.329 117.273 156.602C117.273 153.582 119.964 152.25 122.675 152.25C125.72 152.25 128.034 153.686 128.16 156.956Z" fill="white"/>
<path d="M143.643 157.081H141.662C141.245 154.977 139.556 153.915 137.491 153.915C133.946 153.915 132.444 156.831 132.444 159.933C132.444 163.328 133.946 166.16 137.512 166.16C140.119 166.16 141.62 164.327 141.808 161.87H143.789C143.414 165.576 141.099 167.825 137.345 167.825C132.715 167.825 130.463 164.41 130.463 160.079C130.463 155.769 132.924 152.25 137.512 152.25C140.619 152.25 143.184 153.915 143.643 157.081Z" fill="white"/>
<path d="M148.225 159.454H152.354C154.21 159.454 155.795 158.975 155.795 156.81C155.795 155.352 155.003 154.269 153.147 154.269H148.225V159.454ZM146.243 167.471V152.604H153.251C156.045 152.604 157.776 154.124 157.776 156.498C157.776 158.288 156.984 159.767 155.19 160.267V160.308C156.921 160.641 157.276 161.912 157.422 163.369C157.547 164.827 157.464 166.451 158.298 167.471H156.087C155.524 166.867 155.837 165.264 155.545 163.806C155.336 162.349 154.982 161.12 153.063 161.12H148.225V167.471H146.243Z" fill="white"/>
<path d="M160.604 167.471V152.604H162.585V167.471H160.604Z" fill="white"/>
<path d="M165.917 167.471V152.604H172.445C175.406 152.604 177.012 154.249 177.012 156.997C177.012 159.746 175.406 161.412 172.445 161.391H167.899V167.471H165.917ZM167.899 154.269V159.725H171.778C174.009 159.746 175.031 158.767 175.031 156.997C175.031 155.227 174.009 154.269 171.778 154.269H167.899Z" fill="white"/>
<path d="M191.891 157.081H189.91C189.493 154.977 187.804 153.915 185.739 153.915C182.194 153.915 180.692 156.831 180.692 159.933C180.692 163.328 182.194 166.16 185.76 166.16C188.367 166.16 189.868 164.327 190.056 161.87H192.037C191.662 165.576 189.347 167.825 185.593 167.825C180.963 167.825 178.711 164.41 178.711 160.079C178.711 155.769 181.172 152.25 185.76 152.25C188.867 152.25 191.432 153.915 191.891 157.081Z" fill="white"/>
<path d="M194.575 167.471V152.604H196.556V167.471H194.575Z" fill="white"/>
<path d="M199.054 160.037C199.054 155.998 201.453 152.25 206.187 152.25C210.921 152.25 213.319 155.998 213.319 160.037C213.319 164.077 210.921 167.825 206.187 167.825C201.453 167.825 199.054 164.077 199.054 160.037ZM201.036 160.037C201.036 163.036 202.558 166.16 206.187 166.16C209.816 166.16 211.338 163.036 211.338 160.037C211.338 157.039 209.816 153.915 206.187 153.915C202.558 153.915 201.036 157.039 201.036 160.037ZM204.915 151.542L206.708 148.564H208.981L206.249 151.542H204.915Z" fill="white"/>
<path d="M215.713 167.471V152.604H217.819L225.661 164.66H225.702V152.604H227.579V167.471H225.41L217.631 155.54H217.59V167.471H215.713Z" fill="white"/>
<path d="M236.589 167.471V152.604H241.698C246.286 152.604 248.852 154.894 248.852 159.683C248.852 164.66 246.662 167.471 241.698 167.471H236.589ZM238.57 154.269V165.806H241.865C243.221 165.806 246.87 165.431 246.87 159.954C246.87 156.414 245.556 154.269 241.907 154.269H238.57Z" fill="white"/>
<path d="M251.273 167.471V152.604H261.555V154.269H253.254V158.996H260.991V160.662H253.254V165.806H261.617V167.471H251.273Z" fill="white"/>
<path d="M113.075 179.871H107.887C107.79 179.241 107.305 177.329 105.099 177.329C102.601 177.329 101.801 179.75 101.801 182.073C101.801 184.397 102.601 186.818 105.099 186.818C106.893 186.818 107.596 185.559 107.911 183.937H113.148C113.148 187.423 110.311 191.127 105.244 191.127C99.6437 191.127 96.4677 187.181 96.4677 182.073C96.4677 176.627 99.9104 173.02 105.244 173.02C109.996 173.044 112.614 175.538 113.075 179.871Z" fill="white"/>
<path d="M114.864 182.073C114.864 176.796 118.379 173.02 123.64 173.02C128.901 173.02 132.417 176.796 132.417 182.073C132.417 187.351 128.901 191.127 123.64 191.127C118.379 191.127 114.864 187.351 114.864 182.073ZM120.198 182.073C120.198 185.922 122.283 186.818 123.64 186.818C124.998 186.818 127.083 185.922 127.083 182.073C127.083 178.225 124.998 177.329 123.64 177.329C122.283 177.329 120.198 178.225 120.198 182.073Z" fill="white"/>
<path d="M134.669 190.715V173.432H140.003V186.285H147.664V190.715H134.669Z" fill="white"/>
<path d="M149.94 190.715V173.432H164.268V177.861H155.274V180.016H163.444V184.131H155.274V186.285H164.535V190.715H149.94Z" fill="white"/>
<path d="M179.86 190.715L179.69 188.948C178.502 190.473 176.659 191.127 174.768 191.127C169.653 191.127 166.501 187.157 166.501 182.243C166.501 175.659 171.132 173.02 175.035 173.02C179.447 173.02 182.235 175.417 183.011 179.483H177.896C177.702 178.225 176.635 177.329 175.374 177.329C171.714 177.329 171.835 181.178 171.835 182.364C171.835 183.986 172.489 186.818 175.738 186.818C176.975 186.818 178.235 186.189 178.502 184.906H176.15V181.202H183.229V190.715H179.86Z" fill="white"/>
<path d="M185.88 190.715V173.432H191.214V190.715H185.88Z" fill="white"/>
<path d="M193.444 182.073C193.444 176.796 196.96 173.02 202.221 173.02C207.482 173.02 210.997 176.796 210.997 182.073C210.997 187.351 207.482 191.127 202.221 191.127C196.96 191.127 193.444 187.351 193.444 182.073ZM198.778 182.073C198.778 185.922 200.863 186.818 202.221 186.818C203.578 186.818 205.663 185.922 205.663 182.073C205.663 178.225 203.578 177.329 202.221 177.329C200.863 177.329 198.778 178.225 198.778 182.073Z" fill="white"/>
<path d="M212.158 184.906H217.492C217.492 185.341 217.565 185.729 217.686 186.043C218.074 187.084 219.238 187.302 220.232 187.302C221.104 187.302 222.438 187.012 222.438 185.729C222.438 184.833 221.686 184.591 218.704 183.744C215.965 182.969 212.837 182.219 212.837 178.733C212.837 174.739 216.256 173.02 219.819 173.02C223.577 173.02 226.899 174.448 227.044 178.66H222.001C222.098 178.007 221.807 177.571 221.371 177.28C220.935 176.966 220.329 176.845 219.795 176.845C219.068 176.845 217.88 177.038 217.88 178.007C217.977 179.241 220.45 179.508 222.898 180.185C225.347 180.863 227.771 182.001 227.771 185.172C227.771 189.674 223.626 191.127 219.771 191.127C217.807 191.127 212.207 190.425 212.158 184.906Z" fill="white"/>
<path d="M285.977 128.167C321.423 128.167 350.158 99.4762 350.158 64.0837C350.158 28.6913 321.423 0 285.977 0C250.53 0 221.795 28.6913 221.795 64.0837C221.795 99.4762 250.53 128.167 285.977 128.167Z" fill="url(#paint2_linear_176_28)"/>
<path d="M318.041 97.1667H291.972C291.972 96.8544 291.972 96.542 291.972 96.2297V74.8337C292.024 74.5086 291.999 74.1759 291.899 73.8622C291.799 73.5485 291.627 73.2626 291.396 73.0273C291.166 72.792 290.883 72.6139 290.571 72.5072C290.259 72.4005 289.927 72.3683 289.6 72.413H276.566C274.845 72.413 274.115 73.1679 274.115 75.0159V96.3078C274.115 96.6201 274.115 96.9325 274.115 97.2448H248.046L246.638 95.8132V58.4614H263.192C263.627 58.452 264.044 58.2856 264.365 57.9929C269.71 52.7871 275.028 47.373 280.346 42.0631C280.509 41.9155 280.637 41.7343 280.723 41.532C280.808 41.3297 280.849 41.1112 280.841 40.8918C280.841 36.1805 280.841 31.4432 280.841 26.7319C280.804 26.4142 280.839 26.0923 280.944 25.7899C281.048 25.4876 281.219 25.2125 281.445 24.9851C281.67 24.7577 281.943 24.5838 282.245 24.4762C282.547 24.3685 282.869 24.3299 283.187 24.3633C287.593 24.3633 291.972 24.3633 296.378 24.3633C296.728 24.3313 297.082 24.3766 297.412 24.4961C297.743 24.6156 298.044 24.8063 298.292 25.0547C298.541 25.3031 298.732 25.6031 298.852 25.9334C298.972 26.2638 299.017 26.6163 298.985 26.9662C298.985 28.9444 298.985 30.8966 298.985 32.8748C298.985 34.853 298.177 35.764 296.117 35.764H285.194C285.194 37.4819 285.194 39.1218 285.194 40.7616C285.189 41.001 285.234 41.2388 285.329 41.4589C285.423 41.679 285.564 41.8762 285.742 42.037C290.956 47.2429 296.23 52.5094 301.566 57.8367C301.746 58.034 301.969 58.1879 302.217 58.2871C302.465 58.3863 302.733 58.4281 303 58.4094H319.579V59.4766C319.579 71.155 319.579 82.842 319.579 94.5378C319.632 95.0817 319.512 95.6284 319.236 96.1002C318.96 96.5721 318.542 96.9452 318.041 97.1667ZM289.626 60.7259C289.621 59.4143 289.227 58.1336 288.493 57.0455C287.76 55.9574 286.72 55.1107 285.505 54.6124C284.289 54.114 282.954 53.9862 281.666 54.2453C280.378 54.5043 279.196 55.1385 278.269 56.0678C277.342 56.9971 276.711 58.1798 276.457 59.4666C276.203 60.7534 276.336 62.0867 276.84 63.298C277.343 64.5093 278.196 65.5444 279.288 66.2726C280.381 67.0008 281.665 67.3894 282.979 67.3894C284.731 67.3555 286.4 66.6402 287.632 65.3957C288.864 64.1511 289.561 62.4757 289.574 60.7259H289.626ZM296.978 69.8622V72.2829C296.998 72.8053 297.222 73.2991 297.602 73.659C297.982 74.0188 298.487 74.2162 299.011 74.209C299.537 74.2094 300.043 74.0063 300.422 73.6423C300.801 73.2782 301.024 72.7817 301.044 72.2569C301.044 70.6604 301.044 69.0726 301.044 67.4935C301.044 66.9551 300.83 66.4387 300.449 66.0579C300.068 65.6771 299.55 65.4632 299.011 65.4632C298.472 65.4632 297.955 65.6771 297.573 66.0579C297.192 66.4387 296.978 66.9551 296.978 67.4935C296.899 68.3004 296.926 69.0813 296.926 69.8622H296.978ZM255.71 83.6055V85.8961C255.71 86.4346 255.925 86.951 256.306 87.3317C256.687 87.7125 257.205 87.9264 257.744 87.9264C258.283 87.9264 258.8 87.7125 259.182 87.3317C259.563 86.951 259.777 86.4346 259.777 85.8961C259.777 84.2823 259.777 82.6945 259.777 81.0807C259.757 80.5537 259.529 80.0559 259.144 79.6954C258.758 79.3348 258.246 79.1405 257.718 79.1546C257.188 79.1613 256.681 79.3746 256.306 79.7491C255.931 80.1235 255.717 80.6293 255.71 81.1588C255.684 82.0438 255.71 82.8247 255.71 83.6055ZM310.142 83.6055C310.142 82.7986 310.142 81.9917 310.142 81.1848C310.136 80.6578 309.921 80.1547 309.545 79.7844C309.17 79.4142 308.663 79.2066 308.135 79.2066C307.593 79.1996 307.071 79.4061 306.68 79.7812C306.29 80.1564 306.063 80.67 306.05 81.2109C306.05 82.7726 306.05 84.3344 306.05 85.8961C306.063 86.4231 306.284 86.9236 306.665 87.289C307.046 87.6544 307.555 87.8553 308.083 87.8483C308.355 87.8737 308.629 87.8421 308.887 87.7554C309.146 87.6688 309.384 87.529 309.585 87.3452C309.786 87.1613 309.947 86.9374 310.056 86.6878C310.166 86.4382 310.222 86.1686 310.221 85.8961C310.221 85.2194 310.221 84.4385 310.221 83.6576L310.142 83.6055ZM255.71 69.8882C255.71 70.6951 255.71 71.502 255.71 72.2829C255.71 72.8213 255.925 73.3378 256.306 73.7185C256.687 74.0993 257.205 74.3131 257.744 74.3131C258.283 74.3131 258.8 74.0993 259.182 73.7185C259.563 73.3378 259.777 72.8213 259.777 72.2829C259.777 70.6691 259.777 69.0553 259.777 67.4415C259.744 66.9167 259.508 66.4255 259.119 66.0711C258.73 65.7167 258.218 65.5268 257.692 65.5413C257.435 65.5308 257.179 65.5722 256.939 65.6629C256.699 65.7537 256.48 65.892 256.295 66.0695C256.11 66.247 255.963 66.46 255.862 66.6958C255.762 66.9316 255.71 67.1852 255.71 67.4415C255.684 68.2744 255.71 69.0813 255.71 69.8882ZM268.927 69.8882C268.927 69.1334 268.927 68.3785 268.927 67.6237C268.938 67.3564 268.894 67.0897 268.797 66.8402C268.701 66.5907 268.553 66.3638 268.365 66.1734C268.177 65.983 267.952 65.8333 267.703 65.7335C267.454 65.6337 267.188 65.586 266.92 65.5934C266.651 65.5828 266.383 65.6269 266.132 65.7232C265.881 65.8195 265.652 65.9659 265.459 66.1534C265.266 66.341 265.114 66.5658 265.011 66.8141C264.908 67.0624 264.857 67.329 264.861 67.5976C264.861 69.1247 264.861 70.6604 264.861 72.2048C264.857 72.4724 264.907 72.738 265.008 72.9859C265.109 73.2338 265.259 73.459 265.448 73.6482C265.638 73.8374 265.864 73.9869 266.112 74.0876C266.36 74.1884 266.626 74.2386 266.894 74.2351C267.16 74.2385 267.424 74.1892 267.67 74.09C267.917 73.9909 268.141 73.8438 268.33 73.6573C268.52 73.4709 268.67 73.2488 268.772 73.0039C268.875 72.759 268.927 72.4962 268.927 72.2308C268.954 71.4239 268.927 70.643 268.927 69.8622V69.8882ZM310.142 69.8882C310.142 69.0813 310.142 68.2744 310.142 67.4675C310.136 67.2111 310.078 66.9585 309.974 66.7243C309.869 66.49 309.72 66.2786 309.533 66.1021C309.347 65.9257 309.127 65.7876 308.887 65.6959C308.648 65.6041 308.392 65.5604 308.135 65.5674C307.618 65.5459 307.113 65.7272 306.728 66.0725C306.344 66.4179 306.109 66.8999 306.076 67.4154C306.076 69.0292 306.076 70.6691 306.076 72.3089C306.076 72.8474 306.29 73.3638 306.671 73.7445C307.053 74.1253 307.57 74.3392 308.109 74.3392C308.648 74.3392 309.166 74.1253 309.547 73.7445C309.928 73.3638 310.142 72.8474 310.142 72.3089C310.221 71.476 310.221 70.6691 310.221 69.8882H310.142ZM268.927 83.6055V81.2109C268.927 80.6724 268.713 80.156 268.332 79.7752C267.951 79.3945 267.433 79.1806 266.894 79.1806C266.355 79.1806 265.838 79.3945 265.456 79.7752C265.075 80.156 264.861 80.6724 264.861 81.2109C264.861 82.7726 264.861 84.3604 264.861 85.9482C264.867 86.2102 264.926 86.4684 265.034 86.7076C265.141 86.9467 265.295 87.1622 265.487 87.3414C265.678 87.5207 265.904 87.66 266.15 87.7515C266.396 87.843 266.658 87.8848 266.92 87.8743C267.181 87.8813 267.441 87.8359 267.684 87.7409C267.928 87.646 268.149 87.5033 268.336 87.3213C268.524 87.1393 268.672 86.9217 268.774 86.6814C268.875 86.4411 268.928 86.1829 268.927 85.9221C268.954 85.1673 268.927 84.3864 268.927 83.6055ZM296.926 83.6055C296.926 84.3864 296.926 85.1673 296.926 85.9482C296.925 86.209 296.978 86.4672 297.079 86.7075C297.181 86.9478 297.329 87.1653 297.516 87.3473C297.704 87.5293 297.925 87.672 298.169 87.767C298.412 87.862 298.672 87.9073 298.933 87.9004C299.193 87.9108 299.453 87.8699 299.697 87.7801C299.942 87.6902 300.166 87.5531 300.357 87.3766C300.548 87.2001 300.703 86.9877 300.812 86.7516C300.921 86.5154 300.982 86.2601 300.992 86.0002C300.992 84.4211 300.992 82.8334 300.992 81.2369C300.992 80.6984 300.778 80.182 300.397 79.8013C300.015 79.4205 299.498 79.2066 298.959 79.2066C298.42 79.2066 297.902 79.4205 297.521 79.8013C297.14 80.182 296.926 80.6984 296.926 81.2369C296.899 82.0438 296.926 82.8247 296.926 83.6055Z" fill="white"/>
<path d="M278.078 97.1667C278.078 91.7787 278.078 86.4167 278.078 81.0287V77.4106C278.078 77.1243 278.078 76.864 278.078 76.5517H287.671V97.1667H278.078Z" fill="white"/>
<path d="M246.456 48.6484C246.668 48.1437 247.034 47.7186 247.502 47.4335C247.97 47.1485 248.516 47.018 249.063 47.0607H269.188L268.641 47.6854C266.633 49.7156 264.626 51.7199 262.593 53.7241C262.343 53.9592 262.022 54.1055 261.68 54.1406C256.701 54.1406 251.722 54.1406 246.717 54.1406H246.456V48.6484Z" fill="white"/>
<path d="M246.456 95.7351L247.864 97.1667H246.456V95.7351Z" fill="white"/>
<path d="M296.639 47.1387H316.738C317.099 47.1083 317.463 47.1592 317.802 47.2877C318.141 47.4163 318.447 47.6192 318.697 47.8814C318.948 48.1437 319.136 48.4587 319.248 48.8032C319.36 49.1476 319.393 49.5128 319.345 49.8718C319.345 51.3294 319.345 52.761 319.345 54.2707H304.277C303.839 54.2519 303.423 54.0763 303.104 53.7762C301.123 51.85 299.167 49.8718 297.212 47.9196L296.639 47.1387Z" fill="white"/>
<path d="M285.403 60.778C285.402 61.3003 285.243 61.8101 284.948 62.2412C284.652 62.6723 284.234 63.0047 283.747 63.1952C283.26 63.3857 282.727 63.4255 282.217 63.3094C281.707 63.1933 281.243 62.9267 280.887 62.5442C280.531 62.1618 280.298 61.6811 280.219 61.1648C280.14 60.6485 280.219 60.1204 280.444 59.6492C280.67 59.1779 281.032 58.7853 281.484 58.5225C281.936 58.2596 282.457 58.1385 282.979 58.1751C283.314 58.1702 283.647 58.2356 283.955 58.3671C284.264 58.4987 284.542 58.6934 284.77 58.9387C284.999 59.184 285.173 59.4745 285.282 59.7913C285.391 60.1081 285.432 60.4443 285.403 60.778Z" fill="white"/>
<defs>
<linearGradient id="paint0_linear_176_28" x1="0" y1="113.5" x2="377.87" y2="113.5" gradientUnits="userSpaceOnUse">
<stop stop-color="#1D70B7"/>
<stop offset="1" stop-color="#29235C"/>
</linearGradient>
<linearGradient id="paint1_linear_176_28" x1="188.987" y1="227" x2="188.987" y2="0" gradientUnits="userSpaceOnUse">
<stop stop-color="#1D70B7"/>
<stop offset="1" stop-color="#29235C"/>
</linearGradient>
<linearGradient id="paint2_linear_176_28" x1="0" y1="113.5" x2="378" y2="113.5" gradientUnits="userSpaceOnUse">
<stop stop-color="#1D70B7"/>
<stop offset="1" stop-color="#29235C"/>
</linearGradient>
</defs>
</svg>
