<svg width="378" height="227" viewBox="0 0 378 227" fill="none" xmlns="http://www.w3.org/2000/svg">
<path d="M30.24 83.5795H378V188.555C378 198.751 373.943 208.53 366.722 215.74C359.502 222.95 349.708 227 339.496 227H0V113.773C0 105.765 3.18599 98.0855 8.85709 92.4231C14.5282 86.7606 22.2199 83.5795 30.24 83.5795Z" fill="url(#paint0_linear_176_71)"/>
<path d="M34.6717 91.1019H371.848V183.245C371.848 192.855 368.025 202.07 361.219 208.865C354.414 215.66 345.184 219.478 335.56 219.478H6.64759V119.083C6.64759 111.662 9.60012 104.545 14.8557 99.2975C20.1112 94.05 27.2393 91.1019 34.6717 91.1019Z" fill="url(#paint1_linear_176_71)"/>
<path d="M100.22 149.693V135.773H102.075V149.693H100.22Z" fill="white"/>
<path d="M105.175 149.693V135.773H107.147L114.489 147.062H114.528V135.773H116.286V149.693H114.255L106.972 138.522H106.933V149.693H105.175Z" fill="white"/>
<path d="M129.108 139.848H127.35C127.136 137.86 125.808 137.002 123.894 137.002C122.332 137.002 120.77 137.567 120.77 139.38C120.77 141.096 122.996 141.349 125.242 141.856C127.467 142.363 129.693 143.143 129.693 145.872C129.693 148.836 126.784 150.025 124.246 150.025C121.122 150.025 118.486 148.504 118.486 145.112H120.243C120.243 147.451 122.196 148.465 124.304 148.465C125.983 148.465 127.838 147.939 127.838 145.931C127.838 144.02 125.613 143.689 123.387 143.201C121.161 142.714 118.915 142.071 118.915 139.517C118.915 136.69 121.434 135.442 123.972 135.442C126.823 135.442 128.99 136.787 129.108 139.848Z" fill="white"/>
<path d="M143.604 139.965H141.749C141.359 137.996 139.777 137.002 137.844 137.002C134.525 137.002 133.119 139.731 133.119 142.636C133.119 145.814 134.525 148.465 137.864 148.465C140.304 148.465 141.71 146.75 141.886 144.449H143.741C143.389 147.919 141.222 150.025 137.707 150.025C133.373 150.025 131.264 146.828 131.264 142.772C131.264 138.737 133.568 135.442 137.864 135.442C140.773 135.442 143.175 137.002 143.604 139.965Z" fill="white"/>
<path d="M147.894 142.188H151.76C153.497 142.188 154.981 141.739 154.981 139.712C154.981 138.347 154.239 137.333 152.502 137.333H147.894V142.188ZM146.039 149.693V135.773H152.599C155.216 135.773 156.836 137.197 156.836 139.419C156.836 141.096 156.094 142.48 154.415 142.948V142.987C156.036 143.299 156.368 144.488 156.504 145.853C156.622 147.218 156.543 148.738 157.324 149.693H155.255C154.728 149.128 155.02 147.627 154.747 146.262C154.552 144.898 154.22 143.747 152.424 143.747H147.894V149.693H146.039Z" fill="white"/>
<path d="M159.483 149.693V135.773H161.338V149.693H159.483Z" fill="white"/>
<path d="M164.458 149.693V135.773H170.57C173.343 135.773 174.846 137.314 174.846 139.887C174.846 142.461 173.343 144.02 170.57 144.001H166.313V149.693H164.458ZM166.313 137.333V142.441H169.945C172.034 142.461 172.991 141.544 172.991 139.887C172.991 138.23 172.034 137.333 169.945 137.333H166.313Z" fill="white"/>
<path d="M188.776 139.965H186.921C186.531 137.996 184.949 137.002 183.016 137.002C179.697 137.002 178.291 139.731 178.291 142.636C178.291 145.814 179.697 148.465 183.036 148.465C185.476 148.465 186.882 146.75 187.058 144.449H188.913C188.562 147.919 186.394 150.025 182.88 150.025C178.545 150.025 176.436 146.828 176.436 142.772C176.436 138.737 178.74 135.442 183.036 135.442C185.945 135.442 188.347 137.002 188.776 139.965Z" fill="white"/>
<path d="M191.289 149.693V135.773H193.144V149.693H191.289Z" fill="white"/>
<path d="M195.483 142.733C195.483 138.951 197.728 135.442 202.161 135.442C206.593 135.442 208.838 138.951 208.838 142.733C208.838 146.516 206.593 150.025 202.161 150.025C197.728 150.025 195.483 146.516 195.483 142.733ZM197.338 142.733C197.338 145.541 198.763 148.465 202.161 148.465C205.558 148.465 206.983 145.541 206.983 142.733C206.983 139.926 205.558 137.002 202.161 137.002C198.763 137.002 197.338 139.926 197.338 142.733ZM200.969 134.779L202.649 131.991H204.777L202.219 134.779H200.969Z" fill="white"/>
<path d="M211.079 149.693V135.773H213.051L220.393 147.062H220.432V135.773H222.189V149.693H220.159L212.876 138.522H212.837V149.693H211.079Z" fill="white"/>
<path d="M230.624 149.693V135.773H235.408C239.704 135.773 242.105 137.918 242.105 142.402C242.105 147.062 240.055 149.693 235.408 149.693H230.624ZM232.479 137.333V148.134H235.564C236.834 148.134 240.251 147.783 240.251 142.656C240.251 139.341 239.02 137.333 235.603 137.333H232.479Z" fill="white"/>
<path d="M244.372 149.693V135.773H253.999V137.333H246.227V141.759H253.471V143.318H246.227V148.134H254.057V149.693H244.372Z" fill="white"/>
<path d="M99.7319 174.603V160.683H111.272V164.251H104.028V165.986H110.608V169.301H104.028V171.036H111.486V174.603H99.7319Z" fill="white"/>
<path d="M112.601 169.924H116.897C116.897 170.275 116.955 170.587 117.053 170.841C117.366 171.679 118.303 171.854 119.103 171.854C119.806 171.854 120.88 171.621 120.88 170.587C120.88 169.866 120.275 169.671 117.873 168.989C115.667 168.365 113.148 167.76 113.148 164.953C113.148 161.736 115.901 160.352 118.771 160.352C121.798 160.352 124.473 161.502 124.59 164.894H120.529C120.607 164.368 120.372 164.017 120.021 163.783C119.67 163.53 119.181 163.432 118.752 163.432C118.166 163.432 117.209 163.588 117.209 164.368C117.287 165.362 119.279 165.577 121.251 166.123C123.223 166.669 125.176 167.585 125.176 170.139C125.176 173.765 121.837 174.935 118.732 174.935C117.151 174.935 112.64 174.369 112.601 169.924Z" fill="white"/>
<path d="M129.764 174.603V164.251H125.859V160.683H137.965V164.251H134.06V174.603H129.764Z" fill="white"/>
<path d="M152.199 160.683V169.223C152.199 173.083 150.109 174.935 145.853 174.935C141.596 174.935 139.487 173.083 139.487 169.223V160.683H143.783V168.267C143.783 169.69 143.783 171.465 145.872 171.465C147.903 171.465 147.903 169.69 147.903 168.267V160.683H152.199Z" fill="white"/>
<path d="M154.362 174.603V160.683H161.411C166.058 160.683 167.698 164.115 167.698 167.624C167.698 171.893 165.433 174.603 160.571 174.603H154.362ZM158.657 164.251V171.036H160.337C163.012 171.036 163.402 168.872 163.402 167.565C163.402 166.688 163.129 164.251 160.024 164.251H158.657Z" fill="white"/>
<path d="M169.559 174.603V160.683H173.855V174.603H169.559Z" fill="white"/>
<path d="M180.669 169.632H183.305L182.056 165.343H182.016L180.669 169.632ZM174.792 174.603L179.927 160.683H184.125L189.202 174.603H184.75L184.164 172.615H179.732L179.107 174.603H174.792Z" fill="white"/>
<path d="M190.172 174.603V160.683H194.565L198.627 168.131H198.666V160.683H202.727V174.603H198.548L194.272 167H194.233V174.603H190.172Z" fill="white"/>
<path d="M208.229 174.603V164.251H204.324V160.683H216.43V164.251H212.525V174.603H208.229Z" fill="white"/>
<path d="M218.011 174.603V160.683H229.55V164.251H222.306V165.986H228.887V169.301H222.306V171.036H229.765V174.603H218.011Z" fill="white"/>
<path d="M230.88 169.924H235.176C235.176 170.275 235.234 170.587 235.332 170.841C235.644 171.679 236.582 171.854 237.382 171.854C238.085 171.854 239.159 171.621 239.159 170.587C239.159 169.866 238.554 169.671 236.152 168.989C233.946 168.365 231.427 167.76 231.427 164.953C231.427 161.736 234.18 160.352 237.05 160.352C240.077 160.352 242.752 161.502 242.869 164.894H238.808C238.886 164.368 238.651 164.017 238.3 163.783C237.948 163.53 237.46 163.432 237.031 163.432C236.445 163.432 235.488 163.588 235.488 164.368C235.566 165.362 237.558 165.577 239.53 166.123C241.502 166.669 243.455 167.585 243.455 170.139C243.455 173.765 240.116 174.935 237.011 174.935C235.43 174.935 230.919 174.369 230.88 169.924Z" fill="white"/>
<path d="M99.7319 199.539V185.619H104.028V199.539H99.7319Z" fill="white"/>
<path d="M106.254 199.539V185.619H110.647L114.708 193.067H114.747V185.619H118.809V199.539H114.63L110.354 191.936H110.315V199.539H106.254Z" fill="white"/>
<path d="M121.05 199.539V185.619H128.099C132.746 185.619 134.386 189.051 134.386 192.56C134.386 196.829 132.121 199.539 127.259 199.539H121.05ZM125.346 189.187V195.972H127.025C129.7 195.972 130.09 193.808 130.09 192.501C130.09 191.624 129.817 189.187 126.712 189.187H125.346Z" fill="white"/>
<path d="M136.247 199.539V185.619H147.787V189.187H140.543V190.922H147.123V194.236H140.543V195.972H148.002V199.539H136.247Z" fill="white"/>
<path d="M149.995 199.539V185.619H157.181C160.969 185.619 162.296 188.388 162.296 190.376C162.296 193.749 160.031 195.328 156.829 195.328H154.291V199.539H149.995ZM154.291 189.187V192.014H155.951C157.063 192.014 158.235 191.936 158.235 190.532C158.235 189.265 157.259 189.187 156.204 189.187H154.291Z" fill="white"/>
<path d="M163.743 199.539V185.619H175.283V189.187H168.039V190.922H174.619V194.236H168.039V195.972H175.498V199.539H163.743Z" fill="white"/>
<path d="M177.511 199.539V185.619H181.904L185.965 193.067H186.004V185.619H190.066V199.539H185.887L181.611 191.936H181.572V199.539H177.511Z" fill="white"/>
<path d="M192.307 199.539V185.619H199.356C204.003 185.619 205.643 189.051 205.643 192.56C205.643 196.829 203.378 199.539 198.516 199.539H192.307ZM196.603 189.187V195.972H198.282C200.957 195.972 201.348 193.808 201.348 192.501C201.348 191.624 201.074 189.187 197.97 189.187H196.603Z" fill="white"/>
<path d="M207.504 199.539V185.619H211.8V199.539H207.504Z" fill="white"/>
<path d="M214.007 199.539V185.619H225.546V189.187H218.302V190.922H224.882V194.236H218.302V195.972H225.761V199.539H214.007Z" fill="white"/>
<path d="M227.774 199.539V185.619H232.167L236.229 193.067H236.268V185.619H240.329V199.539H236.151L231.874 191.936H231.835V199.539H227.774Z" fill="white"/>
<path d="M245.831 199.539V189.187H241.926V185.619H254.032V189.187H250.127V199.539H245.831Z" fill="white"/>
<path d="M255.613 199.539V185.619H267.153V189.187H259.909V190.922H266.489V194.236H259.909V195.972H267.367V199.539H255.613Z" fill="white"/>
<path d="M268.482 194.86H272.778C272.778 195.211 272.837 195.523 272.934 195.777C273.247 196.615 274.184 196.79 274.984 196.79C275.687 196.79 276.761 196.556 276.761 195.523C276.761 194.802 276.156 194.607 273.754 193.924C271.548 193.301 269.029 192.696 269.029 189.889C269.029 186.672 271.782 185.288 274.652 185.288C277.679 185.288 280.354 186.438 280.471 189.83H276.41C276.488 189.304 276.254 188.953 275.902 188.719C275.551 188.466 275.062 188.368 274.633 188.368C274.047 188.368 273.09 188.524 273.09 189.304C273.169 190.298 275.16 190.513 277.132 191.059C279.104 191.604 281.057 192.521 281.057 195.075C281.057 198.701 277.718 199.871 274.613 199.871C273.032 199.871 268.521 199.305 268.482 194.86Z" fill="white"/>
<path d="M30.0054 138.761H59.724V151.776C59.724 153.364 60.4279 154.066 62.0181 154.066H75.0526C75.0526 156.669 75.0526 159.272 75.0526 161.875C75.0603 162.074 75.0247 162.273 74.9482 162.457C74.8717 162.642 74.7561 162.807 74.6094 162.942L62.3048 175.15C61.3829 176.016 60.6774 177.086 60.2454 178.273C59.5937 180.2 58.8898 182.126 58.3163 184.078C58.0332 184.913 58.0034 185.813 58.2307 186.665C58.4579 187.517 58.9321 188.283 59.5937 188.867C60.2164 189.496 61.0081 189.931 61.8731 190.121C62.7381 190.31 63.6395 190.245 64.4686 189.935L69.3695 188.321C70.873 187.876 72.2314 187.04 73.3059 185.9C73.8273 185.353 74.3748 184.859 74.9743 184.286C74.9743 184.442 74.9743 184.494 74.9743 184.546C74.9743 189.284 74.9743 194.021 74.9743 198.732C74.9469 200.233 74.3253 201.661 73.2456 202.705C72.1659 203.749 70.7159 204.323 69.2131 204.303C56.3872 204.303 43.5786 204.303 30.7874 204.303C29.9376 204.277 29.1026 204.073 28.337 203.704C27.3016 203.244 26.4319 202.479 25.8447 201.511C25.2576 200.543 24.981 199.419 25.0523 198.29V144.305C25.0937 143.507 25.2949 142.724 25.6442 142.005C25.9934 141.285 26.4836 140.642 27.0857 140.115C27.9468 139.454 28.9439 138.992 30.0054 138.761ZM48.2537 157.945H35.2192C34.8814 157.906 34.5403 157.906 34.2025 157.945C33.8145 158.069 33.4753 158.312 33.2322 158.639C32.9892 158.966 32.8545 159.36 32.8469 159.767C32.8595 160.162 32.9939 160.545 33.2317 160.861C33.4696 161.178 33.7995 161.414 34.1764 161.537C34.5133 161.589 34.8562 161.589 35.1931 161.537H61.2621C61.5902 161.589 61.9246 161.589 62.2527 161.537C62.6248 161.435 62.9533 161.214 63.1886 160.909C63.4238 160.604 63.5529 160.23 63.5561 159.845C63.5737 159.566 63.5293 159.286 63.4262 159.026C63.3231 158.766 63.1637 158.532 62.9595 158.341C62.7554 158.149 62.5114 158.005 62.245 157.919C61.9786 157.832 61.6964 157.806 61.4185 157.841L48.2537 157.945ZM44.3172 169.45H53.4674C53.779 169.489 54.0944 169.489 54.4059 169.45C54.8029 169.349 55.1536 169.116 55.4001 168.79C55.6466 168.463 55.7741 168.062 55.7615 167.654C55.7951 167.234 55.6729 166.816 55.4181 166.48C55.1634 166.144 54.7939 165.913 54.3799 165.832C54.0683 165.792 53.7529 165.792 53.4414 165.832H35.1931C34.8553 165.793 34.5142 165.793 34.1764 165.832C33.9247 165.919 33.6943 166.059 33.5001 166.241C33.3059 166.423 33.1522 166.644 33.0489 166.89C32.9457 167.135 32.8953 167.399 32.9009 167.666C32.9065 167.932 32.968 168.194 33.0815 168.434C33.2834 168.764 33.5732 169.031 33.9185 169.206C34.2638 169.381 34.651 169.456 35.0367 169.424L44.3172 169.45ZM44.3172 177.258H53.4674C53.8043 177.311 54.1473 177.311 54.4841 177.258C54.8787 177.157 55.2263 176.923 55.4684 176.596C55.7106 176.269 55.8325 175.869 55.8137 175.462C55.8375 175.055 55.7175 174.652 55.4746 174.324C55.2317 173.996 54.8812 173.763 54.4841 173.666C54.1463 173.628 53.8053 173.628 53.4674 173.666C47.4194 173.666 41.3454 173.666 35.2192 173.666C34.8649 173.614 34.5047 173.614 34.1503 173.666C33.8475 173.757 33.5725 173.922 33.3508 174.147C33.1291 174.372 32.9678 174.649 32.882 174.953C32.7962 175.257 32.7887 175.577 32.86 175.885C32.9313 176.192 33.0793 176.477 33.2901 176.712C33.5129 176.947 33.7852 177.129 34.0872 177.246C34.3893 177.363 34.7135 177.412 35.0367 177.388L44.3172 177.258ZM44.3172 181.085H34.8281C34.5125 181.079 34.2003 181.15 33.9181 181.291C33.6359 181.433 33.3922 181.64 33.2077 181.896C33.0233 182.152 32.9036 182.448 32.8589 182.76C32.8143 183.072 32.8459 183.39 32.9512 183.688C33.1256 184.092 33.424 184.431 33.8034 184.655C34.1828 184.88 34.6237 184.978 35.0628 184.937H53.8324C54.0887 184.948 54.3445 184.906 54.5836 184.813C54.8226 184.72 55.0397 184.578 55.2211 184.397C55.4025 184.216 55.5442 183.999 55.6373 183.761C55.7303 183.522 55.7726 183.267 55.7615 183.011C55.7631 182.743 55.7079 182.477 55.5995 182.232C55.4911 181.987 55.332 181.767 55.1325 181.588C54.9331 181.408 54.6979 181.273 54.4424 181.191C54.1869 181.109 53.9168 181.081 53.6499 181.111L44.3172 181.085ZM50.1567 192.589C49.8863 192.558 49.6123 192.584 49.3527 192.666C49.093 192.747 48.8537 192.883 48.6503 193.064C48.447 193.244 48.2842 193.466 48.1728 193.714C48.0613 193.962 48.0037 194.231 48.0037 194.503C48.0037 194.774 48.0613 195.043 48.1728 195.291C48.2842 195.539 48.447 195.761 48.6503 195.941C48.8537 196.122 49.093 196.258 49.3527 196.34C49.6123 196.421 49.8863 196.447 50.1567 196.416H61.5228C61.856 196.421 62.1848 196.339 62.4772 196.18C62.7696 196.02 63.0156 195.788 63.1912 195.505C63.3585 195.221 63.4467 194.897 63.4467 194.568C63.4467 194.238 63.3585 193.915 63.1912 193.631C63.0213 193.293 62.7545 193.014 62.4248 192.828C62.0951 192.643 61.7175 192.56 61.3403 192.589H50.1567Z" fill="white"/>
<path d="M71.429 182.204L83.9421 169.71L78.7283 164.504L66.1109 176.998L71.429 182.204ZM63.6083 180.174C63.6083 180.408 63.4258 180.694 63.3476 180.954C62.9044 182.282 62.4352 183.557 62.0441 184.885C61.9659 185.279 62.0405 185.689 62.2527 186.03C62.4612 186.238 62.9826 186.238 63.3476 186.238C63.6827 186.182 64.0077 186.077 64.3121 185.926L68.0921 184.651L63.6083 180.174Z" fill="white"/>
<path d="M64.7032 138.761C66.4942 139.271 68.0861 140.315 69.2652 141.755C70.699 143.264 72.185 144.696 73.6188 146.18C74.5964 147.292 75.1096 148.736 75.0526 150.214H63.4258V138.761H64.7032Z" fill="white"/>
<path d="M90.72 162.292C90.0161 164.348 88.1131 165.441 86.8618 166.951L81.3612 161.381C82.8211 160.209 83.7596 158.387 85.7148 157.763C86.2039 157.599 86.7212 157.538 87.235 157.582C87.7488 157.626 88.2482 157.774 88.7024 158.018C89.1565 158.262 89.556 158.596 89.8761 159C90.1961 159.403 90.4301 159.868 90.5636 160.365L90.72 160.73V162.292Z" fill="white"/>
<path d="M71.429 182.204L66.2152 176.998L78.7283 164.504L83.9421 169.71L71.429 182.204Z" fill="white"/>
<path d="M63.6604 180.148L68.1443 184.625L64.3643 185.9C64.0598 186.051 63.7348 186.156 63.3997 186.212C63.0348 186.212 62.5134 186.212 62.3048 186.004C62.0926 185.662 62.0181 185.253 62.0963 184.859C62.4873 183.531 62.9566 182.256 63.3997 180.928C63.4779 180.668 63.5822 180.382 63.6604 180.148Z" fill="white"/>
<path d="M287.619 128.167C323.066 128.167 351.801 99.4762 351.801 64.0837C351.801 28.6913 323.066 0 287.619 0C252.172 0 223.437 28.6913 223.437 64.0837C223.437 99.4762 252.172 128.167 287.619 128.167Z" fill="url(#paint2_linear_176_71)"/>
<path d="M289.183 21.6042C289.843 21.7256 290.495 21.8818 291.138 22.0727C294.11 22.8711 296.709 24.682 298.485 27.1918C300.261 29.7016 301.101 32.7524 300.862 35.8161C300.68 38.3068 299.798 40.6959 298.318 42.7088C296.838 44.7217 294.819 46.2769 292.493 47.1956C290.167 48.1143 287.629 48.3593 285.17 47.9025C282.711 47.4456 280.431 46.3055 278.592 44.613C276.752 42.9205 275.429 40.7444 274.772 38.3345C274.116 35.9246 274.154 33.3788 274.882 30.9895C275.61 28.6002 276.997 26.4642 278.886 24.8271C280.775 23.1899 283.088 22.118 285.559 21.7343H285.898L289.183 21.6042Z" fill="white"/>
<path d="M260.299 85.4796C261.516 85.5804 262.74 85.3733 263.856 84.8774C264.972 84.3816 265.945 83.6129 266.686 82.6425C267.506 81.6482 267.981 80.4153 268.041 79.1285C268.196 76.5279 268.196 73.9204 268.041 71.3198C267.861 69.663 267.076 68.1307 265.835 67.0164C264.594 65.9021 262.984 65.2842 261.315 65.281H260.403C260.403 63.3289 260.403 61.4808 260.403 59.6067C260.467 59.2534 260.612 58.9198 260.827 58.6321C261.042 58.3445 261.321 58.1107 261.642 57.9491C261.963 57.7876 262.317 57.7028 262.677 57.7013C263.036 57.6999 263.391 57.7819 263.714 57.9408L284.673 65.7756C285.116 65.9318 285.351 66.114 285.351 66.6346C285.351 78.0874 285.351 89.5402 285.351 100.993C285.362 101.114 285.362 101.236 285.351 101.357L284.777 101.227L262.358 92.8199C261.752 92.6669 261.221 92.3015 260.862 91.7902C260.503 91.279 260.34 90.6559 260.403 90.0347L260.299 85.4796Z" fill="white"/>
<path d="M289.965 101.357V100.524C289.965 89.2799 289.965 78.044 289.965 66.8168C289.943 66.6886 289.946 66.5572 289.974 66.4302C290.003 66.3032 290.056 66.183 290.131 66.0766C290.206 65.9702 290.302 65.8797 290.412 65.8102C290.522 65.7406 290.645 65.6935 290.773 65.6715L311.368 57.8627C311.923 57.5569 312.576 57.4783 313.189 57.6433C313.802 57.8084 314.326 58.2043 314.652 58.7477C314.8 58.9835 314.89 59.2513 314.913 59.5286C314.913 61.3767 314.913 63.1987 314.913 65.0208C314.117 65.0813 313.325 65.1856 312.541 65.3331C311.132 65.6452 309.862 66.4049 308.922 67.4983C307.982 68.5918 307.422 69.96 307.327 71.3979C307.099 73.9958 307.099 76.6087 307.327 79.2066C307.508 80.8793 308.304 82.4255 309.561 83.5459C310.818 84.6663 312.446 85.2811 314.131 85.2714H314.965C314.965 87.0934 314.965 88.8374 314.965 90.4772C314.965 91.5444 314.053 92.091 313.088 92.4555L290.825 100.785L289.965 101.357Z" fill="white"/>
<path d="M269.423 55.0256C271.798 52.8612 274.556 51.1575 277.556 50.0019C277.824 49.9555 278.1 50.0014 278.338 50.1321C281.119 51.8489 284.324 52.7582 287.593 52.7582C290.862 52.7582 294.067 51.8489 296.847 50.1321C297.138 49.9876 297.467 49.9419 297.786 50.0019C300.742 51.1716 303.462 52.8646 305.815 54.9995L305.137 55.3119C299.532 57.4202 293.928 59.5286 288.297 61.5849C287.874 61.7277 287.416 61.7277 286.993 61.5849L270.153 55.3119C269.918 55.2859 269.71 55.1557 269.423 55.0256Z" fill="white"/>
<path d="M311.811 75.4845C311.811 74.4433 311.811 73.4021 311.811 72.387C311.796 72.0754 311.847 71.7642 311.959 71.4732C312.072 71.1823 312.244 70.918 312.465 70.6975C312.686 70.4769 312.951 70.3049 313.242 70.1924C313.533 70.0799 313.845 70.0295 314.157 70.0444C315.116 69.9908 316.078 70.0432 317.025 70.2005C318.327 70.5109 319.469 71.2915 320.229 72.3921C320.99 73.4926 321.315 74.8352 321.144 76.1612C320.923 77.4299 320.26 78.5798 319.273 79.4084C318.285 80.237 317.037 80.6909 315.747 80.6903H314.131C313.825 80.6938 313.522 80.6362 313.239 80.521C312.956 80.4059 312.699 80.2354 312.483 80.0195C312.267 79.8037 312.096 79.547 311.98 79.2643C311.865 78.9817 311.807 78.6789 311.811 78.3737C311.785 77.4366 311.811 76.3955 311.811 75.4845Z" fill="white"/>
<path d="M263.427 78.4518C263.438 78.7646 263.384 79.0764 263.268 79.3674C263.153 79.6584 262.978 79.9223 262.755 80.1424C262.532 80.3626 262.266 80.5341 261.973 80.6464C261.681 80.7586 261.368 80.809 261.055 80.7944C260.124 80.8521 259.189 80.8172 258.265 80.6903C256.948 80.3906 255.79 79.6107 255.019 78.5033C254.247 77.396 253.918 76.0409 254.094 74.7036C254.264 73.3922 254.905 72.1869 255.897 71.311C256.89 70.4352 258.166 69.9482 259.491 69.9403H261.133C261.438 69.9437 261.739 70.007 262.019 70.1265C262.299 70.2461 262.553 70.4196 262.766 70.6371C262.979 70.8547 263.147 71.112 263.26 71.3944C263.374 71.6767 263.43 71.9787 263.427 72.2829V78.4518Z" fill="white"/>
<defs>
<linearGradient id="paint0_linear_176_71" x1="0" y1="113.5" x2="377.87" y2="113.5" gradientUnits="userSpaceOnUse">
<stop stop-color="#F29100"/>
<stop offset="1" stop-color="#BD1622"/>
</linearGradient>
<linearGradient id="paint1_linear_176_71" x1="188.987" y1="227" x2="188.987" y2="0" gradientUnits="userSpaceOnUse">
<stop stop-color="#F29100"/>
<stop offset="1" stop-color="#BD1622"/>
</linearGradient>
<linearGradient id="paint2_linear_176_71" x1="0" y1="113.5" x2="378" y2="113.5" gradientUnits="userSpaceOnUse">
<stop stop-color="#F29100"/>
<stop offset="1" stop-color="#BD1622"/>
</linearGradient>
</defs>
</svg>
