<svg width="378" height="227" viewBox="0 0 378 227" fill="none" xmlns="http://www.w3.org/2000/svg">
<path d="M30.24 83.5795H378V188.555C378 198.751 373.943 208.53 366.722 215.74C359.502 222.95 349.708 227 339.496 227H0V113.773C0 105.765 3.18599 98.0855 8.85709 92.4231C14.5282 86.7606 22.2199 83.5795 30.24 83.5795Z" fill="url(#paint0_linear_176_70)"/>
<path d="M34.6717 91.1019H371.848V183.245C371.848 192.855 368.025 202.07 361.219 208.865C354.414 215.66 345.184 219.478 335.56 219.478H6.64759V119.083C6.64759 111.662 9.60012 104.545 14.8557 99.2975C20.1112 94.05 27.2393 91.1019 34.6717 91.1019Z" fill="url(#paint1_linear_176_70)"/>
<path d="M99.2414 168.148V153.671H101.171V168.148H99.2414Z" fill="white"/>
<path d="M104.395 168.148V153.671H106.446L114.082 165.411H114.123V153.671H115.95V168.148H113.838L106.264 156.53H106.223V168.148H104.395Z" fill="white"/>
<path d="M129.286 157.908H127.458C127.235 155.84 125.854 154.948 123.864 154.948C122.239 154.948 120.615 155.536 120.615 157.422C120.615 159.206 122.93 159.47 125.265 159.997C127.58 160.524 129.895 161.335 129.895 164.174C129.895 167.256 126.869 168.493 124.229 168.493C120.98 168.493 118.239 166.911 118.239 163.383H120.066C120.066 165.816 122.097 166.871 124.29 166.871C126.037 166.871 127.966 166.323 127.966 164.235C127.966 162.248 125.651 161.903 123.336 161.396C121.021 160.889 118.685 160.22 118.685 157.564C118.685 154.624 121.305 153.326 123.945 153.326C126.91 153.326 129.164 154.725 129.286 157.908Z" fill="white"/>
<path d="M144.363 158.03H142.434C142.028 155.982 140.383 154.948 138.372 154.948C134.92 154.948 133.458 157.787 133.458 160.808C133.458 164.113 134.92 166.871 138.393 166.871C140.931 166.871 142.393 165.086 142.576 162.694H144.505C144.14 166.303 141.886 168.493 138.23 168.493C133.722 168.493 131.529 165.167 131.529 160.95C131.529 156.753 133.925 153.326 138.393 153.326C141.419 153.326 143.916 154.948 144.363 158.03Z" fill="white"/>
<path d="M148.824 160.342H152.845C154.653 160.342 156.196 159.875 156.196 157.766C156.196 156.347 155.424 155.293 153.617 155.293H148.824V160.342ZM146.895 168.148V153.671H153.719C156.44 153.671 158.125 155.151 158.125 157.462C158.125 159.206 157.354 160.646 155.607 161.132V161.173C157.293 161.497 157.638 162.734 157.78 164.154C157.902 165.573 157.821 167.155 158.633 168.148H156.48C155.932 167.56 156.237 165.999 155.952 164.579C155.749 163.16 155.404 161.964 153.536 161.964H148.824V168.148H146.895Z" fill="white"/>
<path d="M160.878 168.148V153.671H162.808V168.148H160.878Z" fill="white"/>
<path d="M166.053 168.148V153.671H172.409C175.293 153.671 176.856 155.272 176.856 157.949C176.856 160.625 175.293 162.248 172.409 162.227H167.982V168.148H166.053ZM167.982 155.293V160.605H171.759C173.932 160.625 174.927 159.672 174.927 157.949C174.927 156.225 173.932 155.293 171.759 155.293H167.982Z" fill="white"/>
<path d="M191.345 158.03H189.415C189.009 155.982 187.364 154.948 185.354 154.948C181.902 154.948 180.439 157.787 180.439 160.808C180.439 164.113 181.902 166.871 185.374 166.871C187.913 166.871 189.375 165.086 189.558 162.694H191.487C191.121 166.303 188.867 168.493 185.212 168.493C180.703 168.493 178.51 165.167 178.51 160.95C178.51 156.753 180.907 153.326 185.374 153.326C188.4 153.326 190.898 154.948 191.345 158.03Z" fill="white"/>
<path d="M193.958 168.148V153.671H195.887V168.148H193.958Z" fill="white"/>
<path d="M198.32 160.909C198.32 156.976 200.655 153.326 205.265 153.326C209.875 153.326 212.21 156.976 212.21 160.909C212.21 164.843 209.875 168.493 205.265 168.493C200.655 168.493 198.32 164.843 198.32 160.909ZM200.249 160.909C200.249 163.829 201.731 166.871 205.265 166.871C208.799 166.871 210.281 163.829 210.281 160.909C210.281 157.99 208.799 154.948 205.265 154.948C201.731 154.948 200.249 157.99 200.249 160.909ZM204.026 152.636L205.773 149.737H207.986L205.326 152.636H204.026Z" fill="white"/>
<path d="M214.541 168.148V153.671H216.592L224.228 165.411H224.268V153.671H226.096V168.148H223.984L216.409 156.53H216.369V168.148H214.541Z" fill="white"/>
<path d="M234.869 168.148V153.671H239.844C244.312 153.671 246.81 155.901 246.81 160.565C246.81 165.411 244.678 168.148 239.844 168.148H234.869ZM236.798 155.293V166.526H240.007C241.327 166.526 244.881 166.161 244.881 160.828C244.881 157.381 243.601 155.293 240.047 155.293H236.798Z" fill="white"/>
<path d="M249.168 168.148V153.671H259.179V155.293H251.097V159.896H258.631V161.518H251.097V166.526H259.24V168.148H249.168Z" fill="white"/>
<path d="M104.496 187.357H107.685L106.173 182.169H106.126L104.496 187.357ZM97.3872 193.37L103.599 176.533H108.677L114.818 193.37H109.433L108.724 190.965H103.363L102.607 193.37H97.3872Z" fill="white"/>
<path d="M131.272 176.533V186.862C131.272 191.531 128.745 193.771 123.596 193.771C118.447 193.771 115.897 191.531 115.897 186.862V176.533H121.093V185.706C121.093 187.428 121.093 189.574 123.62 189.574C126.076 189.574 126.076 187.428 126.076 185.706V176.533H131.272Z" fill="white"/>
<path d="M132.826 187.711H138.022C138.022 188.135 138.093 188.512 138.211 188.819C138.589 189.833 139.723 190.045 140.691 190.045C141.541 190.045 142.84 189.762 142.84 188.512C142.84 187.64 142.108 187.404 139.203 186.579C136.534 185.824 133.487 185.093 133.487 181.697C133.487 177.806 136.818 176.132 140.289 176.132C143.95 176.132 147.186 177.523 147.328 181.626H142.415C142.51 180.99 142.226 180.565 141.801 180.282C141.376 179.976 140.785 179.858 140.266 179.858C139.557 179.858 138.4 180.046 138.4 180.99C138.494 182.192 140.904 182.452 143.289 183.112C145.674 183.772 148.036 184.881 148.036 187.97C148.036 192.356 143.998 193.771 140.242 193.771C138.329 193.771 132.873 193.087 132.826 187.711Z" fill="white"/>
<path d="M149.642 193.37V176.533H158.334C162.916 176.533 164.522 179.881 164.522 182.287C164.522 186.366 161.782 188.277 157.909 188.277H154.838V193.37H149.642ZM154.838 180.848V184.268H156.846C158.192 184.268 159.609 184.173 159.609 182.475C159.609 180.942 158.428 180.848 157.153 180.848H154.838Z" fill="white"/>
<path d="M166.272 193.37V176.533H171.468V193.37H166.272Z" fill="white"/>
<path d="M189.82 182.805H184.765C184.671 182.192 184.199 180.329 182.049 180.329C179.617 180.329 178.837 182.688 178.837 184.951C178.837 187.215 179.617 189.574 182.049 189.574C183.797 189.574 184.482 188.347 184.789 186.767H189.891C189.891 190.163 187.127 193.771 182.191 193.771C176.735 193.771 173.641 189.927 173.641 184.951C173.641 179.645 176.995 176.132 182.191 176.132C186.82 176.155 189.371 178.584 189.82 182.805Z" fill="white"/>
<path d="M192.059 193.37V176.533H197.255V193.37H192.059Z" fill="white"/>
<path d="M205.498 187.357H208.686L207.175 182.169H207.127L205.498 187.357ZM198.389 193.37L204.6 176.533H209.678L215.819 193.37H210.434L209.725 190.965H204.364L203.608 193.37H198.389Z" fill="white"/>
<path d="M216.969 193.37V176.533H225.495C231.116 176.533 233.1 180.683 233.1 184.928C233.1 190.092 230.36 193.37 224.479 193.37H216.969ZM222.165 180.848V189.055H224.196C227.432 189.055 227.904 186.437 227.904 184.857C227.904 183.796 227.573 180.848 223.818 180.848H222.165Z" fill="white"/>
<path d="M234.855 184.951C234.855 179.81 238.28 176.132 243.405 176.132C248.531 176.132 251.955 179.81 251.955 184.951C251.955 190.092 248.531 193.771 243.405 193.771C238.28 193.771 234.855 190.092 234.855 184.951ZM240.052 184.951C240.052 188.701 242.083 189.574 243.405 189.574C244.728 189.574 246.759 188.701 246.759 184.951C246.759 181.202 244.728 180.329 243.405 180.329C242.083 180.329 240.052 181.202 240.052 184.951Z" fill="white"/>
<path d="M254.149 193.37V176.533H264.046C266.998 176.533 269.549 178.16 269.549 181.343C269.549 183.088 268.746 184.928 267.021 185.565C268.439 186.107 269.312 187.663 269.501 189.762C269.572 190.588 269.596 192.592 270.068 193.37H264.872C264.612 192.521 264.518 191.649 264.447 190.776C264.305 189.173 264.164 187.498 262.109 187.498H259.345V193.37H254.149ZM259.345 180.542V183.89H262.062C263.03 183.89 264.353 183.725 264.353 182.216C264.353 181.155 263.762 180.542 261.778 180.542H259.345Z" fill="white"/>
<path d="M271.656 193.37V176.533H285.614V180.848H276.852V182.947H284.811V186.956H276.852V189.055H285.874V193.37H271.656Z" fill="white"/>
<path d="M287.223 187.711H292.419C292.419 188.135 292.49 188.512 292.608 188.819C292.986 189.833 294.119 190.045 295.088 190.045C295.938 190.045 297.237 189.762 297.237 188.512C297.237 187.64 296.505 187.404 293.6 186.579C290.931 185.824 287.884 185.093 287.884 181.697C287.884 177.806 291.214 176.132 294.686 176.132C298.347 176.132 301.583 177.523 301.724 181.626H296.812C296.906 180.99 296.623 180.565 296.198 180.282C295.772 179.976 295.182 179.858 294.662 179.858C293.954 179.858 292.797 180.046 292.797 180.99C292.891 182.192 295.3 182.452 297.686 183.112C300.071 183.772 302.433 184.881 302.433 187.97C302.433 192.356 298.394 193.771 294.639 193.771C292.726 193.771 287.27 193.087 287.223 187.711Z" fill="white"/>
<path d="M26.7468 138.761H56.4654V151.776C56.4654 153.364 57.1953 154.066 58.7855 154.066H71.82V161.875C71.8329 162.073 71.8022 162.271 71.7301 162.455C71.658 162.639 71.5463 162.806 71.4029 162.942L59.0723 175.15C58.167 176.025 57.4718 177.092 57.0389 178.273C56.3872 180.2 55.6833 182.126 55.1098 184.078C54.8267 184.913 54.7969 185.813 55.0242 186.665C55.2514 187.517 55.7256 188.283 56.3872 188.867C57.004 189.497 57.7912 189.933 58.6524 190.122C59.5135 190.312 60.4114 190.247 61.236 189.935L66.137 188.321C67.6431 187.882 69.0029 187.045 70.0734 185.9C70.5948 185.353 71.1683 184.859 71.7418 184.286C71.7519 184.373 71.7519 184.46 71.7418 184.546C71.7418 189.284 71.7418 194.021 71.7418 198.732C71.7076 200.235 71.0803 201.664 69.9964 202.707C68.9125 203.75 67.4598 204.324 65.9545 204.303C53.1633 204.303 40.3548 204.303 27.5288 204.303C26.6795 204.273 25.8452 204.07 25.0783 203.704C24.0515 203.22 23.1968 202.435 22.6285 201.454C22.0603 200.473 21.8054 199.342 21.8979 198.212V144.305C21.9272 143.504 22.1231 142.718 22.4731 141.997C22.8232 141.275 23.3198 140.634 23.9313 140.115C24.7601 139.465 25.7209 139.003 26.7468 138.761ZM44.995 157.945H31.9606C31.6228 157.905 31.2816 157.905 30.9439 157.945C30.5538 158.066 30.2123 158.308 29.9687 158.635C29.7251 158.963 29.5919 159.359 29.5883 159.767C29.5913 160.161 29.719 160.545 29.953 160.862C30.187 161.18 30.5155 161.416 30.8917 161.537C31.2287 161.587 31.5714 161.587 31.9084 161.537H57.9774C58.3143 161.589 58.6572 161.589 58.9941 161.537C59.3661 161.435 59.6947 161.214 59.93 160.909C60.1652 160.604 60.2943 160.23 60.2975 159.845C60.3151 159.566 60.2707 159.286 60.1676 159.026C60.0644 158.766 59.9051 158.532 59.7009 158.341C59.4967 158.149 59.2527 158.005 58.9864 157.919C58.72 157.832 58.4378 157.806 58.1599 157.841L44.995 157.945ZM41.0586 169.45H50.2349C50.5465 169.488 50.8617 169.488 51.1734 169.45C51.568 169.345 51.916 169.111 52.1618 168.785C52.4076 168.46 52.5368 168.061 52.529 167.654C52.5515 167.236 52.4251 166.824 52.1721 166.49C51.9192 166.157 51.5561 165.923 51.1473 165.832C50.827 165.792 50.503 165.792 50.1828 165.832H31.9345C31.5968 165.792 31.2555 165.792 30.9178 165.832C30.6636 165.916 30.4303 166.053 30.2338 166.235C30.0372 166.417 29.8818 166.638 29.7781 166.885C29.6744 167.131 29.6248 167.397 29.6325 167.664C29.6402 167.932 29.7051 168.194 29.8229 168.434C30.0205 168.762 30.3057 169.028 30.6465 169.203C30.9873 169.378 31.3701 169.454 31.752 169.424L41.0586 169.45ZM41.0586 177.258H50.2088C50.5458 177.309 50.8885 177.309 51.2255 177.258C51.6129 177.143 51.9527 176.906 52.1942 176.582C52.4358 176.259 52.5663 175.866 52.5663 175.462C52.5663 175.059 52.4358 174.666 52.1942 174.342C51.9527 174.019 51.6129 173.782 51.2255 173.666C50.8965 173.627 50.5639 173.627 50.2349 173.666C44.1608 173.666 38.1128 173.666 31.9866 173.666C31.6323 173.614 31.2721 173.614 30.9178 173.666C30.6171 173.76 30.3448 173.928 30.126 174.154C29.9073 174.38 29.7491 174.658 29.666 174.961C29.5829 175.264 29.5776 175.584 29.6505 175.89C29.7235 176.196 29.8724 176.478 30.0836 176.712C30.3025 176.944 30.5703 177.126 30.8678 177.243C31.1653 177.36 31.4851 177.41 31.8041 177.388L41.0586 177.258ZM41.0586 181.085H31.5956C31.2779 181.073 30.9622 181.14 30.6767 181.279C30.3911 181.419 30.1445 181.626 29.9587 181.884C29.773 182.142 29.6538 182.441 29.6119 182.756C29.5701 183.07 29.6067 183.39 29.7186 183.688C29.8897 184.094 30.1874 184.436 30.5676 184.661C30.9479 184.886 31.3906 184.983 31.8302 184.937H50.5738C50.8312 184.948 51.0881 184.906 51.3285 184.813C51.5689 184.72 51.7876 184.579 51.9711 184.399C52.1545 184.218 52.2987 184.001 52.3946 183.763C52.4906 183.524 52.5364 183.268 52.529 183.011C52.5306 182.743 52.4754 182.477 52.367 182.232C52.2586 181.987 52.0994 181.767 51.9 181.588C51.7006 181.408 51.4654 181.273 51.2098 181.191C50.9543 181.109 50.6842 181.081 50.4174 181.111L41.0586 181.085ZM46.9241 192.589C46.6538 192.558 46.3797 192.584 46.1201 192.666C45.8605 192.747 45.6211 192.883 45.4178 193.064C45.2144 193.244 45.0517 193.466 44.9402 193.714C44.8288 193.962 44.7712 194.231 44.7712 194.503C44.7712 194.774 44.8288 195.043 44.9402 195.291C45.0517 195.539 45.2144 195.761 45.4178 195.941C45.6211 196.122 45.8605 196.258 46.1201 196.34C46.3797 196.421 46.6538 196.447 46.9241 196.416H58.3163C58.5867 196.447 58.8607 196.421 59.1203 196.34C59.3799 196.258 59.6193 196.122 59.8226 195.941C60.026 195.761 60.1887 195.539 60.3002 195.291C60.4116 195.043 60.4693 194.774 60.4693 194.503C60.4693 194.231 60.4116 193.962 60.3002 193.714C60.1887 193.466 60.026 193.244 59.8226 193.064C59.6193 192.883 59.3799 192.747 59.1203 192.666C58.8607 192.584 58.5867 192.558 58.3163 192.589H46.9241Z" fill="white"/>
<path d="M68.1703 182.204L80.6835 169.71L75.4697 164.504L62.8783 176.998L68.1703 182.204ZM60.3497 180.174L60.0629 180.954C59.6458 182.282 59.1505 183.557 58.7855 184.885C58.7346 185.079 58.7269 185.283 58.7629 185.481C58.7989 185.678 58.8778 185.866 58.9941 186.03C59.1766 186.238 59.6979 186.238 60.0629 186.238C60.4064 186.182 60.7401 186.077 61.0535 185.926L64.8335 184.651L60.3497 180.174Z" fill="white"/>
<path d="M61.4706 138.761C63.2572 139.265 64.8425 140.311 66.0066 141.755C67.4404 143.264 68.9524 144.696 70.3601 146.18C71.3473 147.286 71.8619 148.734 71.7939 150.214H60.1932V138.761H61.4706Z" fill="white"/>
<path d="M87.4875 162.292C86.7575 164.348 84.8806 165.441 83.6292 166.951L78.2069 161.381C79.6407 160.209 80.5792 158.387 82.5604 157.763C83.0495 157.599 83.5669 157.538 84.0807 157.582C84.5945 157.626 85.0938 157.774 85.548 158.018C86.0022 158.262 86.4016 158.596 86.7217 159C87.0418 159.403 87.2758 159.868 87.4092 160.365C87.4502 160.491 87.5026 160.613 87.5657 160.73L87.4875 162.292Z" fill="white"/>
<path d="M68.1703 182.204L62.9566 176.998L75.4697 164.504L80.6835 169.71L68.1703 182.204Z" fill="white"/>
<path d="M60.4279 180.148L64.9117 184.625L61.1317 185.9C60.8183 186.051 60.4846 186.156 60.1411 186.212C59.7761 186.212 59.2548 186.212 59.0723 186.004C58.956 185.84 58.8771 185.652 58.8411 185.455C58.8051 185.257 58.8128 185.053 58.8637 184.859C59.2287 183.531 59.724 182.256 60.1411 180.928L60.4279 180.148Z" fill="white"/>
<path d="M288.14 128.167C323.587 128.167 352.322 99.4762 352.322 64.0837C352.322 28.6913 323.587 0 288.14 0C252.694 0 223.958 28.6913 223.958 64.0837C223.958 99.4762 252.694 128.167 288.14 128.167Z" fill="url(#paint2_linear_176_70)"/>
<path d="M326.905 90.8677C326.657 91.471 326.215 91.9748 325.648 92.2999C325.082 92.625 324.424 92.753 323.777 92.6637C317.52 92.6637 311.263 92.6637 305.007 92.6637C304.638 92.6865 304.269 92.6308 303.923 92.5002C303.577 92.3697 303.263 92.1672 303.002 91.9063C302.741 91.6454 302.538 91.332 302.407 90.9869C302.277 90.6418 302.221 90.2729 302.244 89.9046C302.244 88.447 302.244 86.9633 302.244 85.5057C302.209 85.2864 302.25 85.062 302.358 84.8684C302.467 84.6748 302.638 84.5234 302.843 84.4385C306.473 82.4862 309.602 79.7224 311.985 76.363C314.368 73.0037 315.941 69.1396 316.582 65.0728C316.786 63.7285 316.899 62.3719 316.92 61.0123C316.942 60.6845 316.896 60.3559 316.788 60.046C316.679 59.736 316.509 59.4511 316.287 59.2082C316.066 58.9654 315.798 58.7694 315.499 58.6322C315.2 58.4949 314.877 58.4192 314.548 58.4094C313.857 58.4094 313.194 58.6836 312.705 59.1717C312.216 59.6599 311.941 60.3219 311.941 61.0123C311.889 65.978 310.154 70.7797 307.021 74.6362C303.887 78.4926 299.539 81.1768 294.684 82.252C294.397 82.252 294.084 82.252 293.641 82.4342C294.459 80.8999 294.847 79.1736 294.765 77.4373C294.682 75.701 294.132 74.0191 293.172 72.5692L293.745 72.3349C296.166 71.571 298.28 70.0563 299.781 68.0108C301.281 65.9653 302.089 63.4955 302.087 60.9602C302.099 58.0117 303.151 55.1617 305.058 52.9103C306.965 50.6589 309.605 49.15 312.515 48.6484C311.125 48.7031 309.74 48.4674 308.447 47.9564C307.154 47.4454 305.982 46.6704 305.007 45.6811C304.025 44.6507 303.282 43.4167 302.831 42.0671C302.381 40.7175 302.233 39.2853 302.4 37.8724C302.643 35.5616 303.688 33.4086 305.355 31.7872C307.021 30.1658 309.204 29.1784 311.524 28.9964C314.023 28.8117 316.498 29.5869 318.444 31.1636C320.389 32.7402 321.658 34.9993 321.991 37.4789C322.324 39.9585 321.695 42.4715 320.235 44.504C318.774 46.5366 316.59 47.9353 314.131 48.4142C315.574 48.5485 317.004 48.801 318.406 49.169C320.597 49.8161 322.557 51.073 324.057 52.7926C325.558 54.5121 326.537 56.6229 326.879 58.8779C326.921 58.9785 326.973 59.0745 327.035 59.1642L326.905 90.8677Z" fill="white"/>
<path d="M256.649 48.5703C254.258 48.0469 252.166 46.6113 250.82 44.5699C249.474 42.5285 248.981 40.0428 249.444 37.643C249.908 35.2431 251.292 33.1191 253.302 31.7238C255.311 30.3286 257.787 29.7725 260.202 30.1743C262.616 30.5761 264.778 31.904 266.226 33.8746C267.674 35.8453 268.293 38.3028 267.952 40.723C267.611 43.1432 266.337 45.3346 264.4 46.8298C262.464 48.325 260.019 49.0056 257.587 48.7265C259.907 49.0961 262.07 50.1265 263.818 51.6938C265.114 52.8001 266.155 54.1729 266.871 55.7184C267.586 57.2638 267.959 58.9453 267.963 60.6479C267.894 63.5485 268.868 66.3778 270.71 68.6224C272.551 70.8669 275.138 72.378 277.999 72.8815C280.024 73.1122 282.063 73.1992 284.1 73.1418C284.886 73.1237 285.672 73.1848 286.446 73.324C287.598 73.6225 288.602 74.3318 289.266 75.3181C289.931 76.3045 290.211 77.4996 290.054 78.678C289.897 79.8565 289.313 80.9368 288.413 81.7151C287.513 82.4934 286.359 82.9158 285.168 82.9028C282.665 82.9941 280.158 82.942 277.661 82.7466C273.916 82.3714 270.335 81.0228 267.275 78.8352C264.215 76.6475 261.783 73.6974 260.22 70.2786C258.818 67.4548 258.087 64.3463 258.083 61.1945C258.104 60.8397 258.053 60.4844 257.931 60.1504C257.81 59.8163 257.621 59.5106 257.377 59.2521C257.133 58.9936 256.838 58.7878 256.511 58.6473C256.184 58.5069 255.832 58.4347 255.476 58.4354C254.789 58.4886 254.15 58.8116 253.701 59.3335C253.251 59.8555 253.027 60.534 253.078 61.2205C253.123 65.9888 254.451 70.6573 256.923 74.7374C259.395 78.8174 262.92 82.159 267.129 84.4125C267.334 84.4946 267.507 84.6398 267.625 84.8269C267.742 85.014 267.796 85.2335 267.78 85.4536C267.78 87.0154 267.78 88.5511 267.78 90.1128C267.812 90.4627 267.767 90.8152 267.647 91.1456C267.528 91.4759 267.337 91.7759 267.088 92.0243C266.839 92.2727 266.539 92.4634 266.208 92.5829C265.877 92.7024 265.524 92.7477 265.174 92.7157H245.882C245.532 92.7477 245.179 92.7024 244.848 92.5829C244.517 92.4634 244.217 92.2727 243.968 92.0243C243.719 91.7759 243.528 91.4759 243.409 91.1456C243.289 90.8152 243.244 90.4627 243.276 90.1128V60.6218C243.365 57.7799 244.433 55.0555 246.299 52.9078C248.165 50.76 250.715 49.3201 253.521 48.8306C254.537 48.6745 255.476 48.6484 256.649 48.5703Z" fill="white"/>
<defs>
<linearGradient id="paint0_linear_176_70" x1="0" y1="113.5" x2="377.87" y2="113.5" gradientUnits="userSpaceOnUse">
<stop stop-color="#93C01F"/>
<stop offset="1" stop-color="#006633"/>
</linearGradient>
<linearGradient id="paint1_linear_176_70" x1="188.987" y1="227" x2="188.987" y2="0" gradientUnits="userSpaceOnUse">
<stop stop-color="#93C01F"/>
<stop offset="1" stop-color="#006633"/>
</linearGradient>
<linearGradient id="paint2_linear_176_70" x1="0" y1="113.5" x2="378.077" y2="113.5" gradientUnits="userSpaceOnUse">
<stop stop-color="#93C01F"/>
<stop offset="1" stop-color="#006633"/>
</linearGradient>
</defs>
</svg>
