<!-- Generator: Adobe Illustrator 24.3.0, SVG Export Plug-In  -->
<svg version="1.1" xmlns="http://www.w3.org/2000/svg" xmlns:xlink="http://www.w3.org/1999/xlink" x="0px" y="0px"
	 width="152.92px" height="107.21px" viewBox="0 0 152.92 107.21"
	 style="overflow:visible;enable-background:new 0 0 152.92 107.21;" xml:space="preserve">
<style type="text/css">
	.st0{fill:#fff;}
</style>
<defs>
</defs>
<g>
	<path class="st0" d="M149.97,24.07l-32.28-10.91c-1.17-0.39-2.44,0.23-2.84,1.41c-0.4,1.17,0.23,2.44,1.41,2.84l31.97,10.81
		l-15.05,7.34c-0.62-0.42-1.33-0.74-2.09-0.94l-45.14-11.8c-1.43-7.38-10.52-10.48-16.11-5.23c-1.93,1.82-3.04,4.38-3.04,7.04v0.05
		c0.02,3.12,2.6,5.66,5.76,5.66h7.79c2.01,0,4.03-1.05,5.07-3.03l42.1,11c-13.3,6.49-43.16,21.04-46.97,22.9
		c-2.69,1.31-5.68,1.22-8.19,0L4.69,28.21L73.47,4.97c1.93-0.65,4.06-0.65,5.98,0l26.85,9.08c1.17,0.4,2.44-0.23,2.84-1.41
		c0.4-1.17-0.23-2.44-1.41-2.84L80.89,0.72c-2.85-0.96-6-0.96-8.85,0L2.95,24.07c-3.67,1.24-4,6.32-0.51,8.03l35.45,17.29
		c-1.95,9.27-4.93,19.26-8.17,28.12c-1.32,3.62-0.18,7.65,2.84,10.03c10.23,8.04,22.32,14.25,34.71,18.25
		c5.82,1.88,12.32,1.95,18.36,0c12.39-3.99,24.48-10.21,34.71-18.25c3.03-2.39,4.16-6.42,2.84-10.03
		c-3.17-8.66-6.19-18.71-8.16-28.12l16.68-8.13v33.72c-2.85,0.22-5.1,2.6-5.1,5.51V87c0,0.97,0.42,1.84,1.09,2.45l-0.83,12.58
		c-0.16,2.46,1.79,4.55,4.26,4.55h5.67c2.46,0,4.42-2.09,4.26-4.55l-0.83-12.58c0.67-0.61,1.09-1.48,1.09-2.45v-6.53
		c0-2.91-2.25-5.29-5.1-5.51V41.2c0-0.69-0.11-1.36-0.3-1.99l14.6-7.12C153.97,30.4,153.65,25.31,149.97,24.07L149.97,24.07z
		 M80.36,25.85h-7.79c-0.69,0-1.28-0.55-1.28-1.2v-0.04c0-1.44,0.58-2.78,1.63-3.77c3.23-3.04,8.51-0.85,8.72,3.52
		C81.68,25.41,81.01,25.85,80.36,25.85z M116.46,71.74c-12.1,9.47-29.28,16.25-35.2,17.38c-1.22,0.23-2.01,1.41-1.78,2.62
		c0.23,1.22,1.41,2.01,2.62,1.78c6.19-1.18,23.14-7.77,35.87-17.3c0.31,0.89,0.68,1.91,1.01,2.81c0.66,1.8,0.09,3.8-1.4,4.97
		c-12.06,9.48-24.78,14.75-33.32,17.5c-5.1,1.64-10.64,1.6-15.62,0c-8.54-2.75-21.25-8.02-33.32-17.5c-1.49-1.17-2.06-3.17-1.4-4.97
		c0.01-0.04,0.03-0.07,0.04-0.11c0.33-0.89,0.69-1.9,0.97-2.71c12.43,9.3,29.34,16.05,35.87,17.3c1.22,0.23,2.39-0.57,2.62-1.78
		c0.23-1.22-0.57-2.39-1.78-2.62c-5.59-1.06-22.82-7.7-35.2-17.38c1.82-5.56,3.93-12.71,5.58-20.33L70.4,65.23
		c3.78,1.84,8.19,1.91,12.12,0l28.36-13.83C112.53,59.03,114.64,66.18,116.46,71.74L116.46,71.74z M131.34,102.1l0.78-11.78h3.65
		l0.78,11.78H131.34z M136.81,80.47v5.36h-5.73v-5.36c0-0.57,0.48-1.05,1.05-1.05h3.63C136.33,79.43,136.81,79.91,136.81,80.47z"/>
</g>
</svg>
