<!-- Generator: Adobe Illustrator 24.3.0, SVG Export Plug-In  -->
<svg version="1.1" xmlns="http://www.w3.org/2000/svg" xmlns:xlink="http://www.w3.org/1999/xlink" x="0px" y="0px" width="32.15px"
	 height="32.15px" viewBox="0 0 32.15 32.15" style="overflow:visible;enable-background:new 0 0 32.15 32.15;"
	 xml:space="preserve">
<style type="text/css">
	.st0{fill:#FFFFFF;}
</style>
<defs>
</defs>
<g>
	<path class="st0" d="M26.69,0H5.46C2.46,0,0,2.46,0,5.46v21.23c0,3,2.46,5.46,5.46,5.46h21.23c3,0,5.46-2.46,5.46-5.46V5.46
		C32.15,2.46,29.69,0,26.69,0z M25.11,19.46c0,1.59-1.28,2.86-2.86,2.86H9.89c-1.58,0-2.85-1.27-2.85-2.86v-6.77
		c0-1.58,1.27-2.86,2.85-2.86h12.35c1.58,0,2.86,1.28,2.86,2.86V19.46z"/>
	<g>
		<polygon class="st0" points="20.93,16.08 14.38,20.84 14.38,11.33 		"/>
	</g>
</g>
</svg>
