<!-- Generator: Adobe Illustrator 24.3.0, SVG Export Plug-In  -->
<svg version="1.1" xmlns="http://www.w3.org/2000/svg" xmlns:xlink="http://www.w3.org/1999/xlink" x="0px" y="0px"
	 width="138.35px" height="138.36px" viewBox="0 0 138.35 138.36"
	 style="overflow:visible;enable-background:new 0 0 138.35 138.36;" xml:space="preserve">
<style type="text/css">
	.st0{fill:#fff;}
</style>
<defs>
</defs>
<g id="Page-1_2_">
	<g id="_x30_10---Idea_1_" transform="translate(-1.000000, -1.000000)">
		<path id="Shape_16_" class="st0" d="M4.4,87.23c0.76,0.53,1.56,0.99,2.4,1.38c1,0.51,2.67,1.36,2.78,1.96
			c0.15,0.79,0.05,1.6-0.27,2.34c-0.34,0.74-0.7,1.37-1.01,1.92c-0.84,1.49-2.26,3.99-0.13,5.73c0.5,0.46,1.36,1.13,2.14,1.73
			c-0.58,1.01-0.84,2.17-0.75,3.33c0.12,0.91,0.62,1.73,1.37,2.27c0.51,0.36,1.06,0.68,1.6,0.98c1.36,0.78,1.9,1.14,2.08,1.86
			c0.13,0.93,0.05,1.87-0.23,2.77c-0.14,0.62-0.27,1.23-0.35,1.84c-0.23,2.1,0.03,4.23,0.76,6.21c1.04,3.66,4.35,6.21,8.16,6.28
			c0.64,0,1.27-0.07,1.89-0.2c6.59-1.56,13.08-3.5,19.44-5.82c5.2,3.05,8.48,12.32,9.33,15.8c0.26,1.03,1.18,1.75,2.24,1.75
			l57.88-0.16c0.73,0,1.42-0.35,1.86-0.94s0.56-1.35,0.34-2.05c-0.57-1.56-1.36-3.04-2.34-4.38c-0.55-0.8-1.05-1.63-1.49-2.49
			c-1.04-2.11-1.91-4.31-2.6-6.56c-1.3-4.41-2.2-8.92-2.71-13.49c-0.08-0.84-0.6-1.57-1.37-1.91c-0.77-0.34-1.66-0.23-2.33,0.29
			c-0.67,0.51-1,1.35-0.87,2.18c0.53,4.84,1.5,9.63,2.88,14.3c0.76,2.48,1.72,4.89,2.86,7.22c0.53,1.04,1.12,2.05,1.79,3.01
			l0.15,0.23l-52.29,0.15c-1.53-5.47-4.31-10.51-8.12-14.73l2.08-0.73c1.54-0.54,2.71-0.95,3.31-1.14
			c9.88-3.12,14.82-7.62,14.68-13.37c0-0.61-0.25-1.2-0.69-1.63s-1.04-0.65-1.66-0.62c-1.27,0.03-2.28,1.09-2.25,2.36
			c0.06,2.37-1.89,5.83-11.47,8.87c-0.62,0.2-1.83,0.62-3.43,1.18c-1.71,0.6-3.89,1.36-6.29,2.18h-0.02
			c-6.49,2.38-13.11,4.38-19.83,6c-2.15,0.41-4.24-0.94-4.75-3.07c-0.49-1.31-0.68-2.72-0.54-4.11c0.06-0.48,0.17-0.96,0.28-1.45
			c0.47-1.59,0.54-3.28,0.2-4.91c-0.67-2.12-2.23-3.83-4.27-4.71l-0.48-0.27c0.25-0.5,0.55-0.98,0.89-1.43
			c0.39-0.49,0.56-1.12,0.48-1.74c-0.08-0.62-0.41-1.18-0.92-1.55c-0.55-0.41-1.86-1.38-2.81-2.15c0.11-0.2,0.23-0.42,0.35-0.62
			c0.36-0.63,0.77-1.37,1.18-2.23c0.73-1.62,0.94-3.42,0.62-5.16c-0.55-2.81-3.25-4.19-5.21-5.2c-0.66-0.31-1.3-0.68-1.9-1.1
			c-0.49-0.33-0.96-0.71-1.38-1.13c0-0.35,0.37-1.19,2.13-3.33c4.13-5.31,7.67-11.06,10.55-17.14c0.54-0.95,0.85-2.02,0.89-3.12
			c-0.24-2.32-1.47-4.42-3.37-5.76c-0.93-0.86-1.81-1.66-1.91-2.41c0.02-0.55,0.14-1.08,0.36-1.58c0.38-0.99,0.81-1.96,1.25-2.93
			c0.95-1.95,1.7-3.99,2.26-6.08L18,38.94c0.49-2.31,1.12-4.58,1.89-6.81c1.82-5.02,4.63-9.61,8.27-13.51
			c4.41-4.67,11.35-7.97,20.67-9.82c7.13-1.56,14.36-2.61,21.63-3.12c3.63-0.2,7.27,0.01,10.85,0.62c1.24,0.19,2.4-0.65,2.61-1.89
			c0.21-1.23-0.6-2.41-1.83-2.66c-3.92-0.67-7.91-0.89-11.88-0.68c-7.5,0.52-14.96,1.59-22.3,3.2C37.52,6.35,29.96,10,24.81,15.45
			c-4.07,4.35-7.21,9.49-9.25,15.09c-0.83,2.41-1.51,4.87-2.04,7.36l-0.23,0.97c-0.49,1.81-1.15,3.57-1.97,5.25
			c-0.46,1.05-0.94,2.1-1.35,3.19c-0.53,1.21-0.74,2.54-0.61,3.86c0.47,2.06,1.66,3.89,3.36,5.15c1.13,1.04,1.87,1.76,1.88,2.4
			c-0.08,0.35-0.22,0.69-0.39,1c-2.76,5.82-6.15,11.32-10.1,16.41c-1.67,2.03-3.41,4.4-3.04,6.77C1.54,84.74,2.75,86.29,4.4,87.23z"
			/>
		<path id="Shape_15_" class="st0" d="M26.75,42.04l0.23-1.03c0.4-1.92,0.92-3.81,1.54-5.67c1.39-3.85,3.54-7.38,6.33-10.38
			c2.99-2.82,6.65-4.83,10.63-5.84c0.8-0.23,1.42-0.87,1.62-1.68c0.19-0.81-0.07-1.67-0.68-2.23c-0.61-0.57-1.49-0.76-2.28-0.5
			c-4.75,1.23-9.1,3.67-12.64,7.08c-3.21,3.45-5.69,7.52-7.29,11.95c-0.69,2.05-1.26,4.13-1.71,6.25l-0.23,1
			c-0.29,1.24,0.48,2.48,1.72,2.77c0.17,0.04,0.35,0.06,0.52,0.06C25.58,43.82,26.51,43.08,26.75,42.04z"/>
		<circle id="Oval_1_" class="st0" cx="21.76" cy="49.43" r="2.31"/>
		<path id="Shape_14_" class="st0" d="M63.26,47.61c-0.16,7.86,2.62,15.5,7.79,21.42c1.63,1.69,3.4,3.23,5.3,4.61
			c3.37,2.61,6.57,5.1,7.42,8.57c-2.63,1.04-4.37,3.59-4.37,6.42v4.61c0.01,2.92,1.86,5.52,4.61,6.49v0.42
			c0,5.09,4.13,9.22,9.22,9.22s9.22-4.13,9.22-9.22v-0.42c2.75-0.97,4.6-3.57,4.61-6.49v-4.61c-0.01-2.84-1.74-5.38-4.38-6.42
			c0.85-3.46,4.04-5.96,7.42-8.57c1.9-1.38,3.68-2.92,5.3-4.61c5.17-5.92,7.95-13.56,7.8-21.42C123.15,31,109.84,17.48,93.24,17.15
			C76.63,17.48,63.33,31,63.26,47.61z M86.32,51.74h-2.31c-1.27,0-2.31-1.03-2.31-2.31s1.03-2.31,2.31-2.31
			c1.27,0,2.31,1.03,2.31,2.31V51.74z M95.54,81.71h-4.61V56.35h4.61V81.71z M93.24,104.77c-2.55,0-4.61-2.06-4.61-4.61h9.22
			C97.85,102.71,95.78,104.77,93.24,104.77z M102.46,93.24c0,1.27-1.03,2.31-2.31,2.31H86.32c-1.27,0-2.31-1.03-2.31-2.31v-4.61
			c0-1.27,1.03-2.31,2.31-2.31h13.84c1.27,0,2.31,1.03,2.31,2.31V93.24z M118.6,47.68c0.14,6.7-2.21,13.2-6.6,18.26
			c-1.45,1.48-3.02,2.84-4.7,4.05c-2.72,1.89-5.13,4.2-7.15,6.82V56.35h2.31c3.82,0,6.92-3.1,6.92-6.92s-3.1-6.92-6.92-6.92
			s-6.92,3.1-6.92,6.92v2.31h-4.61v-2.31c0-3.82-3.1-6.92-6.92-6.92s-6.92,3.1-6.92,6.92s3.1,6.92,6.92,6.92h2.31v20.47
			c-2.01-2.63-4.42-4.93-7.14-6.82c-1.68-1.21-3.25-2.57-4.7-4.05c-4.4-5.05-6.75-11.56-6.61-18.26
			c0.23-14.05,11.83-25.92,25.36-25.92S118.38,33.63,118.6,47.68z M100.16,51.74v-2.31c0-1.27,1.03-2.31,2.31-2.31
			s2.31,1.03,2.31,2.31s-1.03,2.31-2.31,2.31H100.16z"/>
		<path id="Shape_13_" class="st0" d="M130.13,49.43h6.92c1.27,0,2.31-1.03,2.31-2.31s-1.03-2.31-2.31-2.31h-6.92
			c-1.27,0-2.31,1.03-2.31,2.31S128.86,49.43,130.13,49.43z"/>
		<path id="Shape_12_" class="st0" d="M119.32,23.34c0.61,0,1.2-0.24,1.63-0.68l4.89-4.89c0.6-0.58,0.84-1.44,0.63-2.24
			c-0.21-0.81-0.84-1.44-1.65-1.65c-0.81-0.21-1.66,0.03-2.24,0.63l-4.89,4.89c-0.66,0.66-0.86,1.65-0.5,2.51
			C117.55,22.78,118.39,23.35,119.32,23.34z"/>
		<path id="Shape_11_" class="st0" d="M93.24,12.54c1.27,0,2.31-1.03,2.31-2.31V3.31c0-1.27-1.03-2.31-2.31-2.31
			s-2.31,1.03-2.31,2.31v6.92C90.93,11.5,91.96,12.54,93.24,12.54z"/>
		<path id="Shape_10_" class="st0" d="M68.78,22.67c0.43-0.43,0.68-1.02,0.68-1.63s-0.24-1.2-0.68-1.63l-4.89-4.89
			c-0.58-0.6-1.44-0.84-2.24-0.63c-0.81,0.21-1.44,0.84-1.65,1.65c-0.21,0.81,0.03,1.66,0.63,2.24l4.89,4.89
			c0.43,0.43,1.02,0.68,1.63,0.68S68.35,23.1,68.78,22.67z"/>
		<path id="Shape_9_" class="st0" d="M49.43,44.82c-1.27,0-2.31,1.03-2.31,2.31s1.03,2.31,2.31,2.31h6.92
			c1.27,0,2.31-1.03,2.31-2.31s-1.03-2.31-2.31-2.31H49.43z"/>
	</g>
</g>
</svg>
