<!-- Generator: Adobe Illustrator 24.3.0, SVG Export Plug-In  -->
<svg version="1.1" xmlns="http://www.w3.org/2000/svg" xmlns:xlink="http://www.w3.org/1999/xlink" x="0px" y="0px" width="32.15px"
	 height="32.15px" viewBox="0 0 32.15 32.15" style="overflow:visible;enable-background:new 0 0 32.15 32.15;"
	 xml:space="preserve">
<style type="text/css">
	.st0{fill:#FFFFFF;}
</style>
<defs>
</defs>
<path class="st0" d="M26.69,0H5.46C2.46,0,0,2.46,0,5.46v21.23c0,3,2.46,5.46,5.46,5.46h21.23c3,0,5.46-2.46,5.46-5.46V5.46
	C32.15,2.46,29.69,0,26.69,0z M26.11,11.55c-0.4,0.49-0.86,0.93-1.37,1.3c-0.04,0.03-0.06,0.06-0.06,0.12
	c0.02,0.56,0,1.12-0.07,1.67c-0.15,1.17-0.47,2.29-0.97,3.35c-0.52,1.1-1.19,2.1-2.04,2.97c-1.43,1.48-3.16,2.44-5.18,2.89
	c-0.69,0.15-1.39,0.23-2.1,0.25c-2.17,0.06-4.18-0.48-6.03-1.62c-0.02-0.01-0.05-0.03-0.09-0.06c1.32,0.14,2.57-0.03,3.77-0.52
	c0.64-0.26,1.23-0.61,1.79-1.04c-1.96-0.07-3.18-1.47-3.51-2.61c0.54,0.1,1.08,0.08,1.61-0.05c0.01,0,0.03-0.01,0.05-0.03
	c-1.06-0.25-1.88-0.81-2.45-1.73c-0.38-0.61-0.56-1.27-0.55-2c0.53,0.28,1.08,0.44,1.68,0.46c-0.8-0.57-1.33-1.32-1.55-2.28
	c-0.22-0.96-0.08-1.87,0.4-2.73c2.04,2.4,4.62,3.72,7.77,3.94c-0.02-0.15-0.04-0.28-0.06-0.41c-0.11-0.89,0.07-1.71,0.55-2.46
	c0.6-0.94,1.46-1.52,2.55-1.7c1.27-0.21,2.37,0.15,3.3,1.05c0.06,0.06,0.11,0.08,0.2,0.06c0.77-0.17,1.5-0.45,2.19-0.84
	C25.99,9.51,26,9.5,26.02,9.49c0,0,0.01,0,0.03,0c-0.3,0.88-0.84,1.55-1.61,2.05c0.73-0.08,1.43-0.27,2.1-0.56
	c0.01,0.01,0.01,0.01,0.02,0.02C26.4,11.18,26.26,11.37,26.11,11.55z"/>
</svg>
