<?xml version="1.0" encoding="utf-8"?>
<!-- Generator: Adobe Illustrator 25.2.1, SVG Export Plug-In . SVG Version: 6.00 Build 0)  -->
<svg version="1.1" id="Capa_1" xmlns="http://www.w3.org/2000/svg" xmlns:xlink="http://www.w3.org/1999/xlink" x="0px" y="0px"
	 viewBox="0 0 512 512" style="enable-background:new 0 0 512 512;" xml:space="preserve">
<style type="text/css">
	.st0{fill:#83BD3F;}
</style>
<g>
	<path class="st0" d="M447.1,208.3c5.5,0,10-4.5,10-10s-4.5-10-10-10h-32.4c-5.5,0-10,4.5-10,10v80c0,5.5,4.5,10,10,10s10-4.5,10-10
		v-30.8h19.8c5.5,0,10-4.5,10-10s-4.5-10-10-10h-19.8v-19.2L447.1,208.3L447.1,208.3z"/>
	<path class="st0" d="M348.2,188.3h-22.7c-5.5,0-10,4.5-10,10v0.1v0V277c0,7.3,4.9,11.3,10.2,11.3h0c0.7,0,16.8-0.1,23.3-0.2
		c24-0.4,41.5-21.4,41.5-49.8C390.5,208.4,373.5,188.3,348.2,188.3L348.2,188.3z M348.7,268.1c-3,0.1-8.3,0.1-13,0.1
		c-0.1-31.3,0-20.3-0.1-59.9h12.6c16.4,0,22.3,15.5,22.3,30C370.5,252.9,363.7,267.9,348.7,268.1L348.7,268.1z"/>
	<path class="st0" d="M267.8,188.3h-22.3c-5.5,0-10,4.5-10,10v80c0,5.5,4.5,10,10,10s10-4.5,10-10v-24.8c4.5,0,9.4,0,12.3,0
		c18.2,0,33-14.6,33-32.6S286,188.3,267.8,188.3L267.8,188.3z M267.8,233.4c-2.8,0-7.7,0-12.2,0c-0.1-13.1,0-8-0.1-25.2h12.2
		c7.1,0,13,5.8,13,12.6C280.8,227.7,274.8,233.4,267.8,233.4z"/>
	<path class="st0" d="M480.6,140.5h-55.7V15c0-8.3-6.7-15-15-15H174.6c-4.1,0-7.9,1.7-10.6,4.4L68.6,99.8c-2.9,2.9-4.4,6.8-4.4,10.6
		v147.5H59c-8.3,0-15,6.7-15,15v104H15c-12.6,0-19.6,14.7-11.6,24.4l85.2,105.1c6,7.4,17.3,7.4,23.3,0l19.8-24.4h278.2
		c8.3,0,15-6.7,15-15V336.6h55.7c17.3,0,31.4-14.1,31.4-31.4V171.9C512,154.6,497.9,140.5,480.6,140.5L480.6,140.5z M159.6,51.2
		v44.2h-44.2C120.1,90.7,154.9,55.9,159.6,51.2z M46.5,406.9H59c8.3,0,15-6.7,15-15v-104h52.5v104c0,8.3,6.7,15,15,15H154l-41,50.6
		c0,0,0,0,0,0l-12.8,15.7L46.5,406.9z M394.9,452H156l41.1-50.6c7.9-9.8,1-24.4-11.6-24.4h-29v-104c0-8.3-6.7-15-15-15H94.2V125.4
		h80.4c8.3,0,15-6.7,15-15V30h205.3v110.5H211.8c-17.3,0-31.4,14.1-31.4,31.4v133.3c0,17.3,14.1,31.4,31.4,31.4h183.1V452z
		 M482,305.2c0,0.8-0.6,1.4-1.4,1.4c-7,0-261.1,0-268.8,0c-0.8,0-1.4-0.6-1.4-1.4V171.9c0-0.8,0.6-1.4,1.4-1.4h268.8
		c0.8,0,1.4,0.6,1.4,1.4V305.2z"/>
</g>
</svg>
