<!-- Generator: Adobe Illustrator 24.3.0, SVG Export Plug-In  -->
<svg version="1.1" xmlns="http://www.w3.org/2000/svg" xmlns:xlink="http://www.w3.org/1999/xlink" x="0px" y="0px"
	 width="136.72px" height="127.6px" viewBox="0 0 136.72 127.6" style="overflow:visible;enable-background:new 0 0 136.72 127.6;"
	 xml:space="preserve">
<style type="text/css">
	.st0{fill:#fff;}
</style>
<defs>
</defs>
<g id="Page-1_1_">
	<g id="_x30_13---Brain-Monitor_1_">
		<path id="Shape_3_" class="st0" d="M134.44,45.57c-0.01-6.8-5.02-12.55-11.75-13.51c-2.24-14.46-14.64-25.15-29.27-25.23
			c-0.58,0-1.19,0.07-1.79,0.1c-2.15-3.81-5.99-6.36-10.34-6.85c-4.35-0.49-8.66,1.13-11.61,4.36C65.65,1.56,60.8,0,55.83,0
			C48.1,0.04,40.86,3.78,36.36,10.07C31.2,8.26,25.48,9.05,21,12.17s-7.21,8.21-7.31,13.68C6.98,28.11,3.18,35.2,5.01,42.03
			C1.74,46.75-0.01,52.36,0,58.11c-0.01,8.93,4.17,17.34,11.3,22.73s16.36,7.11,24.95,4.67c2.98,6.4,8.9,10.95,15.85,12.16
			c6.96,1.22,14.07-1.05,19.04-6.06c2.8,0.95,5.72,1.53,8.67,1.72c0.42,8.52,3.7,13.63,17.45,18.22
			c8.93,2.98,11.31,9.02,11.94,12.36c0.42,2.16,2.32,3.72,4.53,3.71h6.95c1.26,0,2.46-0.51,3.32-1.43c0.86-0.91,1.31-2.14,1.24-3.4
			c-0.34-5.47-1.85-18.13-8.46-26.17c7.6-4.15,12.99-11.43,14.74-19.91c6.21-7.23,6.93-17.68,1.78-25.7
			C134.04,49.29,134.43,47.44,134.44,45.57L134.44,45.57z M127.77,74.08l-0.05,0.05c-3.24,3.56-7.83,5.6-12.65,5.61
			c-2.7,0.01-5.36-0.64-7.75-1.88c-1.09-0.56-2.1-1.24-3.04-2.03c3.04-3.48,3.68-8.45,1.61-12.58c-0.37-0.73-1.09-1.2-1.91-1.25
			c-0.81-0.05-1.59,0.34-2.04,1.03c-0.45,0.68-0.5,1.55-0.13,2.28c0.47,0.95,0.72,1.99,0.71,3.05c0,3.17-2.18,5.93-5.27,6.66
			c-3.09,0.73-6.27-0.76-7.69-3.6c-0.37-0.73-1.09-1.2-1.91-1.25c-0.81-0.05-1.59,0.34-2.04,1.03s-0.5,1.55-0.13,2.28
			c2.74,5.54,9.42,7.85,15,5.2c1.42,1.31,3.01,2.41,4.74,3.27c6.18,3.18,13.52,3.16,19.68-0.05c-3.57,7.16-10.36,12.17-18.26,13.46
			c-1.18,0.18-2.01,1.24-1.92,2.43c0.09,1.19,1.09,2.1,2.28,2.1c0.12,0,0.24-0.01,0.36-0.03c1.71-0.28,3.39-0.71,5.03-1.29
			c6.47,6.8,7.93,19.28,8.26,24.5h-7c-0.65-3.48-3.42-11.99-14.98-15.84c-11.75-3.92-14.01-7.47-14.34-13.88h0.12
			c2.58-0.18,5.13-0.65,7.6-1.4c1.2-0.37,1.88-1.64,1.51-2.85c-0.37-1.2-1.64-1.88-2.85-1.51c-2.15,0.66-4.38,1.07-6.62,1.22
			c-4.36,0.34-8.73-0.32-12.8-1.93c-0.9-0.34-1.91-0.09-2.55,0.63c-3.99,4.63-10.15,6.78-16.16,5.63S41.68,87.7,39.69,81.92v-0.01
			c-1.66-4.77-1.12-10.03,1.49-14.36c0.65-1.08,0.3-2.48-0.78-3.13c-1.08-0.65-2.48-0.3-3.13,0.78c-1.01,1.68-1.78,3.49-2.3,5.39
			c-1.94,0.26-3.9-0.34-5.37-1.65c-1.46-1.3-2.29-3.18-2.26-5.14v-0.09c0-0.6-0.24-1.17-0.67-1.59c-0.43-0.42-1.01-0.65-1.61-0.64
			c-1.27,0.02-2.28,1.06-2.28,2.32c0.01,6.29,5.1,11.39,11.39,11.39h0.08c-0.02,0.38-0.08,0.76-0.08,1.14c0,1.64,0.2,3.27,0.57,4.86
			c-7.19,1.95-14.88,0.43-20.8-4.09c-5.92-4.53-9.39-11.55-9.4-19c-0.01-3.89,0.95-7.73,2.78-11.17c1.05,1.41,2.36,2.61,3.86,3.53
			c0.7,0.42,1.57,0.43,2.28,0.04c0.71-0.4,1.16-1.14,1.17-1.95c0.01-0.81-0.41-1.57-1.11-1.99c-3.52-2.1-5.2-6.3-4.11-10.25
			s4.69-6.69,8.79-6.68c2.88-0.01,5.58,1.35,7.29,3.66c0.76,1.01,2.18,1.21,3.19,0.46c1.01-0.76,1.21-2.18,0.46-3.19
			c-2.55-3.45-6.59-5.49-10.88-5.49c0.6-6.45,6-11.38,12.48-11.39c1.1,0.01,2.2,0.16,3.26,0.46c-0.55,1.2-1,2.44-1.34,3.71
			c-0.15,0.59-0.07,1.21,0.24,1.73c0.31,0.52,0.81,0.9,1.39,1.05c0.59,0.15,1.21,0.07,1.73-0.24s0.9-0.81,1.05-1.39
			c0.45-1.74,1.14-3.4,2.05-4.94c3.52-5.87,9.85-9.47,16.69-9.49c4.09,0,8.07,1.29,11.38,3.7c-0.74,1.71-1.12,3.55-1.12,5.41
			c0,1.26,1.02,2.28,2.28,2.28c1.26,0,2.28-1.02,2.28-2.28c0-5.03,4.08-9.11,9.11-9.11c5.03,0,9.11,4.08,9.11,9.11
			c0,1.26,1.02,2.28,2.28,2.28c1.26,0,2.28-1.02,2.28-2.28c0-0.76-0.07-1.53-0.21-2.28h0.21c12.17,0.06,22.56,8.81,24.69,20.79
			c-2.01,0.39-3.91,1.23-5.55,2.45c-1.01,0.76-1.21,2.18-0.46,3.19c0.76,1.01,2.18,1.21,3.19,0.46c3.45-2.59,8.25-2.41,11.49,0.44
			s4.04,7.58,1.92,11.34c-0.95,1.65-2.38,2.96-4.1,3.77c-1.14,0.53-1.63,1.89-1.1,3.03c0.53,1.14,1.89,1.63,3.03,1.1
			c1.44-0.69,2.75-1.62,3.87-2.76c3.06,6.24,2.02,13.73-2.65,18.89L127.77,74.08z"/>
		<path id="Shape_2_" class="st0" d="M88.87,43.29h-5.12L79.66,29c-0.27-1-1.2-1.69-2.24-1.65c-1.04,0.02-1.93,0.75-2.17,1.76
			l-6.72,28.55l-7.06-35.32c-0.22-1.06-1.15-1.83-2.23-1.83c-1.08,0-2.02,0.76-2.23,1.83l-4.19,20.96H38.74
			c-1.26,0-2.28,1.02-2.28,2.28c0,1.26,1.02,2.28,2.28,2.28h15.95c1.08,0,2.02-0.76,2.23-1.82l2.32-11.62l6.88,34.41
			c0.21,1.05,1.13,1.8,2.19,1.82h0.04c1.06,0,1.98-0.73,2.22-1.76l7.11-30.22l2.15,7.54c0.28,0.98,1.17,1.65,2.19,1.65h6.84
			c1.26,0,2.28-1.02,2.28-2.28C91.15,44.31,90.13,43.29,88.87,43.29L88.87,43.29z"/>
		<path id="Shape_1_" class="st0" d="M102.54,43.29h-4.56c-1.26,0-2.28,1.02-2.28,2.28c0,1.26,1.02,2.28,2.28,2.28h4.56
			c1.26,0,2.28-1.02,2.28-2.28C104.82,44.31,103.8,43.29,102.54,43.29z"/>
	</g>
</g>
</svg>
