<!-- Generator: Adobe Illustrator 24.3.0, SVG Export Plug-In  -->
<svg version="1.1" xmlns="http://www.w3.org/2000/svg" xmlns:xlink="http://www.w3.org/1999/xlink" x="0px" y="0px"
	 width="150.85px" height="150.85px" viewBox="0 0 150.85 150.85"
	 style="overflow:visible;enable-background:new 0 0 150.85 150.85;" xml:space="preserve">
<style type="text/css">
	.st0{fill:#fff;}
</style>
<defs>
</defs>
<g>
	<g>
		<g>
			<path class="st0" d="M85.75,71.54c0.44,0.87,1.33,1.37,2.25,1.37c0.38,0,0.77-0.09,1.14-0.27c0.15-0.08,14.95-7.59,22.25-9.9
				c1.32-0.42,2.06-1.83,1.64-3.16c-0.42-1.32-1.82-2.06-3.16-1.64c-7.69,2.43-22.39,9.9-23.01,10.22
				C85.62,68.79,85.12,70.3,85.75,71.54z"/>
			<path class="st0" d="M88,42.74c0.38,0,0.77-0.09,1.14-0.27c0.15-0.08,14.95-7.59,22.25-9.9c1.32-0.42,2.06-1.83,1.64-3.16
				c-0.42-1.32-1.82-2.06-3.16-1.64c-7.69,2.43-22.39,9.9-23.01,10.22c-1.24,0.63-1.73,2.14-1.1,3.38
				C86.2,42.24,87.08,42.74,88,42.74z"/>
			<path class="st0" d="M148.34,37.71c-1.39,0-2.51,1.13-2.51,2.51v98.05c0,4.16-3.38,7.54-7.54,7.54H77.94v-5.79
				c3.67-1.28,13.21-4.27,22.63-4.27c21.9,0,36.77,4.85,36.92,4.9c0.76,0.25,1.6,0.13,2.26-0.35c0.66-0.47,1.04-1.23,1.04-2.04
				V27.66c0-1.18-0.82-2.2-1.97-2.45c0,0-1.97-0.44-5.34-1.06c-1.36-0.25-2.67,0.65-2.93,2.02c-0.25,1.37,0.65,2.68,2.02,2.93
				c1.28,0.24,2.36,0.44,3.19,0.61v105.24c-5.7-1.49-18.35-4.2-35.2-4.2c-10.95,0-21.71,3.6-25.04,4.82
				c-2.96-1.31-11.9-4.82-22.73-4.82c-17.32,0-31.58,2.86-37.71,4.31V29.6c5.02-1.23,19.85-4.46,37.71-4.46
				c9.17,0,17.03,2.85,20.11,4.14v98.94c0,0.91,0.49,1.74,1.27,2.19c0.79,0.45,1.76,0.43,2.53-0.03
				c0.25-0.15,25.16-15.03,47.27-22.4c1.03-0.34,1.72-1.3,1.72-2.39V2.52c0-0.82-0.4-1.6-1.08-2.07c-0.67-0.47-1.54-0.58-2.32-0.29
				C102.19,7.7,81.84,20.37,81.63,20.5c-1.18,0.74-1.54,2.29-0.8,3.46c0.73,1.18,2.29,1.54,3.46,0.8
				c0.19-0.12,17.89-11.14,36.38-18.57v97.6c-17.16,5.96-35.08,15.7-42.74,20.06v-96.2c0-0.95-0.54-1.82-1.39-2.25
				c-0.43-0.21-10.74-5.29-23.75-5.29c-22.72,0-40.18,4.92-40.92,5.13c-1.08,0.31-1.82,1.29-1.82,2.42v110.62
				c0,0.79,0.37,1.53,1,2.01c0.44,0.33,0.98,0.51,1.52,0.51c0.23,0,0.46-0.03,0.69-0.1c0.17-0.05,17.56-4.93,39.54-4.93
				c9.19,0,17.05,2.86,20.11,4.15v5.91H12.57c-4.16,0-7.54-3.38-7.54-7.54V40.23c0-1.39-1.13-2.51-2.51-2.51S0,38.84,0,40.23v98.05
				c0,6.93,5.64,12.57,12.57,12.57h125.71c6.93,0,12.57-5.64,12.57-12.57V40.23C150.85,38.84,149.73,37.71,148.34,37.71z"/>
			<path class="st0" d="M85.75,56.45c0.44,0.87,1.33,1.37,2.25,1.37c0.38,0,0.77-0.09,1.14-0.27c0.15-0.08,14.95-7.59,22.25-9.9
				c1.32-0.42,2.06-1.83,1.64-3.16c-0.42-1.32-1.82-2.06-3.16-1.64c-7.69,2.43-22.39,9.9-23.01,10.22
				C85.62,53.7,85.12,55.21,85.75,56.45z"/>
			<path class="st0" d="M85.75,86.62C86.2,87.49,87.08,88,88,88c0.38,0,0.77-0.09,1.14-0.27c0.15-0.08,14.95-7.59,22.25-9.9
				c1.32-0.42,2.06-1.83,1.64-3.16c-0.42-1.32-1.82-2.06-3.16-1.64c-7.69,2.43-22.39,9.9-23.01,10.22
				C85.62,83.87,85.12,85.38,85.75,86.62z"/>
			<path class="st0" d="M60.91,46.66c-15.52-3.64-33.17,1-33.91,1.2c-1.34,0.36-2.14,1.74-1.78,3.08c0.3,1.12,1.32,1.86,2.43,1.86
				c0.22,0,0.43-0.03,0.65-0.09c0.17-0.05,17.15-4.52,31.46-1.16c1.34,0.31,2.71-0.52,3.02-1.88
				C63.11,48.33,62.27,46.98,60.91,46.66z"/>
			<path class="st0" d="M60.91,61.74c-15.52-3.64-33.17,1-33.91,1.2c-1.34,0.36-2.14,1.74-1.78,3.08c0.3,1.12,1.32,1.86,2.43,1.86
				c0.22,0,0.43-0.03,0.65-0.09c0.17-0.05,17.15-4.52,31.46-1.16c1.34,0.31,2.71-0.52,3.02-1.88
				C63.11,63.41,62.27,62.06,60.91,61.74z"/>
			<path class="st0" d="M85.75,101.71c0.44,0.87,1.33,1.37,2.25,1.37c0.38,0,0.77-0.09,1.14-0.27c0.15-0.08,14.95-7.59,22.25-9.9
				c1.32-0.42,2.06-1.83,1.64-3.16c-0.42-1.32-1.82-2.06-3.16-1.64c-7.69,2.43-22.39,9.9-23.01,10.22
				C85.62,98.96,85.12,100.47,85.75,101.71z"/>
			<path class="st0" d="M60.91,76.83c-15.52-3.64-33.17,1-33.91,1.2c-1.34,0.36-2.14,1.74-1.78,3.08c0.3,1.12,1.32,1.87,2.43,1.87
				c0.22,0,0.43-0.03,0.65-0.09c0.17-0.05,17.15-4.52,31.46-1.16c1.34,0.31,2.71-0.52,3.02-1.88C63.11,78.5,62.27,77.15,60.91,76.83
				z"/>
			<path class="st0" d="M60.91,107c-15.52-3.64-33.17,1-33.91,1.2c-1.34,0.36-2.14,1.74-1.78,3.08c0.3,1.12,1.32,1.87,2.43,1.87
				c0.22,0,0.43-0.03,0.65-0.09c0.17-0.05,17.15-4.52,31.46-1.16c1.34,0.31,2.71-0.52,3.02-1.88
				C63.11,108.67,62.27,107.32,60.91,107z"/>
			<path class="st0" d="M60.91,91.91c-15.52-3.64-33.17,1-33.91,1.2c-1.34,0.36-2.14,1.74-1.78,3.08c0.3,1.12,1.32,1.87,2.43,1.87
				c0.22,0,0.43-0.03,0.65-0.09c0.17-0.05,17.15-4.52,31.46-1.16c1.34,0.31,2.71-0.52,3.02-1.88
				C63.11,93.58,62.27,92.23,60.91,91.91z"/>
		</g>
	</g>
</g>
</svg>
