<svg width="20" height="20" viewBox="0 0 20 20" fill="none" xmlns="http://www.w3.org/2000/svg">
<path opacity="0.5" fill-rule="evenodd" clip-rule="evenodd" d="M1 12.25C1.41421 12.25 1.75 12.5858 1.75 13C1.75 14.4354 1.75159 15.4365 1.85315 16.1919C1.9518 16.9257 2.13225 17.3142 2.40901 17.591C2.68577 17.8678 3.07435 18.0482 3.80812 18.1469C4.56347 18.2484 5.56459 18.25 7 18.25H13C14.4354 18.25 15.4365 18.2484 16.1919 18.1469C16.9257 18.0482 17.3142 17.8678 17.591 17.591C17.8678 17.3142 18.0482 16.9257 18.1469 16.1919C18.2484 15.4365 18.25 14.4354 18.25 13C18.25 12.5858 18.5858 12.25 19 12.25C19.4142 12.25 19.75 12.5858 19.75 13V13.0549C19.75 14.4225 19.75 15.5248 19.6335 16.3918C19.5125 17.2919 19.2536 18.0497 18.6517 18.6516C18.0497 19.2536 17.2919 19.5125 16.3918 19.6335C15.5248 19.75 14.4225 19.75 13.0549 19.75H6.94513C5.57754 19.75 4.47522 19.75 3.60825 19.6335C2.70814 19.5125 1.95027 19.2536 1.34835 18.6517C0.746431 18.0497 0.48754 17.2919 0.36652 16.3918C0.24996 15.5248 0.249981 14.4225 0.250001 13.0549C0.250001 13.0366 0.250001 13.0183 0.250001 13C0.250001 12.5858 0.585791 12.25 1 12.25Z" fill="#1C274C"/>
<path fill-rule="evenodd" clip-rule="evenodd" d="M10 14.75C10.2106 14.75 10.4114 14.6615 10.5535 14.5061L14.5535 10.1311C14.833 9.8254 14.8118 9.351 14.5061 9.0715C14.2004 8.792 13.726 8.8132 13.4465 9.1189L10.75 12.0682V1C10.75 0.58579 10.4142 0.25 10 0.25C9.5858 0.25 9.25 0.58579 9.25 1V12.0682L6.55353 9.1189C6.27403 8.8132 5.79963 8.792 5.49393 9.0715C5.18823 9.351 5.16698 9.8254 5.44648 10.1311L9.4465 14.5061C9.5886 14.6615 9.7894 14.75 10 14.75Z" fill="#1C274C"/>
</svg>
