<svg width="38" height="39" viewBox="0 0 38 39" fill="none" xmlns="http://www.w3.org/2000/svg">
<path d="M27.4832 13.0839L19.2749 17.209L11.0666 13.0839L0.899902 33.3764L7.23324 32.7514L10.4832 38.21L19.2749 20.7092L28.0666 38.21L31.3166 32.7514L37.6499 33.3764L27.4832 13.0839Z" fill="#C4C4C4"/>
<path d="M19.2751 26.8345C26.6849 26.8345 32.6917 20.8274 32.6917 13.4173C32.6917 6.00711 26.6849 0 19.2751 0C11.8652 0 5.8584 6.00711 5.8584 13.4173C5.8584 20.8274 11.8652 26.8345 19.2751 26.8345Z" fill="#E5B97F"/>
<path d="M19.2746 23.9594C25.0966 23.9594 29.8162 19.2395 29.8162 13.4172C29.8162 7.59499 25.0966 2.87512 19.2746 2.87512C13.4526 2.87512 8.73291 7.59499 8.73291 13.4172C8.73291 19.2395 13.4526 23.9594 19.2746 23.9594Z" fill="#C19A6B"/>
<path d="M19.775 7.08363L21.525 10.5838C21.6083 10.7505 21.775 10.8755 21.9417 10.9171L25.8166 11.5005C26.275 11.5838 26.4833 12.1255 26.15 12.4589L23.3583 15.209C23.2333 15.334 23.15 15.5423 23.1917 15.709L23.8583 19.5842C23.9416 20.0425 23.4416 20.4175 23.025 20.1675L19.5666 18.3341C19.4 18.2508 19.1917 18.2508 19.025 18.3341L15.525 20.1675C15.1083 20.3759 14.6083 20.0425 14.6916 19.5842L15.3583 15.709C15.4 15.5423 15.3166 15.334 15.1916 15.209L12.4 12.4589C12.0666 12.1255 12.2333 11.5422 12.7333 11.5005L16.6083 10.9171C16.775 10.8755 16.9416 10.7921 17.025 10.5838L18.775 7.08363C18.9833 6.66695 19.5666 6.66695 19.775 7.08363Z" fill="white"/>
</svg>
