<svg width="118" height="118" viewBox="0 0 118 118" fill="none" xmlns="http://www.w3.org/2000/svg">
<path d="M59 115.695C90.312 115.695 115.695 90.312 115.695 59C115.695 27.688 90.312 2.30469 59 2.30469C27.688 2.30469 2.30469 27.688 2.30469 59C2.30469 90.312 27.688 115.695 59 115.695Z" fill="url(#paint0_linear_234_2)" stroke="white" stroke-width="2" stroke-miterlimit="10"/>
<path d="M87.3477 88.2695C79.7422 88.2695 71.9062 88.2695 64.3008 88.2695C64.3008 88.0391 64.3008 87.8086 64.3008 87.3477C64.3008 81.125 64.3008 74.6719 64.3008 68.4492C64.3008 67.0664 63.6094 66.375 62.2266 66.375C58.3086 66.375 54.6211 66.375 50.7031 66.375C49.0898 66.375 48.6289 67.0664 48.6289 68.6797C48.6289 74.9023 48.6289 81.3555 48.6289 87.5781C48.6289 87.8086 48.6289 88.0391 48.6289 88.5C41.0234 88.5 33.1875 88.5 25.582 88.5C25.1211 88.0391 24.6602 87.5781 24.4297 87.3477C24.4297 76.2852 24.4297 65.4531 24.4297 54.3906C24.6602 54.3906 24.8906 54.3906 25.3516 54.3906C29.9609 54.3906 34.5703 54.3906 39.1797 54.3906C39.6406 54.3906 39.8711 54.1602 40.1016 53.9297C44.7109 49.3203 49.5508 44.4805 54.1602 39.8711C54.3906 39.6406 54.6211 39.1797 54.6211 38.7187C54.6211 34.5703 54.6211 30.4219 54.6211 26.2734C54.6211 24.8906 55.3125 24.1992 56.6953 24.1992C60.6133 24.1992 64.5312 24.1992 68.4492 24.1992C70.0625 24.1992 70.7539 25.3516 70.7539 26.5039C70.7539 28.3477 70.7539 29.9609 70.7539 31.8047C70.7539 33.6484 70.0625 34.3398 68.2188 34.3398C65.2227 34.3398 62.457 34.3398 59.4609 34.3398C59.2305 34.3398 59 34.3398 58.5391 34.3398C58.5391 35.9531 58.5391 37.3359 58.5391 38.7187C58.5391 39.1797 58.7695 39.6406 59 39.8711C63.6094 44.4805 68.2188 49.0898 73.0586 53.9297C73.5195 54.3906 73.75 54.3906 74.4414 54.3906C79.0508 54.3906 83.6602 54.3906 88.2695 54.3906C88.5 54.3906 88.7305 54.3906 89.1914 54.3906C89.1914 54.8516 89.1914 55.082 89.1914 55.3125C89.1914 65.6836 89.1914 76.0547 89.1914 86.4258C88.7305 87.1172 88.2695 87.8086 87.3477 88.2695ZM62.2266 56.0039C62.2266 52.7773 59.4609 50.0117 56.2344 50.2422C53.0078 50.2422 50.4727 53.0078 50.4727 56.0039C50.4727 59.2305 53.2383 61.9961 56.4648 61.9961C59.4609 61.9961 62.2266 59.2305 62.2266 56.0039ZM68.6797 64.0703C68.6797 64.7617 68.6797 65.4531 68.6797 66.1445C68.6797 66.1445 68.6797 66.1445 68.6797 66.375C68.6797 67.2969 69.6016 67.9883 70.5234 67.9883C71.4453 67.9883 72.3672 67.2969 72.3672 66.1445C72.3672 64.7617 72.3672 63.3789 72.3672 61.9961C72.3672 61.0742 71.4453 60.3828 70.5234 60.3828C69.6016 60.3828 68.6797 61.0742 68.6797 61.9961C68.6797 62.6875 68.6797 63.3789 68.6797 64.0703ZM32.2656 76.2851C32.2656 76.9766 32.2656 77.668 32.2656 78.1289V78.3594C32.2656 79.2812 32.957 79.9727 34.1094 79.9727C35.0312 79.9727 35.9531 79.2812 35.9531 78.3594C35.9531 76.9766 35.9531 75.5937 35.9531 73.9805C35.9531 73.0586 35.0312 72.3672 34.1094 72.3672C33.1875 72.3672 32.4961 73.0586 32.2656 74.2109C32.2656 74.9023 32.2656 75.5937 32.2656 76.2851ZM80.4336 76.2851C80.4336 75.5937 80.4336 74.9023 80.4336 74.2109C80.4336 73.2891 79.7422 72.3672 78.5898 72.3672C77.668 72.3672 76.7461 73.0586 76.7461 74.2109C76.7461 75.5937 76.7461 76.9766 76.7461 78.3594C76.7461 79.2812 77.668 79.9727 78.5898 79.9727C79.5117 79.9727 80.4336 79.2812 80.4336 78.3594C80.4336 77.668 80.4336 76.9766 80.4336 76.2851ZM32.2656 64.0703C32.2656 64.7617 32.2656 65.4531 32.2656 66.1445C32.2656 67.0664 33.1875 67.7578 34.1094 67.7578C35.0312 67.7578 35.9531 67.0664 35.9531 66.1445C35.9531 64.7617 35.9531 63.3789 35.9531 61.7656C35.9531 60.8437 35.0312 60.1523 34.1094 60.1523C33.1875 60.1523 32.4961 60.8437 32.2656 61.7656C32.2656 62.6875 32.2656 63.3789 32.2656 64.0703ZM44.0195 64.0703C44.0195 63.3789 44.0195 62.6875 44.0195 61.9961C44.0195 60.8437 43.3281 60.1523 42.1758 60.1523C41.2539 60.1523 40.332 60.8437 40.332 61.9961C40.332 63.3789 40.332 64.7617 40.332 66.1445C40.332 67.0664 41.0234 67.9883 42.1758 67.9883C43.0977 67.9883 44.0195 67.2969 44.0195 66.1445C44.0195 65.4531 44.0195 64.7617 44.0195 64.0703ZM80.4336 64.0703C80.4336 63.3789 80.4336 62.6875 80.4336 61.9961C80.4336 61.0742 79.7422 60.3828 78.5898 60.3828C77.668 60.3828 76.7461 61.0742 76.7461 61.9961C76.7461 63.3789 76.7461 64.9922 76.7461 66.375C76.7461 67.2969 77.668 67.9883 78.5898 67.9883C79.5117 67.9883 80.2031 67.2969 80.4336 66.375C80.4336 65.6836 80.4336 64.9922 80.4336 64.0703ZM44.0195 76.2851C44.0195 75.5937 44.0195 74.9023 44.0195 74.2109C44.0195 74.2109 44.0195 74.2109 44.0195 73.9805C44.0195 73.0586 43.0977 72.3672 42.1758 72.3672C41.2539 72.3672 40.332 73.0586 40.332 74.2109C40.332 75.5937 40.332 76.9766 40.332 78.3594C40.332 79.2812 41.2539 79.9727 42.1758 79.9727C43.0977 79.9727 44.0195 79.2812 44.0195 78.3594C44.0195 77.668 44.0195 76.9766 44.0195 76.2851ZM68.6797 76.2851C68.6797 76.9766 68.6797 77.668 68.6797 78.3594C68.6797 79.2812 69.3711 79.9726 70.5234 80.2031C71.4453 80.2031 72.3672 79.5117 72.3672 78.5898C72.3672 77.207 72.3672 75.8242 72.3672 74.4414C72.3672 73.5195 71.6758 72.5977 70.5234 72.5977C69.6016 72.5977 68.6797 73.2891 68.6797 74.4414C68.6797 74.9023 68.6797 75.5937 68.6797 76.2851Z" fill="white"/>
<path d="M52.0859 88.2695C52.0859 83.4297 52.0859 78.8203 52.0859 73.9805C52.0859 72.8281 52.0859 71.9063 52.0859 70.7539C52.0859 70.5234 52.0859 70.293 52.0859 70.0625C54.8516 70.0625 57.6172 70.0625 60.6133 70.0625C60.6133 76.2852 60.6133 82.2773 60.6133 88.2695C57.8477 88.2695 54.8516 88.2695 52.0859 88.2695Z" fill="white"/>
<path d="M24.1992 45.4023C24.6602 44.4805 25.3516 44.0195 26.5039 44.0195C32.2656 44.0195 37.7969 44.0195 43.5586 44.0195C43.7891 44.0195 44.0195 44.0195 44.4805 44.0195C44.25 44.25 44.0195 44.4805 44.0195 44.4805C42.1758 46.3242 40.5625 47.9375 38.7187 49.7812C38.4883 50.0117 38.2578 50.2422 38.0273 50.2422C33.6484 50.2422 29.2695 50.2422 24.8906 50.2422H24.6602C24.1992 48.6289 24.1992 47.0156 24.1992 45.4023Z" fill="white"/>
<path d="M24.1992 87.1172C24.6602 87.5781 25.1211 88.0391 25.3516 88.2695C24.8906 88.2695 24.4297 88.2695 24.1992 88.2695C24.1992 87.8086 24.1992 87.5781 24.1992 87.1172Z" fill="white"/>
<path d="M68.4492 44.0195C68.9102 44.0195 69.1406 44.0195 69.3711 44.0195C74.9023 44.0195 80.6641 44.0195 86.1953 44.0195C87.5781 44.0195 88.7305 44.7109 88.5 46.5547C88.5 47.9375 88.5 49.0898 88.5 50.4727C88.2695 50.4727 88.0391 50.4727 87.8086 50.4727C83.6601 50.4727 79.5117 50.4727 75.1328 50.4727C74.6719 50.4727 74.4414 50.2422 74.2109 50.0117C72.3672 48.3984 70.7539 46.5547 68.9102 44.7109C68.9102 44.4805 68.6797 44.25 68.4492 44.0195Z" fill="white"/>
<path d="M58.5391 56.0039C58.5391 57.1562 57.6172 58.0781 56.2344 58.0781C54.8516 58.0781 53.9297 57.1563 54.1602 55.7734C54.1602 54.6211 55.082 53.6992 56.4649 53.6992C57.6172 53.9297 58.5391 54.8516 58.5391 56.0039Z" fill="white"/>
<defs>
<linearGradient id="paint0_linear_234_2" x1="2.30469" y1="59.0521" x2="115.8" y2="59.0521" gradientUnits="userSpaceOnUse">
<stop stop-color="#1D70B7"/>
<stop offset="1" stop-color="#29235C"/>
</linearGradient>
</defs>
</svg>
