<svg width="118" height="118" viewBox="0 0 118 118" fill="none" xmlns="http://www.w3.org/2000/svg">
<path d="M59 115.695C90.312 115.695 115.695 90.312 115.695 59C115.695 27.688 90.312 2.30469 59 2.30469C27.688 2.30469 2.30469 27.688 2.30469 59C2.30469 90.312 27.688 115.695 59 115.695Z" fill="url(#paint0_linear_234_40)" stroke="white" stroke-width="2" stroke-miterlimit="10"/>
<path d="M93.3398 82.7383C92.8789 83.8906 91.957 84.3516 90.5742 84.3516C85.043 84.3516 79.5117 84.3516 73.9805 84.3516C72.3672 84.3516 71.4453 83.4297 71.4453 81.8164C71.4453 80.4336 71.4453 79.2812 71.4453 77.8984C71.4453 77.4375 71.6758 77.207 71.9063 76.9766C78.5898 73.2891 82.7383 67.5273 84.1211 59.9219C84.3516 58.7695 84.3516 57.6172 84.3516 56.2344C84.3516 54.8516 83.4297 53.9297 82.2773 53.9297C81.125 53.9297 79.9727 54.8516 79.9727 56.2344C79.9727 64.9922 73.75 73.0586 64.7617 75.1328C64.5313 75.1328 64.3008 75.1328 63.8398 75.3633C65.2227 72.3672 65.2227 69.3711 63.3789 66.6055C63.6094 66.6055 63.6094 66.375 63.8398 66.375C68.2188 64.7617 71.2148 61.0742 71.2148 56.2344C71.2148 51.625 74.2109 46.5547 80.4336 45.4023C77.8984 45.4023 75.5938 44.7109 73.75 42.6367C71.9062 40.793 71.2148 38.4883 71.2148 35.7227C71.4453 31.5742 75.1328 28.1172 79.2813 27.8867C83.8906 27.6563 87.8086 30.8828 88.5 35.4922C88.9609 39.6406 86.4258 44.0195 81.5859 44.9414C82.7383 45.1719 84.1211 45.1719 85.2734 45.6328C89.4219 47.0156 91.957 50.0117 92.8789 54.1602C92.8789 54.1602 92.8789 54.3906 93.1094 54.3906C93.3398 64.0703 93.3398 73.5195 93.3398 82.7383Z" fill="white"/>
<path d="M31.1133 45.4024C26.5039 44.4805 23.2773 40.332 23.7383 35.7227C24.4297 31.1133 28.3477 27.8867 32.957 28.1172C37.1055 28.3477 40.793 32.0352 41.0234 36.1836C41.2539 41.0234 37.3359 45.8633 31.8047 45.6328C33.8789 46.0938 35.7227 46.7852 37.3359 48.168C39.6406 50.2422 41.0234 53.0078 41.0234 56.0039C41.0234 61.5352 44.4805 65.9141 50.0117 66.8359C51.8555 67.0664 53.6992 67.0664 55.3125 67.0664C56.0039 67.0664 56.6953 67.0664 57.3867 67.2969C59.4609 67.7578 60.8438 69.832 60.6133 72.1367C60.3828 74.2109 58.5391 75.8242 56.4648 75.8242C54.1602 75.8242 52.0859 75.8242 49.7813 75.5938C42.6367 74.6719 37.5664 70.9844 34.3398 64.5313C33.1875 61.9961 32.4961 59.4609 32.4961 56.6953C32.4961 55.3125 31.5742 54.1602 30.4219 54.1602C29.2695 54.1602 28.1172 55.3125 28.3477 56.6953C28.8086 65.9141 32.957 72.5977 40.793 77.207C41.2539 77.4375 41.4844 77.668 41.2539 78.1289C41.2539 79.5117 41.2539 80.8945 41.2539 82.2774C41.2539 83.6602 40.332 84.582 38.9492 84.582C33.1875 84.582 27.4258 84.582 21.6641 84.582C20.2812 84.582 19.3594 83.6602 19.3594 82.2774C19.3594 73.5195 19.3594 64.9922 19.3594 56.2344C19.3594 51.1641 23.5078 46.5547 28.3477 45.8633C29.2695 45.4023 30.1914 45.4024 31.1133 45.4024Z" fill="white"/>
<defs>
<linearGradient id="paint0_linear_234_40" x1="2.30469" y1="59.0521" x2="115.8" y2="59.0521" gradientUnits="userSpaceOnUse">
<stop stop-color="#93C01F"/>
<stop offset="1" stop-color="#006633"/>
</linearGradient>
</defs>
</svg>
