<svg width="118" height="118" viewBox="0 0 118 118" fill="none" xmlns="http://www.w3.org/2000/svg">
<path d="M59 115.695C90.312 115.695 115.695 90.312 115.695 59C115.695 27.688 90.312 2.30469 59 2.30469C27.688 2.30469 2.30469 27.688 2.30469 59C2.30469 90.312 27.688 115.695 59 115.695Z" fill="url(#paint0_linear_234_11)" stroke="white" stroke-width="2" stroke-miterlimit="10"/>
<path d="M60.3828 21.4336C61.0742 21.6641 61.5351 21.6641 61.9961 21.8945C67.2968 23.2773 70.7539 28.3477 70.5234 34.1094C70.2929 39.1797 66.1445 43.7891 60.8437 44.7109C53.2382 46.0937 46.3242 39.6406 47.0156 32.0352C47.4765 26.7344 51.625 22.3555 56.9257 21.6641C56.9257 21.6641 57.1562 21.6641 57.1562 21.4336C58.539 21.4336 59.4609 21.4336 60.3828 21.4336Z" fill="white"/>
<path d="M34.8008 77.8984C37.1055 77.8984 38.9492 77.207 40.332 75.3633C41.0234 74.4414 41.4844 73.2891 41.4844 72.3672C41.4844 70.0625 41.7148 67.7578 41.4844 65.4531C41.2539 62.457 38.7187 60.1523 35.4922 60.1523C35.2617 60.1523 35.0312 60.1523 34.8008 60.1523C34.8008 58.5391 34.8008 56.6953 34.8008 55.082C34.8008 53.6992 36.4141 53.0078 37.7969 53.6992C41.4844 55.082 45.4023 56.4648 49.0898 57.8477C51.3945 58.7695 53.9297 59.6914 56.2344 60.6133C56.6953 60.8438 56.9258 60.8438 56.9258 61.3047C56.9258 71.4453 56.9258 81.5859 56.9258 91.7266V91.957C56.6953 91.957 56.4648 91.957 56.4648 91.7266C49.7812 89.1914 43.3281 86.8867 36.6445 84.3516C35.2617 83.8906 35.0312 83.1992 35.0312 81.8164C34.8008 80.6641 34.8008 79.2812 34.8008 77.8984Z" fill="white"/>
<path d="M61.0742 91.957C61.0742 91.7266 61.0742 91.4961 61.0742 91.2656C61.0742 81.3555 61.0742 71.4453 61.0742 61.3047C61.0742 60.8437 61.3047 60.3828 61.7656 60.3828C67.7578 58.0781 73.9805 55.7734 79.9727 53.4688C81.3555 53.0078 82.2773 53.2383 82.9688 54.1602C83.1992 54.3906 83.1992 54.6211 83.1992 54.8516C83.1992 56.4648 83.1992 58.0781 83.1992 59.6914C82.5078 59.6914 81.8164 59.6914 81.125 59.9219C78.5898 60.6133 76.7461 62.457 76.5156 65.2227C76.2852 67.5273 76.2852 69.832 76.5156 72.1367C76.7461 75.3633 79.2812 77.4375 82.5078 77.4375C82.7383 77.4375 82.9687 77.4375 83.1992 77.4375C83.1992 79.0508 83.1992 80.6641 83.1992 82.0469C83.1992 82.9687 82.5078 83.4297 81.5859 83.8906C77.8984 85.2734 74.2109 86.6562 70.5234 88.0391C67.7578 89.1914 64.7617 90.1133 61.9961 91.2656C61.5352 91.957 61.3047 91.957 61.0742 91.957Z" fill="white"/>
<path d="M42.8672 50.9336C44.9414 49.0898 47.4766 47.4766 50.0117 46.5547C50.2422 46.5547 50.4727 46.5547 50.7031 46.7852C56.2344 49.7812 61.5352 49.7812 67.0664 46.7852C67.2969 46.5547 67.7578 46.5547 67.9883 46.5547C70.5234 47.4766 73.0586 49.0898 75.1328 50.9336C74.9023 51.1641 74.6719 51.1641 74.4414 51.1641C69.6016 53.0078 64.5312 54.8516 59.4609 56.6953C59.2305 56.9258 58.5391 56.9258 58.3086 56.6953C53.2383 54.8516 48.3984 53.0078 43.3281 51.1641C43.3281 51.1641 43.0977 51.1641 42.8672 50.9336Z" fill="white"/>
<path d="M80.4336 69.1406C80.4336 68.2188 80.4336 67.2969 80.4336 66.375C80.4336 65.2227 81.3555 64.3008 82.5078 64.3008C83.4297 64.3008 84.1211 64.3008 85.043 64.5313C87.3477 64.9922 88.9609 67.2969 88.7305 69.832C88.5 72.1367 86.4258 73.9805 83.8906 73.9805C83.4297 73.9805 82.9687 73.9805 82.5078 73.9805C81.3555 73.9805 80.4336 73.0586 80.4336 71.9063C80.4336 70.9844 80.4336 70.0625 80.4336 69.1406Z" fill="white"/>
<path d="M37.5664 68.9102C37.5664 69.832 37.5664 70.7539 37.5664 71.6758C37.5664 72.8281 36.6445 73.75 35.4921 73.75C34.5703 73.75 33.8789 73.75 32.957 73.5195C30.4218 73.0586 29.039 70.7539 29.2695 68.2188C29.5 65.9141 31.5742 64.0703 34.1093 64.0703C34.5703 64.0703 35.0312 64.0703 35.4921 64.0703C36.6445 64.0703 37.5664 64.9922 37.5664 66.1445C37.5664 67.0664 37.5664 67.9883 37.5664 68.9102Z" fill="white"/>
<defs>
<linearGradient id="paint0_linear_234_11" x1="2.30469" y1="59.0521" x2="115.8" y2="59.0521" gradientUnits="userSpaceOnUse">
<stop stop-color="#F29100"/>
<stop offset="1" stop-color="#BD1622"/>
</linearGradient>
</defs>
</svg>
