<svg width="38" height="39" viewBox="0 0 38 39" fill="none" xmlns="http://www.w3.org/2000/svg">
<path d="M27.2083 13.0833L19 17.2083L10.7917 13.0833L0.625 33.375L6.95833 32.75L10.2083 38.2083L19 20.7083L27.7917 38.2083L31.0417 32.75L37.375 33.375L27.2083 13.0833Z" fill="#E24255"/>
<path d="M19.0002 26.8333C26.41 26.8333 32.4168 20.8265 32.4168 13.4167C32.4168 6.00685 26.41 0 19.0002 0C11.5903 0 5.5835 6.00685 5.5835 13.4167C5.5835 20.8265 11.5903 26.8333 19.0002 26.8333Z" fill="#FFC54D"/>
<path d="M19.0002 23.9583C24.8222 23.9583 29.5418 19.2387 29.5418 13.4167C29.5418 7.59467 24.8222 2.875 19.0002 2.875C13.1782 2.875 8.4585 7.59467 8.4585 13.4167C8.4585 19.2387 13.1782 23.9583 19.0002 23.9583Z" fill="#E8B04B"/>
<path d="M19.5001 7.08331L21.2501 10.5833C21.3334 10.75 21.5001 10.875 21.6667 10.9166L25.5417 11.5C26.0001 11.5833 26.2084 12.125 25.8751 12.4583L23.0834 15.2083C22.9584 15.3333 22.8751 15.5416 22.9167 15.7083L23.5834 19.5833C23.6667 20.0416 23.1667 20.4166 22.7501 20.1666L19.2917 18.3333C19.1251 18.25 18.9167 18.25 18.7501 18.3333L15.2501 20.1666C14.8334 20.375 14.3334 20.0416 14.4167 19.5833L15.0834 15.7083C15.1251 15.5416 15.0417 15.3333 14.9167 15.2083L12.1251 12.4583C11.7917 12.125 11.9584 11.5416 12.4584 11.5L16.3334 10.9166C16.5001 10.875 16.6667 10.7916 16.7501 10.5833L18.5001 7.08331C18.7084 6.66665 19.2917 6.66665 19.5001 7.08331Z" fill="white"/>
</svg>
