<svg width="38" height="39" viewBox="0 0 38 39" fill="none" xmlns="http://www.w3.org/2000/svg">
<path d="M27.2557 13.0839L19.0474 17.209L10.839 13.0839L0.672363 33.3764L7.0057 32.7514L10.2557 38.21L19.0474 20.7092L27.839 38.21L31.089 32.7514L37.4224 33.3764L27.2557 13.0839Z" fill="#FFBF4B"/>
<path d="M19.0475 26.8345C26.4573 26.8345 32.4642 20.8274 32.4642 13.4173C32.4642 6.00711 26.4573 0 19.0475 0C11.6377 0 5.63086 6.00711 5.63086 13.4173C5.63086 20.8274 11.6377 26.8345 19.0475 26.8345Z" fill="#EDEDED"/>
<path d="M19.047 23.9594C24.869 23.9594 29.5887 19.2395 29.5887 13.4172C29.5887 7.59499 24.869 2.87512 19.047 2.87512C13.225 2.87512 8.50537 7.59499 8.50537 13.4172C8.50537 19.2395 13.225 23.9594 19.047 23.9594Z" fill="#BCBCBC"/>
<path d="M19.5474 7.08363L21.2974 10.5838C21.3808 10.7505 21.5474 10.8755 21.7141 10.9171L25.5891 11.5005C26.0474 11.5838 26.2558 12.1255 25.9224 12.4589L23.1308 15.209C23.0058 15.334 22.9224 15.5423 22.9641 15.709L23.6308 19.5842C23.7141 20.0425 23.2141 20.4175 22.7974 20.1675L19.3391 18.3341C19.1724 18.2508 18.9641 18.2508 18.7974 18.3341L15.2974 20.1675C14.8808 20.3759 14.3808 20.0425 14.4641 19.5842L15.1308 15.709C15.1724 15.5423 15.0891 15.334 14.9641 15.209L12.1724 12.4589C11.8391 12.1255 12.0058 11.5422 12.5058 11.5005L16.3808 10.9171C16.5474 10.8755 16.7141 10.7921 16.7974 10.5838L18.5474 7.08363C18.7558 6.66695 19.3391 6.66695 19.5474 7.08363Z" fill="white"/>
</svg>
