<svg width="75" height="65" viewBox="0 0 75 65" fill="none" xmlns="http://www.w3.org/2000/svg">
<path d="M37.1545 26.5667V62.1667M37.1545 26.5667C37.1545 18.2593 37.1545 14.1056 35.4525 10.9325C33.9555 8.14145 31.567 5.87224 28.629 4.4501C25.289 2.83337 20.9167 2.83337 12.172 2.83337H8.2685C6.08234 2.83337 4.98924 2.83337 4.15424 3.23755C3.41976 3.5931 2.8226 4.1604 2.44833 4.85816C2.02289 5.65141 2.02289 6.68985 2.02289 8.76671V48.8167C2.02289 50.8937 2.02289 51.9321 2.44833 52.7253C2.8226 53.4232 3.41976 53.9902 4.15424 54.3458C4.98924 54.75 6.08234 54.75 8.2685 54.75H19.7709C21.8795 54.75 22.9338 54.75 23.9533 54.9228C24.8582 55.076 25.741 55.3297 26.5834 55.6794C27.5325 56.0728 28.4097 56.6283 30.1641 57.7397L37.1545 62.1667M37.1545 26.5667C37.1545 18.2593 37.1545 14.1056 38.8564 10.9325C40.3534 8.14145 42.7419 5.87224 45.6797 4.4501C49.02 2.83337 53.3923 2.83337 62.1369 2.83337H66.0404C68.2268 2.83337 69.3198 2.83337 70.1547 3.23755C70.8894 3.5931 71.4862 4.1604 71.8606 4.85816C72.286 5.65141 72.286 6.68985 72.286 8.76671V48.8167C72.286 50.8937 72.286 51.9321 71.8606 52.7253C71.4862 53.4232 70.8894 53.9902 70.1547 54.3458C69.3198 54.75 68.2268 54.75 66.0404 54.75H54.538C52.4293 54.75 51.3749 54.75 50.3557 54.9228C49.4505 55.076 48.5679 55.3297 47.7256 55.6794C46.7766 56.0728 45.8991 56.6283 44.1449 57.7397L37.1545 62.1667" stroke="#A59AC6" stroke-width="4" stroke-linecap="round" stroke-linejoin="round"/>
</svg>
