<svg width="79" height="56" viewBox="0 0 79 56" fill="none" xmlns="http://www.w3.org/2000/svg">
<path d="M14.6291 8.22405C14.6291 3.99781 18.167 0.589478 22.6173 0.589478C27.0393 0.589478 30.6055 3.99781 30.6055 8.22405C30.5771 12.4777 27.0109 15.8586 22.6173 15.8586C18.1953 15.8586 14.6291 12.4503 14.6291 8.22405ZM58.6916 40.9684H44.1974V28.5895C44.1974 22.5589 38.6831 17.6842 32.4786 17.6842H13.0502C6.23851 17.6842 0.403192 23.3255 0.406276 28.8842V51.579C0.398258 54.0939 2.25691 55.4073 4.10693 55.4105C5.96158 55.4138 7.80759 54.1004 7.80759 51.579V29.4737H10.2747V55.4105H34.329V29.4737H36.7961L36.8211 44.3196C36.8047 46.8923 38.4685 47.9879 40.1883 48.0421H58.6916C63.7378 48.0421 63.7378 40.9684 58.6916 40.9684ZM51.818 35.591C57.0584 35.591 59.7664 36.3982 60.9318 36.8931H48.2064V21.3171H50.2501V35.5989L51.5161 35.591H51.818ZM62.4601 21.7678C62.4601 24.1717 62.4601 36.3419 62.4601 36.3419C62.4601 36.3419 60.1084 34.3887 51.8223 34.3887H51.5077C51.5077 32.0848 51.5077 19.7144 51.5077 19.7144C51.5077 19.7144 51.9793 19.6964 52.7256 19.6964H52.7277C55.2935 19.6964 61.1227 19.9068 62.4601 21.7678ZM74.8105 35.591L76.0764 35.5989V21.3171H78.1201V36.8931H65.3944C66.5598 36.3982 69.2681 35.591 74.5082 35.591H74.8105ZM73.5988 19.6964H73.601C74.3473 19.6964 74.8188 19.7144 74.8188 19.7144C74.8188 19.7144 74.8188 32.0848 74.8188 34.3887H74.5042C66.2182 34.3887 63.8664 36.3419 63.8664 36.3419C63.8664 36.3419 63.8664 24.1717 63.8664 21.7678C65.2039 19.9068 71.033 19.6964 73.5988 19.6964Z" fill="#A59AC6"/>
</svg>
