<svg width="73" height="69" viewBox="0 0 73 69" fill="none" xmlns="http://www.w3.org/2000/svg">
<path fill-rule="evenodd" clip-rule="evenodd" d="M12.0236 4.16802C12.0236 1.88605 13.9429 0.0361328 16.3105 0.0361328H56.8476C59.202 0.0361328 61.1346 1.86513 61.1346 4.15986V4.19244V4.22508V4.25775V4.29046V4.32323V4.356V4.38883V4.4217V4.4546V4.48753V4.52049V4.55349V4.58652V4.61961V4.65273V4.68586V4.71904V4.75226V4.78552V4.8188V4.85215V4.8855V4.91891V4.95232V4.9858V5.01931V5.05282V5.08639V5.12V5.15364V5.18734V5.22104V5.25477V5.28857V5.32237V5.3562V5.3901V5.42402V5.45795V5.49194V5.52596V5.56002V5.59408V5.6282V5.66235V5.69653V5.73075V5.765V5.79928V5.83359V5.86793V5.90231V5.93672V5.97116V6.00563V6.04017V6.07471V6.10928V6.14388V6.17851V6.21318V6.24788V6.28261V6.31737V6.35216V6.38699V6.42185V6.45674V6.49166V6.52662V6.5616V6.59662V6.63164V6.66673V6.70184V6.73696V6.77214V6.80732V6.84256V6.8778V6.91308V6.94842V6.98376V7.01913V7.05454V7.08998V7.12541V7.16091V7.17566H62.505C67.8846 7.17566 72.246 11.379 72.246 16.5641V21.2297C72.246 24.8484 70.088 28.145 66.6993 29.7032L59.806 32.873C59.589 32.9729 59.3636 33.0375 59.1373 33.0693C55.6656 40.8275 48.0113 46.4389 38.9126 47.2656V53.5825H45.2213C47.3286 53.5825 49.3796 54.2415 51.0656 55.4601L55.0163 58.3159C59.6576 61.671 57.1956 68.7896 51.394 68.7896H21.7644C15.9627 68.7896 13.5008 61.671 18.1421 58.3159L22.0927 55.4601C23.7788 54.2415 25.8296 53.5825 27.9372 53.5825H34.246V47.2656C25.1472 46.4389 17.4931 40.8275 14.0212 33.0693C13.7948 33.0375 13.5695 32.9729 13.3522 32.873L6.45898 29.7032C3.07031 28.145 0.912476 24.8484 0.912476 21.2297V16.5641C0.912476 11.379 5.27354 7.17566 10.6532 7.17566H12.0236V4.16802ZM56.468 23.7043C56.468 34.2888 47.5676 42.8692 36.5866 42.873H36.579C25.5948 42.873 16.6902 34.2908 16.6902 23.7036V4.53402H56.468V4.55349V4.58652V4.61961V4.65273V4.68586V4.71904V4.75226V4.78552V4.8188V4.85215V4.8855V4.91891V4.95232V4.9858V5.01931V5.05282V5.08639V5.12V5.15364V5.18734V5.22104V5.25477V5.28857V5.32237V5.3562V5.3901V5.42402V5.45795V5.49194V5.52596V5.56002V5.59408V5.6282V5.66235V5.69653V5.73075V5.765V5.79928V5.83359V5.86793V5.90231V5.93672V5.97116V6.00563V6.04017V6.07471V6.10928V6.14388V6.17851V6.21318V6.24788V6.28261V6.31737V6.35216V6.38699V6.42185V6.45674V6.49166V6.52662V6.5616V6.59662V6.63164V6.66673V6.70184V6.73696V6.77214V6.80732V6.84256V6.8778V6.91308V6.94842V6.98376V7.01913V7.05454V7.08998V7.12541V7.16091V7.19645V7.23198V7.26758V7.30318V7.33884V7.3745V7.41019V7.44592V7.48168V7.51744V7.55326V7.58911V7.62497V7.66085V7.69677V7.73272V7.76871V7.80472V7.84077V7.87682V7.9129V7.94901V7.98515V8.02133V8.05754V8.09378V8.13002V8.16629V8.20259V8.23893V8.2753V8.31167V8.3481V8.38453V8.421V8.45749V8.49399V8.53055V8.56711V8.60371V8.64033V8.67696V8.71365V8.75034V8.78706V8.82382V8.86057V8.89739V8.93421V8.97106V9.00791V9.04482V9.08174V9.11868V9.15566V9.19264V9.22965V9.2667V9.30377V9.34088V9.37799V9.41513V9.45227V9.48947V9.52668V9.56391V9.60118V9.63845V9.67575V9.71308V9.75041V9.78778V9.82517V9.8626V9.90003V9.93749V9.97499V10.0125V10.05V10.0876V10.1252V10.1627V10.2004V10.238V10.2757V10.3134V10.351V10.3888V10.4265V10.4643V10.5021V10.5399V10.5777V10.6156V10.6535V10.6913V10.7292V10.7672V10.8051V10.8431V10.8811V10.9191V10.9572V10.9952V11.0333V11.0714V11.1095V11.1476V11.1858V11.224V11.2622V11.3004V11.3386V11.3769V11.4151V11.4534V11.4917V11.5301V11.5684V11.6068V11.6451V11.6836V11.722V11.7604V11.7989V11.8373V11.8758V11.9143V11.9529V11.9914V12.03V12.0686V12.1071V12.1458V12.1844V12.2231V12.2617V12.3004V12.3391V12.3778V12.4166V12.4553V12.4941V12.5328V12.5716V12.6105V12.6493V12.6881V12.727V12.7659V12.8048V12.8437V12.8826V12.9216V12.9605V12.9995V13.0385V13.0775V13.1165V13.1555V13.1946V13.2336V13.2727V13.3118V13.3509V13.39V13.4292V13.4683V13.5075V13.5467V13.5859V13.6251V13.6643V13.7035V13.7428V13.782V13.8213V13.8606V13.8999V13.9392V13.9785V14.0179V14.0572V14.0966V14.1359V14.1753V14.2148V14.2542V14.2936V14.3331V14.3725V14.412V14.4514V14.4909V14.5304V14.5699V14.6094V14.649V14.6885V14.7281V14.7676V14.8072V14.8468V14.8864V14.926V14.9657V15.0053V15.0449V15.0846V15.1243V15.1639V15.2036V15.2433V15.283V15.3227V15.3625V15.4022V15.442V15.4817V15.5215V15.5613V15.601V15.6408V15.6806V15.7205V15.7603V15.8001V15.8399V15.8798V15.9197V15.9595V15.9994V16.0393V16.0792V16.1191V16.159V16.1989V16.2388V16.2787V16.3187V16.3586V16.3986V16.4385V16.4785V16.5185V16.5585V16.5984V16.6384V16.6785V16.7185V16.7585V16.7985V16.8385V16.8786V16.9186V16.9587V16.9987V17.0388V17.0789V17.1189V17.159V17.1991V17.2392V17.2793V17.3194V17.3595V17.3996V17.4397V17.4799V17.52V17.5601V17.6003V17.6404V17.6805V17.7207V17.7609V17.801V17.8412V17.8814V17.9215V17.9617V18.0019V18.0421V18.0823V18.1225V18.1627V18.2029V18.2431V18.2833V18.3235V18.3637V18.4039V18.4442V18.4844V18.5246V18.5648V18.605V18.6453V18.6855V18.7258V18.766V18.8062V18.8465V18.8867V18.927V18.9673V19.0075V19.0477V19.088V19.1283V19.1685V19.2088V19.249V19.2893V19.3296V19.3698V19.4101V19.4504V19.4906V19.5309V19.5712V19.6114V19.6517V19.692V19.7323V19.7725V19.8128V19.8531V19.8933V19.9336V19.9739V20.0141V20.0544V20.0947V20.1349V20.1752V20.2154V20.2557V20.296V20.3362V20.3765V20.4167V20.457V20.4972V20.5375V20.5777V20.618V20.6582V20.6985V20.7387V20.7789V20.8192V20.8594V20.8996V20.9399V20.9801V21.0204V21.0606V21.1008V21.141V21.1812V21.2214V21.2616V21.3018V21.342V21.3822V21.4224V21.4626V21.5028V21.543V21.5831V21.6233V21.6635V21.7036V21.7438V21.784V21.8241V21.8643V21.9044V21.9445V21.9847V22.0248V22.0649V22.105V22.1451V22.1852V22.2253V22.2654V22.3055V22.3456V22.3857V22.4257V22.4658V22.5058V22.5459V22.5859V22.626V22.666V22.7061V22.7461V22.7861V22.8261V22.8661V22.9061V22.9461V22.9861V23.026V23.066V23.1059V23.1459V23.1858V23.2258V23.2657V23.3056V23.3455V23.3854V23.4253V23.4652V23.505V23.5449V23.5848V23.6246V23.6645V23.7043ZM60.8343 27.4165L64.69 25.6437C66.455 24.832 67.5793 23.1148 67.5793 21.2297V16.5641C67.5793 13.8631 65.3073 11.6735 62.505 11.6735H61.1346V11.6836V11.722V11.7604V11.7989V11.8373V11.8758V11.9143V11.9529V11.9914V12.03V12.0686V12.1071V12.1458V12.1844V12.2231V12.2617V12.3004V12.3391V12.3778V12.4166V12.4553V12.4941V12.5328V12.5716V12.6105V12.6493V12.6881V12.727V12.7659V12.8048V12.8437V12.8826V12.9216V12.9605V12.9995V13.0385V13.0775V13.1165V13.1555V13.1946V13.2336V13.2727V13.3118V13.3509V13.39V13.4292V13.4683V13.5075V13.5467V13.5859V13.6251V13.6643V13.7035V13.7428V13.782V13.8213V13.8606V13.8999V13.9392V13.9785V14.0179V14.0572V14.0966V14.1359V14.1753V14.2148V14.2542V14.2936V14.3331V14.3725V14.412V14.4514V14.4909V14.5304V14.5699V14.6094V14.649V14.6885V14.7281V14.7676V14.8072V14.8468V14.8864V14.926V14.9657V15.0053V15.0449V15.0846V15.1243V15.1639V15.2036V15.2433V15.283V15.3227V15.3625V15.4022V15.442V15.4817V15.5215V15.5613V15.601V15.6408V15.6806V15.7205V15.7603V15.8001V15.8399V15.8798V15.9197V15.9595V15.9994V16.0393V16.0792V16.1191V16.159V16.1989V16.2388V16.2787V16.3187V16.3586V16.3986V16.4385V16.4785V16.5185V16.5585V16.5984V16.6384V16.6785V16.7185V16.7585V16.7985V16.8385V16.8786V16.9186V16.9587V16.9987V17.0388V17.0789V17.1189V17.159V17.1991V17.2392V17.2793V17.3194V17.3595V17.3996V17.4397V17.4799V17.52V17.5601V17.6003V17.6404V17.6805V17.7207V17.7609V17.801V17.8412V17.8814V17.9215V17.9617V18.0019V18.0421V18.0823V18.1225V18.1627V18.2029V18.2431V18.2833V18.3235V18.3637V18.4039V18.4442V18.4844V18.5246V18.5648V18.605V18.6453V18.6855V18.7258V18.766V18.8062V18.8465V18.8867V18.927V18.9673V19.0075V19.0477V19.088V19.1283V19.1685V19.2088V19.249V19.2893V19.3296V19.3698V19.4101V19.4504V19.4906V19.5309V19.5712V19.6114V19.6517V19.692V19.7323V19.7725V19.8128V19.8531V19.8933V19.9336V19.9739V20.0141V20.0544V20.0947V20.1349V20.1752V20.2154V20.2557V20.296V20.3362V20.3765V20.4167V20.457V20.4972V20.5375V20.5777V20.618V20.6582V20.6985V20.7387V20.7789V20.8192V20.8594V20.8996V20.9399V20.9801V21.0204V21.0606V21.1008V21.141V21.1812V21.2214V21.2616V21.3018V21.342V21.3822V21.4224V21.4626V21.5028V21.543V21.5831V21.6233V21.6635V21.7036V21.7438V21.784V21.8241V21.8643V21.9044V21.9445V21.9847V22.0248V22.0649V22.105V22.1451V22.1852V22.2253V22.2654V22.3055V22.3456V22.3857V22.4257V22.4658V22.5058V22.5459V22.5859V22.626V22.666V22.7061V22.7461V22.7861V22.8261V22.8661V22.9061V22.9461V22.9861V23.026V23.066V23.1059V23.1459V23.1858V23.2258V23.2657V23.3056V23.3455V23.3854V23.4253V23.4652V23.505V23.5449V23.5848V23.6246V23.6645V23.7043C61.1346 24.9673 61.032 26.2071 60.8343 27.4165ZM12.0236 23.7036C12.0236 24.9668 12.1263 26.2069 12.324 27.4166L8.46838 25.6437C6.70321 24.832 5.57914 23.1148 5.57914 21.2297V16.5641C5.57914 13.8631 7.85088 11.6735 10.6532 11.6735H12.0236V23.7036ZM24.8927 59.0584C25.7711 58.4235 26.8393 58.0804 27.9372 58.0804H36.5793H45.2213C46.319 58.0804 47.3873 58.4235 48.2656 59.0584L52.2163 61.9142C53.2696 62.676 52.711 64.2917 51.394 64.2917H21.7644C20.4474 64.2917 19.8886 62.676 20.9421 61.9142L24.8927 59.0584Z" fill="#A59AC6"/>
<path d="M36.054 15.7828C36.321 15.4541 36.837 15.4541 37.104 15.7828L38.9733 18.085C39.05 18.1795 39.1527 18.2514 39.2697 18.2926L42.119 19.2947C42.526 19.4378 42.6857 19.911 42.4437 20.2572L40.7497 22.6822C40.68 22.7818 40.6407 22.8981 40.6363 23.0181L40.528 25.9397C40.5127 26.3568 40.095 26.6492 39.6787 26.5345L36.7623 25.731C36.6423 25.698 36.5157 25.698 36.3957 25.731L33.4793 26.5345C33.063 26.6492 32.6453 26.3568 32.63 25.9397L32.5217 23.0181C32.5173 22.8981 32.478 22.7818 32.4083 22.6822L30.7143 20.2572C30.4723 19.911 30.632 19.4378 31.039 19.2947L33.8883 18.2926C34.0053 18.2514 34.108 18.1795 34.1847 18.085L36.054 15.7828Z" fill="#A59AC6"/>
</svg>
