<svg width="71" height="72" viewBox="0 0 71 72" fill="none" xmlns="http://www.w3.org/2000/svg">
<path d="M39.5281 0C22.6429 0 8.64073 12.9584 8.12896 28.928L0.34168 48.7864C-0.0700869 49.6401 0.416582 51.4894 2.31345 51.4894H8.10406V57.69C8.10406 58.7925 9.04014 59.6935 10.2131 59.6935H16.9396V69.9962C16.9396 71.0988 17.8755 71.9998 19.0486 71.9998H51.2089C52.3695 71.9998 53.3179 71.0632 53.3179 69.9607C53.3179 62.9303 56.3631 56.1251 61.8915 50.8136C67.7196 45.1822 70.9517 37.7487 70.9517 29.8526C70.9396 13.3852 56.8499 0 39.5281 0ZM58.8842 47.9921C53.0811 53.5761 49.6742 60.6067 49.175 67.9928H21.1455V57.6902C21.1455 56.5876 20.2096 55.6866 19.0364 55.6866H12.3098V49.498C12.3098 48.3954 11.3737 47.4944 10.2007 47.4944H5.33366C5.33366 47.4944 12.3098 29.5803 12.3098 29.3551C12.5843 15.3768 24.7771 4.00715 39.5032 4.00715C54.5038 4.00715 66.709 15.602 66.709 29.8526C66.7339 36.6936 63.9386 43.1193 58.8842 47.9921Z" fill="#A59AC6"/>
<path d="M59.6829 25.9286L55.0778 24.257C54.953 23.9723 54.8407 23.676 54.7034 23.3915L56.7001 19.1117C57.0621 18.3647 56.8748 17.4637 56.2632 16.8827L53.1683 13.9425C52.5568 13.3616 51.6332 13.1956 50.8221 13.5275L46.3044 15.4244C46.0048 15.294 45.6928 15.1636 45.3934 15.0688L43.6212 10.6939C43.3093 9.92329 42.5355 9.41345 41.6495 9.41345H37.2442C36.383 9.41345 35.5844 9.92329 35.2724 10.6939L33.5002 15.0568C33.2006 15.1753 32.8887 15.2821 32.5892 15.4124L28.0841 13.5156C27.2729 13.1717 26.3494 13.3496 25.7378 13.9306L22.6304 16.8827C22.0188 17.4637 21.8441 18.3528 22.1935 19.1117L24.1902 23.3915C24.0529 23.6762 23.9157 23.9725 23.8159 24.257L19.2359 25.9405C18.4121 26.2369 17.888 26.9719 17.888 27.8137V31.9988C17.888 32.8169 18.4247 33.5756 19.2359 33.8719L23.8284 35.5555C23.9531 35.8401 24.0655 36.1365 24.2027 36.4209L22.2061 40.689C21.8441 41.436 22.0314 42.337 22.6429 42.918L25.7504 45.8701C26.362 46.4511 27.2855 46.6171 28.0967 46.2851L32.6018 44.3883C32.9014 44.5187 33.2134 44.6491 33.5128 44.7439L35.2849 49.1068C35.5969 49.8774 36.3706 50.3873 37.2567 50.3873H41.662C42.5232 50.3873 43.3218 49.8774 43.6338 49.1068L45.4059 44.7439C45.7056 44.6254 46.0175 44.5187 46.3169 44.3883L50.8221 46.2851C51.6083 46.629 52.5568 46.4511 53.1683 45.8701L56.2758 42.918C56.8874 42.337 57.0621 41.4479 56.7127 40.689L54.716 36.4092C54.8532 36.1246 54.9905 35.8282 55.0903 35.5438L59.6829 33.8602C60.494 33.5638 61.0307 32.8288 61.0307 31.987V27.802C61.0182 26.9837 60.4817 26.225 59.6829 25.9286ZM56.8127 30.6116L52.657 32.1291C52.0579 32.3544 51.5962 32.8286 51.4089 33.4096C51.1842 34.0735 50.8848 34.7612 50.5228 35.4251C50.2232 35.9586 50.1983 36.6107 50.4605 37.1679L52.2701 41.0329L51.2093 42.0407L47.1409 40.3215C46.5544 40.0607 45.8679 40.0963 45.3063 40.3808C44.6075 40.7364 43.8836 41.021 43.1848 41.2225C42.5732 41.4122 42.0616 41.8508 41.8369 42.4082L40.2395 46.3561H38.7295L37.1445 42.3963C36.9198 41.8272 36.4083 41.3885 35.7967 41.2106C35.0979 40.9971 34.374 40.7127 33.6751 40.3688C33.1136 40.0842 32.4271 40.0606 31.8406 40.3096L27.7722 42.0405L26.7114 41.0327L28.521 37.1677C28.7955 36.5986 28.758 35.9584 28.4586 35.4249C28.0843 34.761 27.7847 34.0733 27.5726 33.4094C27.3729 32.8284 26.9112 32.3424 26.3245 32.129L22.1314 30.5996V29.1651L26.2871 27.6476C26.8861 27.4223 27.3478 26.9481 27.5351 26.3671C27.7598 25.7032 28.0592 25.0155 28.4212 24.3516C28.7208 23.8181 28.7457 23.166 28.4835 22.6088L26.6739 18.7438L27.7347 17.736L31.8032 19.4669C32.4022 19.7277 33.0761 19.6921 33.6377 19.4077C34.3365 19.0521 35.0604 18.7674 35.7593 18.5659C36.3708 18.3763 36.8575 17.9376 37.1071 17.3803L38.7046 13.4323H40.2146L41.812 17.3803C42.0491 17.9493 42.5483 18.388 43.1599 18.5659C43.8712 18.7794 44.5826 19.0638 45.2814 19.4077C45.843 19.6923 46.5295 19.716 47.116 19.4669L51.1844 17.736L52.2452 18.7438L50.4356 22.6088C50.1611 23.1779 50.1985 23.8181 50.4979 24.3516C50.8722 25.0155 51.1718 25.7032 51.384 26.3671C51.5836 26.9481 52.0454 27.4341 52.632 27.6476L56.7878 29.1651V30.5996H56.8127V30.6116Z" fill="#A59AC6"/>
<path d="M39.4657 22.2295C35.023 22.2295 31.3914 25.6676 31.3914 29.9001C31.3914 34.1327 35.0104 37.5707 39.4657 37.5707C43.921 37.5707 47.5401 34.1327 47.5401 29.9001C47.5401 25.6676 43.921 22.2295 39.4657 22.2295ZM39.4657 33.5517C37.3316 33.5517 35.5971 31.9037 35.5971 29.8765C35.5971 27.849 37.3318 26.2013 39.4657 26.2013C41.5999 26.2013 43.3344 27.8492 43.3344 29.8765C43.3344 31.9156 41.5997 33.5517 39.4657 33.5517Z" fill="#A59AC6"/>
</svg>
