<svg width="73" height="60" viewBox="0 0 73 60" fill="none" xmlns="http://www.w3.org/2000/svg">
<path d="M11.4753 43.6289C14.1521 43.6289 16.3109 45.6797 16.3109 48.2227C16.3109 50.7656 14.1521 52.8164 11.4753 52.8164C8.79852 52.8164 6.63981 50.7656 6.63981 48.2227C6.63981 45.6797 8.79852 43.6289 11.4753 43.6289ZM24.111 43.6289C26.7878 43.6289 28.9466 45.6797 28.9466 48.2227C28.9466 50.7656 26.7878 52.8164 24.111 52.8164C21.4342 52.8164 19.2755 50.7656 19.2755 48.2227C19.2755 45.6797 21.463 43.6289 24.111 43.6289ZM17.5773 33.0195C20.2541 33.0195 22.4128 35.0703 22.4128 37.6133C22.4128 40.1562 20.2541 42.207 17.5773 42.207C14.9005 42.207 12.7418 40.1562 12.7418 37.6133C12.7418 35.0703 14.9005 33.0195 17.5773 33.0195ZM30.5872 33.0195C33.264 33.0195 35.4227 35.0703 35.4227 37.6133C35.4227 40.1562 33.264 42.207 30.5872 42.207C27.9104 42.207 25.7516 40.1562 25.7516 37.6133C25.7516 35.0703 27.9104 33.0195 30.5872 33.0195ZM42.8775 33.0195C45.5543 33.0195 47.713 35.0703 47.713 37.6133C47.713 40.1562 45.5543 42.207 42.8775 42.207C40.2007 42.207 38.0419 40.1562 38.0419 37.6133C38.0419 35.0703 40.2007 33.0195 42.8775 33.0195ZM55.0814 33.0195C57.7582 33.0195 59.9169 35.0703 59.9169 37.6133C59.9169 40.1562 57.7582 42.207 55.0814 42.207C52.4046 42.207 50.2459 40.1562 50.2459 37.6133C50.2459 35.0703 52.4046 33.0195 55.0814 33.0195ZM49.2097 43.6289C51.8865 43.6289 54.0452 45.6797 54.0452 48.2227C54.0452 50.7656 51.8865 52.8164 49.2097 52.8164C46.5329 52.8164 44.3742 50.7656 44.3742 48.2227C44.3742 45.6797 46.5329 43.6289 49.2097 43.6289ZM36.6891 43.6836C39.366 43.6836 41.5247 45.7344 41.5247 48.2773C41.5247 50.8203 39.366 52.8711 36.6891 52.8711C34.0123 52.8711 31.8536 50.8203 31.8536 48.2773C31.94 45.7344 34.0987 43.6836 36.6891 43.6836ZM61.8454 43.6836C64.5222 43.6836 66.6809 45.7344 66.6809 48.2773C66.6809 50.8203 64.5222 52.8711 61.8454 52.8711C59.1686 52.8711 57.0099 50.8203 57.0099 48.2773C57.0099 45.7344 59.1686 43.6836 61.8454 43.6836ZM22.3265 59.5156C22.3265 56.6992 19.9375 54.4297 16.9729 54.4297H5.8051C2.84047 54.4297 0.451485 56.6992 0.451485 59.5156M47.6554 59.5156C47.6554 56.6992 45.2664 54.4297 42.3018 54.4297H31.1341C28.1694 54.4297 25.7804 56.6992 25.7804 59.5156M72.7253 59.5156C72.7253 56.6992 70.3364 54.4297 67.3717 54.4297H56.204C53.2393 54.4297 50.8503 56.6992 50.8503 59.5156M36.8906 0.5625C40.028 0.5625 42.5609 2.96875 42.5609 5.94922C42.5609 8.92969 40.028 11.3359 36.8906 11.3359C33.7533 11.3359 31.2204 8.92969 31.2204 5.94922C31.2204 2.96875 33.7533 0.5625 36.8906 0.5625ZM28.3997 24.1602V19.9219H30.1842V24.1602H43.6546V19.9219H45.3528V24.1602H49.8142V19.5664C49.8142 15.957 47.5691 12.4844 43.1941 12.4844H30.472C26.4424 12.4844 23.9095 15.6016 23.9095 19.4844V24.1602H28.3997ZM18.6135 25.1719H54.8512V30.8867H18.6135V25.1719Z" fill="#A59AC6"/>
</svg>
