<svg width="58" height="52" viewBox="0 0 58 52" fill="none" xmlns="http://www.w3.org/2000/svg">
<path fill-rule="evenodd" clip-rule="evenodd" d="M20.4799 7.30491C22.029 6.07335 22.2866 3.81915 21.0549 2.27004C19.8233 0.720928 17.5692 0.463466 16.02 1.69506C2.96602 12.073 0.333313 25.5642 0.333313 40.3333C0.333313 46.2705 5.14627 51.0833 11.0833 51.0833C17.0204 51.0833 21.8333 46.2705 21.8333 40.3333C21.8333 34.3964 17.0204 29.5833 11.0833 29.5833C10.0525 29.5833 9.05558 29.7284 8.11187 29.9993C9.3497 20.9374 12.7223 13.4723 20.4799 7.30491ZM57.6666 40.3333C57.6666 46.2705 52.8539 51.0833 46.9166 51.0833C40.9794 51.0833 36.1666 46.2705 36.1666 40.3333C36.1666 25.5642 38.7993 12.073 51.8534 1.69506C53.4025 0.463466 55.6568 0.720928 56.8883 2.27004C58.1199 3.81915 57.8623 6.07335 56.3132 7.30491C48.5557 13.4723 45.183 20.9374 43.9453 29.9993C44.8888 29.7284 45.8857 29.5833 46.9166 29.5833C52.8539 29.5833 57.6666 34.3964 57.6666 40.3333Z" fill="#A59AC6" fill-opacity="0.3"/>
</svg>
