<!-- Generator: Adobe Illustrator 24.3.0, SVG Export Plug-In  -->
<svg version="1.1" xmlns="http://www.w3.org/2000/svg" xmlns:xlink="http://www.w3.org/1999/xlink" x="0px" y="0px"
	 width="1092.18px" height="489.97px" viewBox="0 0 1092.18 489.97"
	 style="overflow:visible;enable-background:new 0 0 1092.18 489.97;" xml:space="preserve">
<style type="text/css">
	.st0{fill:#FFFFFF;}
	.st1{font-family:'arial';}
	.st2{font-size:163.4039px;}
	.st3{letter-spacing:-8;}
</style>
<defs>
</defs>
<g>
	<text transform="matrix(1 0 0 1 0 140.2257)" class="st0 st1 st2 st3">vive una vida</text>
	<g>
		<path class="st0" d="M17,145.02h140.18l54.06,209.89l53.67-209.89h140.1v344.95h-87.3V226.9l-67.26,263.07h-79.02L104.3,226.9
			v263.07H17V145.02z"/>
		<path class="st0" d="M636.89,433.03H515.88l-16.81,56.94H390.23l129.65-344.95h116.27l129.62,344.95H654.15L636.89,433.03z
			 M614.78,358.44l-38.08-124l-37.68,124H614.78z"/>
		<path class="st0" d="M727.94,145.02h117.41l61.06,106.12l59.41-106.12h116.24L974.7,312.08l117.48,177.89H972.41l-68.12-110.83
			l-68.12,110.83H717.11L836.1,310.2L727.94,145.02z"/>
	</g>
</g>
</svg>
