<!-- Generator: Adobe Illustrator 24.3.0, SVG Export Plug-In  -->
<svg version="1.1" xmlns="http://www.w3.org/2000/svg" xmlns:xlink="http://www.w3.org/1999/xlink" x="0px" y="0px" width="32.15px"
	 height="32.15px" viewBox="0 0 32.15 32.15" style="overflow:visible;enable-background:new 0 0 32.15 32.15;"
	 xml:space="preserve">
<style type="text/css">
	.st0{fill:#FFFFFF;}
</style>
<defs>
</defs>
<path class="st0" d="M26.69,0H5.46C2.46,0,0,2.46,0,5.46v21.23c0,3,2.46,5.46,5.46,5.46h21.23c3,0,5.46-2.46,5.46-5.46V5.46
	C32.15,2.46,29.69,0,26.69,0z M20.67,10.54c-0.1,0-0.17,0-0.25,0c-0.6,0-1.2-0.01-1.8,0.01c-0.82,0.03-1.43,0.34-1.46,1.37
	c-0.02,0.75-0.03,2.48-0.03,2.48s1.93,0,2.77,0c0.21,0,0.43,0,0.67,0c-0.16,1.19-0.3,2.34-0.46,3.5h-2.96v8.74h-3.63v-8.76h-2.97
	V14.4h2.99v-0.26c0-0.7-0.02-1.4,0-2.1c0.01-0.45,0.03-0.9,0.11-1.34c0.19-1.06,0.68-1.96,1.57-2.6C16,7.53,16.89,7.3,17.83,7.29
	c0.62-0.01,1.23,0.02,1.85,0.04c0.34,0.02,0.67,0.06,0.99,0.09V10.54z"/>
</svg>
