<svg height="512" viewBox="0 0 60 58" width="512" xmlns="http://www.w3.org/2000/svg"><g id="Page-1" fill="none" fill-rule="evenodd"><g id="008---Flower" fill-rule="nonzero"><path id="Shape" d="m44.28 36.29c3.3093876.8687093 5.8399652 3.5387981 6.53 6.89.8898671-.7589894 2.0204187-1.1771872 3.19-1.18 2.1933539-.0136035 4.1394894 1.4038803 4.7993697 3.4956605s-.1205829 4.3694063-1.9247022 5.6168597c-1.8041194 1.2474534-4.210616 1.1734418-5.9346675-.1825202-.4104661 3.5380973-3.1130273 6.3773775-6.6265801 6.9618101-3.5135528.5844325-6.9897146-1.2270998-8.5234199-4.4418101-1.1102498 2.1761768-3.3469691 3.5460366-5.79 3.5460366s-4.6797502-1.3698598-5.79-3.5460366c-1.5337053 3.2147103-5.0098671 5.0262426-8.5234199 4.4418101-3.5135528-.5844326-6.21611404-3.4237128-6.6265801-6.9618101-2.06629022 1.6274168-5.0401408 1.3757295-6.80353181-.5758065s-1.71333577-4.9355984.11451564-6.8268942c1.82785142-1.8912958 4.80847027-2.0431017 6.81901617-.3472993.76234126-3.7213157 3.7874265-6.5580844 7.55-7.08l13.7 2.6z" fill="#cb8252"/><path id="Shape" d="m33.968 21.726c-1.9728283 4.5482045-2.9800756 9.456407-2.958 14.414 0 .43.01.86.03 1.3v2.607l-3.793.347c-.7855248-6.9945627.2875615-14.0725857 3.111-20.52z" fill="#24ae5f"/><path id="Shape" d="m29.15 40.03c-3.31.25-4.06 1.92-4.15 1.97-.9888023-.2505666-2.0279964-.2193908-3 .09-1.0790532-.451474-2.0630047-1.1029178-2.9-1.92-2.8-2.81-3.11-7.28-3.11-9.21.0011003-.5407827.4392173-.9788997.98-.98 1.93 0 6.4.32 9.21 3.12 1.7255812 1.9202608 2.7695223 4.3561234 2.97 6.93z" fill="#4fba6f"/><path id="Shape" d="m44.74 34.86c-.51 1.86-2 6.09-5.45 8.05l-.06.03c-.66-.79-1.91-1.4-4.23-.94-.1-.05-1.428-2.379-5.32-1.99.3730713-.8904322.8283763-1.7441291 1.36-2.55v-.02c.835052-1.3245609 1.9729955-2.4316566 3.32-3.23 3.44-1.96 7.84-1.07 9.7-.55.250401.067225.4633687.2320895.5911911.4576584s.1598144.4929863.0888089.7423416z" fill="#4fba6f"/><path id="Shape" d="m14 50c-1.6568542 0-3-1.3431458-3-3 0-.5522847.4477153-1 1-1s1 .4477153 1 1 .4477153 1 1 1 1-.4477153 1-1 .4477153-1 1-1 1 .4477153 1 1c0 1.6568542-1.3431458 3-3 3z" fill="#a56a43"/><path id="Shape" d="m26 50c-1.6568542 0-3-1.3431458-3-3 0-.5522847.4477153-1 1-1s1 .4477153 1 1 .4477153 1 1 1 1-.4477153 1-1 .4477153-1 1-1 1 .4477153 1 1c0 1.6568542-1.3431458 3-3 3z" fill="#a56a43"/><path id="Shape" d="m43 52c-1.6568542 0-3-1.3431458-3-3 0-.5522847.4477153-1 1-1s1 .4477153 1 1 .4477153 1 1 1 1-.4477153 1-1 .4477153-1 1-1 1 .4477153 1 1c0 1.6568542-1.3431458 3-3 3z" fill="#a56a43"/><circle id="Oval" cx="18" cy="52" fill="#805333" r="1"/><circle id="Oval" cx="35" cy="47" fill="#805333" r="1"/><circle id="Oval" cx="32" cy="51" fill="#805333" r="1"/><circle id="Oval" cx="47" cy="45" fill="#805333" r="1"/><path id="Shape" d="m49.06 21c-1.29 2.23-3.34 3.49-5.42 2.62-.6973256-.3542574-1.3432425-.8016894-1.92-1.33.1253485.5989943.1956414 1.2081992.21 1.82 0 2.648-2.314 3.89-5 3.89-2.57 0-4.69-1.14-4.96-3.38-.0614885-.7813015-.0007589-1.5674129.18-2.33-.5767575.5283106-1.2226744.9757426-1.92 1.33-2.08.87-4.13-.39-5.42-2.62s-1.36-4.65.46-6c.6442595-.4333192 1.3483587-.7702087 2.09-1-.7418832-.2291734-1.4460698-.5661048-2.09-1-1.82-1.35-1.75-3.77-.46-6s3.34-3.49 5.42-2.62c.6971797.35450187 1.3430649.80191192 1.92 1.33-.1803882-.7626449-.2411134-1.54869832-.18-2.33.27-2.24 2.39-3.38 4.96-3.38 2.59 0 4.7 1.15 4.97 3.4.0715276.77463537.010658 1.55579467-.18 2.31.5769351-.52808808 1.2228203-.97549813 1.92-1.33 2.08-.87 4.13.39 5.42 2.62s1.36 4.65-.46 6c-.6442524.4333317-1.3483534.7702221-2.09 1 .7416413.2297913 1.4457405.5666808 2.09 1 1.82 1.35 1.75 3.77.46 6z" fill="#ff5364"/><circle id="Oval" cx="36.934" cy="14" fill="#f3d55b" r="3"/><g fill="#df4d60"><path id="Shape" d="m30.93 14c0 .5522847-.4477153 1-1 1h-4.66c.6442595-.4333192 1.3483587-.7702087 2.09-1-.7418832-.2291734-1.4460698-.5661048-2.09-1h4.66c.5522847 0 1 .4477153 1 1z"/><path id="Shape" d="m34.3 20.56-2.33 4.06c-.0614885-.7813015-.0007589-1.5674129.18-2.33-.5767575.5283106-1.2226744.9757426-1.92 1.33l2.33-4.06c.1786328-.3108211.5095174-.5027321.8680127-.5034421s.6901375.1898889.87.5.1806201.692621.0019873 1.0034421z"/><path id="Shape" d="m41.72 22.29c.1708293.757329.2314543 1.5353502.18 2.31l-2.34-4.04c-.2723004-.4809795-.1074157-1.0914986.37-1.37.4779792-.2713883 1.0853915-.1061364 1.36.37l2.35 4.06c-.6973256-.3542574-1.3432425-.8016894-1.92-1.33z"/><path id="Shape" d="m48.6 15h-4.67c-.5522847 0-1-.4477153-1-1s.4477153-1 1-1h4.67c-.6442524.4333317-1.3483534.7702221-2.09 1 .7416413.2297913 1.4457405.5666808 2.09 1z"/><path id="Shape" d="m43.64 4.38-2.35 4.06c-.1761919.30889723-.5043864.49970799-.86.5-.3579753.00142445-.6894063-.18861175-.8690104-.49827399-.1796041-.30966225-.1799815-.69170949-.0009896-1.00172601l2.34-4.03c.0508374.77133305-.0097861 1.54596661-.18 2.3.5769351-.52808808 1.2228203-.97549813 1.92-1.33z"/><path id="Shape" d="m33.93 8.81c-.4811248.27114576-1.0907917.10649119-1.37-.37l-2.33-4.06c.6971797.35450187 1.3430649.80191192 1.92 1.33-.1803882-.7626449-.2411134-1.54869832-.18-2.33l2.33 4.06c.2723004.48097949.1074157 1.09149858-.37 1.37z"/></g><path id="Shape" d="m26.75 41.6c-.4391099.0000854-.8269017-.2862963-.956-.706-.7500388-2.1623942-2.2890421-3.9617673-4.309-5.038-.3132279-.1806127-.5045637-.516242-.5004101-.8777878.0041537-.3615459.2031497-.6926908.5204443-.8660598.3172946-.1733689.7034632-.1619565 1.0099658.0298476 2.4454609 1.3263953 4.2995638 3.5276737 5.191 6.163.0956408.304116.0405471.6356092-.1483223.8924399s-.488878.4082173-.8076777.4075601z" fill="#24ae5f"/><path id="Shape" d="m33.549 41.74c-.354903-.000611-.6828935-.1892836-.861847-.4957672-.1789535-.3064835-.1820562-.6848557-.008153-.9942328 1.3095969-2.252641 3.5555929-3.8038667 6.126-4.231.5417913-.1076955 1.0683045.2442087 1.176.786s-.2442087 1.0683045-.786 1.176c-2.0005244.3066785-3.7552155 1.5012211-4.774 3.25-.1773838.3147245-.5107294.5093036-.872.509z" fill="#24ae5f"/><path id="Shape" d="m40 46c-.5491756.0000176-.9956066-.442842-1-.992-.028169-.517636-.2141746-1.0142325-.533-1.423-.742-.887-2.187-.818-3.273-.6-.2019214.0406416-.4114667.0179409-.6-.065-.200806-.0926827-.3703482-.2417269-.488-.429-.859-1.233-2.706-1.491-4.106-1.491s-3.243.259-4.118 1.495c-.107862.1702493-.2594788.3083967-.439.4-.1966844.0981553-.4204425.12806-.636.085-.8060882-.2084696-1.6537169-.193605-2.452.043-.8029028.3379521-1.3331631 1.1151455-1.355 1.986-.0049391.5487668-.451211.9910222-1 .991h-.009c-.5487668-.0049391-.9910222-.451211-.991-1 .0243913-1.7012775 1.0716078-3.2201953 2.653-3.848.9447056-.32077 1.9544302-.4011906 2.938-.234 1.434-1.576 3.694-1.918 5.409-1.918s4.006.345 5.414 1.917c2.526-.345 3.886.542 4.586 1.383.6214061.7654132.9729087 1.7144702 1 2.7 0 .5522847-.4477153 1-1 1z" fill="#a56a43"/></g></g></svg>